<?xml version="1.0"?>
<!DOCTYPE lmms-project>
<lmms-project creatorversion="1.2.2" version="1.0" type="song" creator="LMMS">
  <head bpm="190" mastervol="100" timesig_denominator="4" timesig_numerator="4" masterpitch="0"/>
  <song>
    <trackcontainer minimized="0" maximized="1" visible="1" height="300" y="2" width="600" type="song" x="6">
      <track solo="0" muted="0" name="Automation track" type="5">
        <automationtrack/>
      </track>
      <track solo="0" muted="0" name="flute.ogg" type="0">
        <instrumenttrack vol="46.4" fxch="0" usemasterpitch="1" pitch="0" basenote="57" pitchrange="1" pan="0">
          <instrument name="audiofileprocessor">
            <audiofileprocessor interp="1" sframe="0" lframe="0" amp="100" eframe="1" reversed="0" looped="0" src="noteblock/flute.ogg" stutter="0"/>
          </instrument>
          <eldata ftype="0" fcut="14000" fwet="0" fres="0.5">
            <elvol hold="0.5" dec="0.5" att="0" lspd_numerator="4" latt="0" pdel="0" lshp="0" lspd_denominator="4" amt="1" userwavefile="" sustain="0.5" x100="0" rel="0.652" ctlenvamt="0" lpdel="0" lamt="0" lspd="0.1" lspd_syncmode="0"/>
            <elcut hold="0.5" dec="0.5" att="0" lspd_numerator="4" latt="0" pdel="0" lshp="0" lspd_denominator="4" amt="0" userwavefile="" sustain="0.5" x100="0" rel="0.1" ctlenvamt="0" lpdel="0" lamt="0" lspd="0.1" lspd_syncmode="0"/>
            <elres hold="0.5" dec="0.5" att="0" lspd_numerator="4" latt="0" pdel="0" lshp="0" lspd_denominator="4" amt="0" userwavefile="" sustain="0.5" x100="0" rel="0.1" ctlenvamt="0" lpdel="0" lamt="0" lspd="0.1" lspd_syncmode="0"/>
          </eldata>
          <chordcreator chord-enabled="0" chord="0" chordrange="1"/>
          <arpeggiator arptime_syncmode="0" arptime_numerator="4" arptime_denominator="4" arpmode="0" arpskip="0" arpgate="100" arprange="1" arp-enabled="0" arp="0" arpcycle="0" arpmiss="0" arptime="200" arpdir="0"/>
          <midiport outputprogram="1" writable="0" fixedoutputvelocity="-1" outputchannel="1" readable="0" inputchannel="0" fixedoutputnote="-1" inputcontroller="0" outputcontroller="0" basevelocity="63" fixedinputvelocity="-1"/>
          <fxchain enabled="0" numofeffects="0"/>
        </instrumenttrack>
        <pattern muted="0" pos="3072" name="flute.ogg" type="1" steps="16">
          <note key="57" pos="0" len="24" vol="100" pan="0"/>
          <note key="57" pos="36" len="12" vol="100" pan="0"/>
          <note key="52" pos="48" len="24" vol="100" pan="0"/>
          <note key="50" pos="96" len="24" vol="100" pan="0"/>
          <note key="52" pos="144" len="24" vol="100" pan="0"/>
          <note key="55" pos="192" len="24" vol="100" pan="0"/>
          <note key="47" pos="228" len="12" vol="100" pan="0"/>
          <note key="48" pos="240" len="24" vol="100" pan="0"/>
          <note key="50" pos="288" len="24" vol="100" pan="0"/>
          <note key="52" pos="384" len="24" vol="100" pan="0"/>
          <note key="53" pos="420" len="12" vol="100" pan="0"/>
          <note key="52" pos="432" len="24" vol="100" pan="0"/>
          <note key="47" pos="480" len="24" vol="100" pan="0"/>
          <note key="48" pos="528" len="24" vol="100" pan="0"/>
          <note key="50" pos="576" len="24" vol="100" pan="0"/>
          <note key="52" pos="612" len="12" vol="100" pan="0"/>
          <note key="50" pos="624" len="24" vol="100" pan="0"/>
          <note key="52" pos="660" len="12" vol="100" pan="0"/>
          <note key="50" pos="672" len="24" vol="100" pan="0"/>
        </pattern>
        <pattern muted="0" pos="3840" name="" type="1" steps="16">
          <note key="57" pos="0" len="24" vol="100" pan="0"/>
          <note key="57" pos="36" len="12" vol="100" pan="0"/>
          <note key="52" pos="48" len="24" vol="100" pan="0"/>
          <note key="50" pos="96" len="24" vol="100" pan="0"/>
          <note key="52" pos="144" len="24" vol="100" pan="0"/>
          <note key="55" pos="192" len="24" vol="100" pan="0"/>
          <note key="57" pos="228" len="12" vol="100" pan="0"/>
          <note key="59" pos="240" len="24" vol="100" pan="0"/>
          <note key="62" pos="276" len="12" vol="100" pan="0"/>
          <note key="60" pos="288" len="24" vol="100" pan="0"/>
          <note key="59" pos="372" len="12" vol="100" pan="0"/>
          <note key="60" pos="384" len="24" vol="100" pan="0"/>
          <note key="62" pos="420" len="12" vol="100" pan="0"/>
          <note key="57" pos="432" len="24" vol="100" pan="0"/>
          <note key="52" pos="480" len="24" vol="100" pan="0"/>
          <note key="55" pos="528" len="24" vol="100" pan="0"/>
          <note key="57" pos="576" len="24" vol="100" pan="0"/>
          <note key="59" pos="612" len="12" vol="100" pan="0"/>
          <note key="57" pos="624" len="24" vol="100" pan="0"/>
          <note key="52" pos="660" len="12" vol="100" pan="0"/>
          <note key="56" pos="672" len="24" vol="100" pan="0"/>
        </pattern>
        <pattern muted="0" pos="4608" name="" type="1" steps="16">
          <note key="57" pos="0" len="24" vol="100" pan="0"/>
          <note key="57" pos="36" len="12" vol="100" pan="0"/>
          <note key="52" pos="48" len="24" vol="100" pan="0"/>
          <note key="50" pos="96" len="24" vol="100" pan="0"/>
          <note key="52" pos="144" len="24" vol="100" pan="0"/>
          <note key="55" pos="192" len="24" vol="100" pan="0"/>
          <note key="47" pos="228" len="12" vol="100" pan="0"/>
          <note key="48" pos="240" len="24" vol="100" pan="0"/>
          <note key="50" pos="288" len="24" vol="100" pan="0"/>
          <note key="52" pos="384" len="24" vol="100" pan="0"/>
          <note key="53" pos="420" len="12" vol="100" pan="0"/>
          <note key="52" pos="432" len="24" vol="100" pan="0"/>
          <note key="47" pos="480" len="24" vol="100" pan="0"/>
          <note key="48" pos="528" len="24" vol="100" pan="0"/>
          <note key="50" pos="576" len="24" vol="100" pan="0"/>
          <note key="52" pos="612" len="12" vol="100" pan="0"/>
          <note key="50" pos="624" len="24" vol="100" pan="0"/>
          <note key="52" pos="660" len="12" vol="100" pan="0"/>
          <note key="50" pos="672" len="24" vol="100" pan="0"/>
        </pattern>
        <pattern muted="0" pos="5376" name="" type="1" steps="16">
          <note key="57" pos="0" len="24" vol="100" pan="0"/>
          <note key="57" pos="36" len="12" vol="100" pan="0"/>
          <note key="52" pos="48" len="24" vol="100" pan="0"/>
          <note key="50" pos="96" len="24" vol="100" pan="0"/>
          <note key="52" pos="144" len="24" vol="100" pan="0"/>
          <note key="55" pos="192" len="24" vol="100" pan="0"/>
          <note key="57" pos="228" len="12" vol="100" pan="0"/>
          <note key="59" pos="240" len="24" vol="100" pan="0"/>
          <note key="62" pos="276" len="12" vol="100" pan="0"/>
          <note key="60" pos="288" len="24" vol="100" pan="0"/>
          <note key="59" pos="372" len="12" vol="100" pan="0"/>
          <note key="60" pos="384" len="24" vol="100" pan="0"/>
          <note key="62" pos="420" len="12" vol="100" pan="0"/>
          <note key="57" pos="432" len="24" vol="100" pan="0"/>
          <note key="52" pos="480" len="24" vol="100" pan="0"/>
          <note key="55" pos="528" len="24" vol="100" pan="0"/>
          <note key="57" pos="576" len="24" vol="100" pan="0"/>
          <note key="59" pos="612" len="12" vol="100" pan="0"/>
          <note key="57" pos="624" len="24" vol="100" pan="0"/>
          <note key="52" pos="660" len="12" vol="100" pan="0"/>
          <note key="56" pos="672" len="24" vol="100" pan="0"/>
        </pattern>
      </track>
      <track solo="0" muted="0" name="snare.ogg" type="0">
        <instrumenttrack vol="100" fxch="0" usemasterpitch="1" pitch="0" basenote="57" pitchrange="1" pan="0">
          <instrument name="audiofileprocessor">
            <audiofileprocessor interp="1" sframe="0" lframe="0" amp="100" eframe="1" reversed="0" looped="0" src="noteblock/snare.ogg" stutter="0"/>
          </instrument>
          <eldata ftype="0" fcut="14000" fwet="0" fres="0.5">
            <elvol hold="0.5" dec="0.5" att="0" lspd_numerator="4" latt="0" pdel="0" lshp="0" lspd_denominator="4" amt="0" userwavefile="" sustain="0.5" x100="0" rel="0.1" ctlenvamt="0" lpdel="0" lamt="0" lspd="0.1" lspd_syncmode="0"/>
            <elcut hold="0.5" dec="0.5" att="0" lspd_numerator="4" latt="0" pdel="0" lshp="0" lspd_denominator="4" amt="0" userwavefile="" sustain="0.5" x100="0" rel="0.1" ctlenvamt="0" lpdel="0" lamt="0" lspd="0.1" lspd_syncmode="0"/>
            <elres hold="0.5" dec="0.5" att="0" lspd_numerator="4" latt="0" pdel="0" lshp="0" lspd_denominator="4" amt="0" userwavefile="" sustain="0.5" x100="0" rel="0.1" ctlenvamt="0" lpdel="0" lamt="0" lspd="0.1" lspd_syncmode="0"/>
          </eldata>
          <chordcreator chord-enabled="0" chord="0" chordrange="1"/>
          <arpeggiator arptime_syncmode="0" arptime_numerator="4" arptime_denominator="4" arpmode="0" arpskip="0" arpgate="100" arprange="1" arp-enabled="0" arp="0" arpcycle="0" arpmiss="0" arptime="200" arpdir="0"/>
          <midiport outputprogram="1" writable="0" fixedoutputvelocity="-1" outputchannel="1" readable="0" inputchannel="0" fixedoutputnote="-1" inputcontroller="0" outputcontroller="0" basevelocity="63" fixedinputvelocity="-1"/>
          <fxchain enabled="0" numofeffects="0"/>
        </instrumenttrack>
      </track>
      <track solo="0" muted="0" name="hat.ogg" type="0">
        <instrumenttrack vol="24" fxch="0" usemasterpitch="1" pitch="0" basenote="57" pitchrange="1" pan="0">
          <instrument name="audiofileprocessor">
            <audiofileprocessor interp="1" sframe="0" lframe="0" amp="100" eframe="1" reversed="0" looped="0" src="noteblock/hat.ogg" stutter="0"/>
          </instrument>
          <eldata ftype="0" fcut="14000" fwet="0" fres="0.5">
            <elvol hold="0.5" dec="0.5" att="0" lspd_numerator="4" latt="0" pdel="0" lshp="0" lspd_denominator="4" amt="0" userwavefile="" sustain="0.5" x100="0" rel="0.1" ctlenvamt="0" lpdel="0" lamt="0" lspd="0.1" lspd_syncmode="0"/>
            <elcut hold="0.5" dec="0.5" att="0" lspd_numerator="4" latt="0" pdel="0" lshp="0" lspd_denominator="4" amt="0" userwavefile="" sustain="0.5" x100="0" rel="0.1" ctlenvamt="0" lpdel="0" lamt="0" lspd="0.1" lspd_syncmode="0"/>
            <elres hold="0.5" dec="0.5" att="0" lspd_numerator="4" latt="0" pdel="0" lshp="0" lspd_denominator="4" amt="0" userwavefile="" sustain="0.5" x100="0" rel="0.1" ctlenvamt="0" lpdel="0" lamt="0" lspd="0.1" lspd_syncmode="0"/>
          </eldata>
          <chordcreator chord-enabled="0" chord="0" chordrange="1"/>
          <arpeggiator arptime_syncmode="0" arptime_numerator="4" arptime_denominator="4" arpmode="0" arpskip="0" arpgate="100" arprange="1" arp-enabled="0" arp="0" arpcycle="0" arpmiss="0" arptime="200" arpdir="0"/>
          <midiport outputprogram="1" writable="0" fixedoutputvelocity="-1" outputchannel="1" readable="0" inputchannel="0" fixedoutputnote="-1" inputcontroller="0" outputcontroller="0" basevelocity="63" fixedinputvelocity="-1"/>
          <fxchain enabled="0" numofeffects="0"/>
        </instrumenttrack>
        <pattern muted="0" pos="3072" name="" type="1" steps="16">
          <note key="57" pos="0" len="24" vol="100" pan="0"/>
          <note key="57" pos="36" len="12" vol="100" pan="0"/>
          <note key="57" pos="48" len="24" vol="100" pan="0"/>
          <note key="57" pos="96" len="24" vol="100" pan="0"/>
          <note key="57" pos="144" len="24" vol="100" pan="0"/>
          <note key="57" pos="192" len="24" vol="100" pan="0"/>
          <note key="57" pos="228" len="12" vol="100" pan="0"/>
          <note key="57" pos="240" len="24" vol="100" pan="0"/>
          <note key="57" pos="288" len="24" vol="100" pan="0"/>
          <note key="57" pos="372" len="12" vol="100" pan="0"/>
          <note key="57" pos="384" len="24" vol="100" pan="0"/>
          <note key="57" pos="420" len="12" vol="100" pan="0"/>
          <note key="57" pos="432" len="24" vol="100" pan="0"/>
          <note key="57" pos="480" len="24" vol="100" pan="0"/>
          <note key="57" pos="528" len="24" vol="100" pan="0"/>
          <note key="57" pos="576" len="24" vol="100" pan="0"/>
          <note key="57" pos="612" len="12" vol="100" pan="0"/>
          <note key="57" pos="624" len="24" vol="100" pan="0"/>
          <note key="57" pos="660" len="12" vol="100" pan="0"/>
          <note key="57" pos="672" len="24" vol="100" pan="0"/>
          <note key="57" pos="756" len="12" vol="100" pan="0"/>
        </pattern>
        <pattern muted="0" pos="3840" name="" type="1" steps="16">
          <note key="57" pos="0" len="24" vol="100" pan="0"/>
          <note key="57" pos="36" len="12" vol="100" pan="0"/>
          <note key="57" pos="48" len="24" vol="100" pan="0"/>
          <note key="57" pos="96" len="24" vol="100" pan="0"/>
          <note key="57" pos="144" len="24" vol="100" pan="0"/>
          <note key="57" pos="192" len="24" vol="100" pan="0"/>
          <note key="57" pos="228" len="12" vol="100" pan="0"/>
          <note key="57" pos="240" len="24" vol="100" pan="0"/>
          <note key="57" pos="288" len="24" vol="100" pan="0"/>
          <note key="57" pos="372" len="12" vol="100" pan="0"/>
          <note key="57" pos="384" len="24" vol="100" pan="0"/>
          <note key="57" pos="420" len="12" vol="100" pan="0"/>
          <note key="57" pos="432" len="24" vol="100" pan="0"/>
          <note key="57" pos="480" len="24" vol="100" pan="0"/>
          <note key="57" pos="528" len="24" vol="100" pan="0"/>
          <note key="57" pos="576" len="24" vol="100" pan="0"/>
          <note key="57" pos="612" len="12" vol="100" pan="0"/>
          <note key="57" pos="624" len="24" vol="100" pan="0"/>
          <note key="57" pos="660" len="12" vol="100" pan="0"/>
          <note key="57" pos="672" len="24" vol="100" pan="0"/>
          <note key="57" pos="756" len="12" vol="100" pan="0"/>
        </pattern>
        <pattern muted="0" pos="4608" name="" type="1" steps="16">
          <note key="57" pos="0" len="24" vol="100" pan="0"/>
          <note key="57" pos="36" len="12" vol="100" pan="0"/>
          <note key="57" pos="48" len="24" vol="100" pan="0"/>
          <note key="57" pos="96" len="24" vol="100" pan="0"/>
          <note key="57" pos="144" len="24" vol="100" pan="0"/>
          <note key="57" pos="192" len="24" vol="100" pan="0"/>
          <note key="57" pos="228" len="12" vol="100" pan="0"/>
          <note key="57" pos="240" len="24" vol="100" pan="0"/>
          <note key="57" pos="288" len="24" vol="100" pan="0"/>
          <note key="57" pos="372" len="12" vol="100" pan="0"/>
          <note key="57" pos="384" len="24" vol="100" pan="0"/>
          <note key="57" pos="420" len="12" vol="100" pan="0"/>
          <note key="57" pos="432" len="24" vol="100" pan="0"/>
          <note key="57" pos="480" len="24" vol="100" pan="0"/>
          <note key="57" pos="528" len="24" vol="100" pan="0"/>
          <note key="57" pos="576" len="24" vol="100" pan="0"/>
          <note key="57" pos="612" len="12" vol="100" pan="0"/>
          <note key="57" pos="624" len="24" vol="100" pan="0"/>
          <note key="57" pos="660" len="12" vol="100" pan="0"/>
          <note key="57" pos="672" len="24" vol="100" pan="0"/>
          <note key="57" pos="756" len="12" vol="100" pan="0"/>
        </pattern>
        <pattern muted="0" pos="5376" name="" type="1" steps="16">
          <note key="57" pos="0" len="24" vol="100" pan="0"/>
          <note key="57" pos="36" len="12" vol="100" pan="0"/>
          <note key="57" pos="48" len="24" vol="100" pan="0"/>
          <note key="57" pos="96" len="24" vol="100" pan="0"/>
          <note key="57" pos="144" len="24" vol="100" pan="0"/>
          <note key="57" pos="192" len="24" vol="100" pan="0"/>
          <note key="57" pos="228" len="12" vol="100" pan="0"/>
          <note key="57" pos="240" len="24" vol="100" pan="0"/>
          <note key="57" pos="288" len="24" vol="100" pan="0"/>
          <note key="57" pos="372" len="12" vol="100" pan="0"/>
          <note key="57" pos="384" len="24" vol="100" pan="0"/>
          <note key="57" pos="420" len="12" vol="100" pan="0"/>
          <note key="57" pos="432" len="24" vol="100" pan="0"/>
          <note key="57" pos="480" len="24" vol="100" pan="0"/>
          <note key="57" pos="528" len="24" vol="100" pan="0"/>
          <note key="57" pos="576" len="24" vol="100" pan="0"/>
          <note key="57" pos="612" len="12" vol="100" pan="0"/>
          <note key="57" pos="624" len="24" vol="100" pan="0"/>
          <note key="57" pos="660" len="12" vol="100" pan="0"/>
          <note key="57" pos="672" len="24" vol="100" pan="0"/>
          <note key="57" pos="756" len="12" vol="100" pan="0"/>
        </pattern>
      </track>
      <track solo="0" muted="0" name="bass.ogg" type="0">
        <instrumenttrack vol="29.6" fxch="0" usemasterpitch="1" pitch="0" basenote="57" pitchrange="1" pan="0">
          <instrument name="audiofileprocessor">
            <audiofileprocessor interp="1" sframe="0" lframe="0" amp="100" eframe="1" reversed="0" looped="0" src="noteblock/bass.ogg" stutter="0"/>
          </instrument>
          <eldata ftype="0" fcut="14000" fwet="0" fres="0.5">
            <elvol hold="0.5" dec="0.5" att="0" lspd_numerator="4" latt="0" pdel="0" lshp="0" lspd_denominator="4" amt="1" userwavefile="" sustain="0.5" x100="0" rel="0.524" ctlenvamt="0" lpdel="0" lamt="0" lspd="0.1" lspd_syncmode="0"/>
            <elcut hold="0.5" dec="0.5" att="0" lspd_numerator="4" latt="0" pdel="0" lshp="0" lspd_denominator="4" amt="0" userwavefile="" sustain="0.5" x100="0" rel="0.1" ctlenvamt="0" lpdel="0" lamt="0" lspd="0.1" lspd_syncmode="0"/>
            <elres hold="0.5" dec="0.5" att="0" lspd_numerator="4" latt="0" pdel="0" lshp="0" lspd_denominator="4" amt="0" userwavefile="" sustain="0.5" x100="0" rel="0.1" ctlenvamt="0" lpdel="0" lamt="0" lspd="0.1" lspd_syncmode="0"/>
          </eldata>
          <chordcreator chord-enabled="0" chord="0" chordrange="1"/>
          <arpeggiator arptime_syncmode="0" arptime_numerator="4" arptime_denominator="4" arpmode="0" arpskip="0" arpgate="100" arprange="1" arp-enabled="0" arp="0" arpcycle="0" arpmiss="0" arptime="200" arpdir="0"/>
          <midiport outputprogram="1" writable="0" fixedoutputvelocity="-1" outputchannel="1" readable="0" inputchannel="0" fixedoutputnote="-1" inputcontroller="0" outputcontroller="0" basevelocity="63" fixedinputvelocity="-1"/>
          <fxchain enabled="0" numofeffects="0"/>
        </instrumenttrack>
        <pattern muted="0" pos="3072" name="bass.ogg" type="1" steps="16">
          <note key="57" pos="0" len="24" vol="100" pan="0"/>
          <note key="52" pos="48" len="24" vol="100" pan="0"/>
          <note key="50" pos="96" len="24" vol="100" pan="0"/>
          <note key="48" pos="144" len="24" vol="100" pan="0"/>
          <note key="55" pos="192" len="24" vol="100" pan="0"/>
          <note key="48" pos="240" len="24" vol="100" pan="0"/>
          <note key="47" pos="288" len="24" vol="100" pan="0"/>
          <note key="52" pos="384" len="24" vol="100" pan="0"/>
          <note key="57" pos="432" len="24" vol="100" pan="0"/>
          <note key="47" pos="480" len="24" vol="100" pan="0"/>
          <note key="48" pos="528" len="24" vol="100" pan="0"/>
          <note key="50" pos="576" len="24" vol="100" pan="0"/>
          <note key="52" pos="624" len="24" vol="100" pan="0"/>
          <note key="55" pos="672" len="24" vol="100" pan="0"/>
        </pattern>
        <pattern muted="0" pos="3840" name="" type="1" steps="16">
          <note key="57" pos="0" len="24" vol="100" pan="0"/>
          <note key="52" pos="48" len="24" vol="100" pan="0"/>
          <note key="50" pos="96" len="24" vol="100" pan="0"/>
          <note key="48" pos="144" len="24" vol="100" pan="0"/>
          <note key="55" pos="192" len="24" vol="100" pan="0"/>
          <note key="48" pos="240" len="24" vol="100" pan="0"/>
          <note key="47" pos="288" len="24" vol="100" pan="0"/>
          <note key="52" pos="384" len="24" vol="100" pan="0"/>
          <note key="57" pos="432" len="24" vol="100" pan="0"/>
          <note key="47" pos="480" len="24" vol="100" pan="0"/>
          <note key="48" pos="528" len="24" vol="100" pan="0"/>
          <note key="50" pos="576" len="24" vol="100" pan="0"/>
          <note key="52" pos="624" len="24" vol="100" pan="0"/>
          <note key="55" pos="672" len="24" vol="100" pan="0"/>
        </pattern>
        <pattern muted="0" pos="4608" name="" type="1" steps="16">
          <note key="57" pos="0" len="24" vol="100" pan="0"/>
          <note key="52" pos="48" len="24" vol="100" pan="0"/>
          <note key="50" pos="96" len="24" vol="100" pan="0"/>
          <note key="48" pos="144" len="24" vol="100" pan="0"/>
          <note key="55" pos="192" len="24" vol="100" pan="0"/>
          <note key="48" pos="240" len="24" vol="100" pan="0"/>
          <note key="47" pos="288" len="24" vol="100" pan="0"/>
          <note key="52" pos="384" len="24" vol="100" pan="0"/>
          <note key="57" pos="432" len="24" vol="100" pan="0"/>
          <note key="47" pos="480" len="24" vol="100" pan="0"/>
          <note key="48" pos="528" len="24" vol="100" pan="0"/>
          <note key="50" pos="576" len="24" vol="100" pan="0"/>
          <note key="52" pos="624" len="24" vol="100" pan="0"/>
          <note key="55" pos="672" len="24" vol="100" pan="0"/>
        </pattern>
        <pattern muted="0" pos="5376" name="" type="1" steps="16">
          <note key="57" pos="0" len="24" vol="100" pan="0"/>
          <note key="52" pos="48" len="24" vol="100" pan="0"/>
          <note key="50" pos="96" len="24" vol="100" pan="0"/>
          <note key="48" pos="144" len="24" vol="100" pan="0"/>
          <note key="55" pos="192" len="24" vol="100" pan="0"/>
          <note key="48" pos="240" len="24" vol="100" pan="0"/>
          <note key="47" pos="288" len="24" vol="100" pan="0"/>
          <note key="52" pos="384" len="24" vol="100" pan="0"/>
          <note key="57" pos="432" len="24" vol="100" pan="0"/>
          <note key="47" pos="480" len="24" vol="100" pan="0"/>
          <note key="48" pos="528" len="24" vol="100" pan="0"/>
          <note key="50" pos="576" len="24" vol="100" pan="0"/>
          <note key="52" pos="624" len="24" vol="100" pan="0"/>
          <note key="55" pos="672" len="24" vol="100" pan="0"/>
        </pattern>
      </track>
      <track solo="0" muted="0" name="pling.ogg" type="0">
        <instrumenttrack vol="24" fxch="0" usemasterpitch="1" pitch="0" basenote="57" pitchrange="1" pan="0">
          <instrument name="audiofileprocessor">
            <audiofileprocessor interp="1" sframe="0" lframe="0" amp="100" eframe="1" reversed="0" looped="0" src="noteblock/pling.ogg" stutter="0"/>
          </instrument>
          <eldata ftype="0" fcut="14000" fwet="0" fres="0.5">
            <elvol hold="0.5" dec="0.5" att="0" lspd_numerator="4" latt="0" pdel="0" lshp="0" lspd_denominator="4" amt="1" userwavefile="" sustain="0.5" x100="0" rel="0.916" ctlenvamt="0" lpdel="0" lamt="0" lspd="0.1" lspd_syncmode="0"/>
            <elcut hold="0.5" dec="0.5" att="0" lspd_numerator="4" latt="0" pdel="0" lshp="0" lspd_denominator="4" amt="0" userwavefile="" sustain="0.5" x100="0" rel="0.1" ctlenvamt="0" lpdel="0" lamt="0" lspd="0.1" lspd_syncmode="0"/>
            <elres hold="0.5" dec="0.5" att="0" lspd_numerator="4" latt="0" pdel="0" lshp="0" lspd_denominator="4" amt="0" userwavefile="" sustain="0.5" x100="0" rel="0.1" ctlenvamt="0" lpdel="0" lamt="0" lspd="0.1" lspd_syncmode="0"/>
          </eldata>
          <chordcreator chord-enabled="0" chord="0" chordrange="1"/>
          <arpeggiator arptime_syncmode="0" arptime_numerator="4" arptime_denominator="4" arpmode="0" arpskip="0" arpgate="100" arprange="1" arp-enabled="0" arp="0" arpcycle="0" arpmiss="0" arptime="200" arpdir="0"/>
          <midiport outputprogram="1" writable="0" fixedoutputvelocity="-1" outputchannel="1" readable="0" inputchannel="0" fixedoutputnote="-1" inputcontroller="0" outputcontroller="0" basevelocity="63" fixedinputvelocity="-1"/>
          <fxchain enabled="0" numofeffects="0"/>
        </instrumenttrack>
        <pattern muted="0" pos="1536" name="pling.ogg" type="1" steps="16">
          <note key="67" pos="0" len="24" vol="100" pan="0"/>
          <note key="64" pos="0" len="24" vol="100" pan="0"/>
          <note key="57" pos="0" len="24" vol="100" pan="0"/>
          <note key="45" pos="0" len="24" vol="100" pan="0"/>
          <note key="64" pos="48" len="24" vol="100" pan="0"/>
          <note key="60" pos="96" len="24" vol="100" pan="0"/>
          <note key="64" pos="180" len="6" vol="100" pan="0"/>
          <note key="63" pos="186" len="6" vol="100" pan="0"/>
          <note key="62" pos="192" len="6" vol="100" pan="0"/>
          <note key="57" pos="240" len="24" vol="100" pan="0"/>
          <note key="48" pos="240" len="24" vol="100" pan="0"/>
          <note key="38" pos="240" len="24" vol="100" pan="0"/>
          <note key="57" pos="288" len="24" vol="100" pan="0"/>
          <note key="50" pos="288" len="24" vol="100" pan="0"/>
          <note key="40" pos="288" len="24" vol="100" pan="0"/>
        </pattern>
        <pattern muted="0" pos="1920" name="" type="1" steps="16">
          <note key="64" pos="0" len="24" vol="100" pan="0"/>
          <note key="52" pos="0" len="24" vol="100" pan="0"/>
          <note key="48" pos="0" len="24" vol="100" pan="0"/>
          <note key="38" pos="0" len="24" vol="100" pan="0"/>
          <note key="64" pos="48" len="24" vol="100" pan="0"/>
          <note key="60" pos="96" len="24" vol="100" pan="0"/>
          <note key="64" pos="180" len="6" vol="100" pan="0"/>
          <note key="63" pos="186" len="6" vol="100" pan="0"/>
          <note key="62" pos="192" len="6" vol="100" pan="0"/>
          <note key="57" pos="240" len="24" vol="100" pan="0"/>
          <note key="50" pos="240" len="24" vol="100" pan="0"/>
          <note key="38" pos="240" len="24" vol="100" pan="0"/>
          <note key="56" pos="288" len="24" vol="100" pan="0"/>
          <note key="50" pos="288" len="24" vol="100" pan="0"/>
          <note key="40" pos="288" len="24" vol="100" pan="0"/>
        </pattern>
        <pattern muted="0" pos="2304" name="" type="1" steps="16">
          <note key="67" pos="0" len="24" vol="100" pan="0"/>
          <note key="64" pos="0" len="24" vol="100" pan="0"/>
          <note key="57" pos="0" len="24" vol="100" pan="0"/>
          <note key="45" pos="0" len="24" vol="100" pan="0"/>
          <note key="64" pos="48" len="24" vol="100" pan="0"/>
          <note key="60" pos="96" len="24" vol="100" pan="0"/>
          <note key="64" pos="180" len="6" vol="100" pan="0"/>
          <note key="63" pos="186" len="6" vol="100" pan="0"/>
          <note key="62" pos="192" len="6" vol="100" pan="0"/>
          <note key="57" pos="240" len="24" vol="100" pan="0"/>
          <note key="48" pos="240" len="24" vol="100" pan="0"/>
          <note key="38" pos="240" len="24" vol="100" pan="0"/>
          <note key="57" pos="288" len="24" vol="100" pan="0"/>
          <note key="50" pos="288" len="24" vol="100" pan="0"/>
          <note key="40" pos="288" len="24" vol="100" pan="0"/>
        </pattern>
        <pattern muted="0" pos="2688" name="" type="1" steps="16">
          <note key="64" pos="0" len="24" vol="100" pan="0"/>
          <note key="52" pos="0" len="24" vol="100" pan="0"/>
          <note key="48" pos="0" len="24" vol="100" pan="0"/>
          <note key="38" pos="0" len="24" vol="100" pan="0"/>
          <note key="64" pos="48" len="24" vol="100" pan="0"/>
          <note key="60" pos="96" len="24" vol="100" pan="0"/>
          <note key="64" pos="180" len="6" vol="100" pan="0"/>
          <note key="63" pos="186" len="6" vol="100" pan="0"/>
          <note key="62" pos="192" len="6" vol="100" pan="0"/>
          <note key="57" pos="240" len="24" vol="100" pan="0"/>
          <note key="50" pos="240" len="24" vol="100" pan="0"/>
          <note key="38" pos="240" len="24" vol="100" pan="0"/>
          <note key="56" pos="288" len="24" vol="100" pan="0"/>
          <note key="50" pos="288" len="24" vol="100" pan="0"/>
          <note key="40" pos="288" len="24" vol="100" pan="0"/>
        </pattern>
        <pattern muted="0" pos="0" name="" type="1" steps="16">
          <note key="67" pos="0" len="24" vol="100" pan="0"/>
          <note key="64" pos="0" len="24" vol="100" pan="0"/>
          <note key="57" pos="0" len="24" vol="100" pan="0"/>
          <note key="45" pos="0" len="24" vol="100" pan="0"/>
          <note key="57" pos="240" len="24" vol="100" pan="0"/>
          <note key="48" pos="240" len="24" vol="100" pan="0"/>
          <note key="38" pos="240" len="24" vol="100" pan="0"/>
          <note key="57" pos="288" len="24" vol="100" pan="0"/>
          <note key="50" pos="288" len="24" vol="100" pan="0"/>
          <note key="40" pos="288" len="24" vol="100" pan="0"/>
        </pattern>
        <pattern muted="0" pos="384" name="" type="1" steps="16">
          <note key="64" pos="0" len="24" vol="100" pan="0"/>
          <note key="52" pos="0" len="24" vol="100" pan="0"/>
          <note key="48" pos="0" len="24" vol="100" pan="0"/>
          <note key="38" pos="0" len="24" vol="100" pan="0"/>
          <note key="57" pos="240" len="24" vol="100" pan="0"/>
          <note key="50" pos="240" len="24" vol="100" pan="0"/>
          <note key="38" pos="240" len="24" vol="100" pan="0"/>
          <note key="56" pos="288" len="24" vol="100" pan="0"/>
          <note key="50" pos="288" len="24" vol="100" pan="0"/>
          <note key="40" pos="288" len="24" vol="100" pan="0"/>
        </pattern>
        <pattern muted="0" pos="768" name="" type="1" steps="16">
          <note key="67" pos="0" len="24" vol="100" pan="0"/>
          <note key="64" pos="0" len="24" vol="100" pan="0"/>
          <note key="57" pos="0" len="24" vol="100" pan="0"/>
          <note key="45" pos="0" len="24" vol="100" pan="0"/>
          <note key="57" pos="240" len="24" vol="100" pan="0"/>
          <note key="48" pos="240" len="24" vol="100" pan="0"/>
          <note key="38" pos="240" len="24" vol="100" pan="0"/>
          <note key="57" pos="288" len="24" vol="100" pan="0"/>
          <note key="50" pos="288" len="24" vol="100" pan="0"/>
          <note key="40" pos="288" len="24" vol="100" pan="0"/>
        </pattern>
        <pattern muted="0" pos="1152" name="" type="1" steps="16">
          <note key="64" pos="0" len="24" vol="100" pan="0"/>
          <note key="52" pos="0" len="24" vol="100" pan="0"/>
          <note key="48" pos="0" len="24" vol="100" pan="0"/>
          <note key="38" pos="0" len="24" vol="100" pan="0"/>
          <note key="57" pos="240" len="24" vol="100" pan="0"/>
          <note key="50" pos="240" len="24" vol="100" pan="0"/>
          <note key="38" pos="240" len="24" vol="100" pan="0"/>
          <note key="56" pos="288" len="24" vol="100" pan="0"/>
          <note key="50" pos="288" len="24" vol="100" pan="0"/>
          <note key="40" pos="288" len="24" vol="100" pan="0"/>
        </pattern>
        <pattern muted="0" pos="6144" name="" type="1" steps="16">
          <note key="57" pos="0" len="24" vol="100" pan="0"/>
          <note key="59" pos="24" len="24" vol="100" pan="0"/>
          <note key="57" pos="24" len="24" vol="51" pan="0"/>
          <note key="60" pos="48" len="24" vol="100" pan="0"/>
          <note key="59" pos="48" len="24" vol="51" pan="0"/>
          <note key="57" pos="48" len="24" vol="19" pan="0"/>
          <note key="64" pos="72" len="24" vol="100" pan="0"/>
          <note key="60" pos="72" len="24" vol="51" pan="0"/>
          <note key="59" pos="72" len="24" vol="19" pan="0"/>
          <note key="64" pos="96" len="24" vol="51" pan="0"/>
          <note key="60" pos="96" len="24" vol="19" pan="0"/>
          <note key="60" pos="96" len="24" vol="100" pan="0"/>
          <note key="64" pos="120" len="24" vol="19" pan="0"/>
          <note key="62" pos="120" len="24" vol="100" pan="0"/>
          <note key="60" pos="120" len="24" vol="51" pan="0"/>
          <note key="62" pos="144" len="24" vol="51" pan="0"/>
          <note key="60" pos="144" len="24" vol="19" pan="0"/>
          <note key="57" pos="144" len="24" vol="100" pan="0"/>
          <note key="62" pos="168" len="24" vol="19" pan="0"/>
          <note key="59" pos="168" len="24" vol="100" pan="0"/>
          <note key="57" pos="168" len="24" vol="51" pan="0"/>
          <note key="62" pos="192" len="24" vol="100" pan="0"/>
          <note key="59" pos="192" len="24" vol="51" pan="0"/>
          <note key="57" pos="192" len="24" vol="19" pan="0"/>
          <note key="64" pos="216" len="24" vol="100" pan="0"/>
          <note key="62" pos="216" len="24" vol="51" pan="0"/>
          <note key="59" pos="216" len="24" vol="19" pan="0"/>
          <note key="64" pos="240" len="24" vol="51" pan="0"/>
          <note key="62" pos="240" len="24" vol="19" pan="0"/>
          <note key="57" pos="240" len="24" vol="100" pan="0"/>
          <note key="64" pos="264" len="24" vol="19" pan="0"/>
          <note key="57" pos="264" len="24" vol="51" pan="0"/>
          <note key="55" pos="264" len="24" vol="100" pan="0"/>
          <note key="62" pos="288" len="24" vol="100" pan="0"/>
          <note key="57" pos="288" len="24" vol="19" pan="0"/>
          <note key="55" pos="288" len="24" vol="51" pan="0"/>
          <note key="62" pos="312" len="24" vol="51" pan="0"/>
          <note key="60" pos="312" len="24" vol="100" pan="0"/>
          <note key="55" pos="312" len="24" vol="19" pan="0"/>
          <note key="62" pos="336" len="24" vol="19" pan="0"/>
          <note key="60" pos="336" len="24" vol="51" pan="0"/>
          <note key="56" pos="336" len="24" vol="100" pan="0"/>
          <note key="60" pos="360" len="24" vol="19" pan="0"/>
          <note key="59" pos="360" len="24" vol="100" pan="0"/>
          <note key="56" pos="360" len="24" vol="51" pan="0"/>
          <note key="59" pos="384" len="24" vol="51" pan="0"/>
          <note key="56" pos="384" len="24" vol="19" pan="0"/>
          <note key="59" pos="408" len="24" vol="19" pan="0"/>
        </pattern>
        <pattern muted="0" pos="6528" name="" type="1" steps="16">
          <note key="57" pos="0" len="24" vol="100" pan="0"/>
          <note key="59" pos="24" len="24" vol="100" pan="0"/>
          <note key="57" pos="24" len="24" vol="51" pan="0"/>
          <note key="60" pos="48" len="24" vol="100" pan="0"/>
          <note key="59" pos="48" len="24" vol="51" pan="0"/>
          <note key="57" pos="48" len="24" vol="19" pan="0"/>
          <note key="64" pos="72" len="24" vol="100" pan="0"/>
          <note key="60" pos="72" len="24" vol="51" pan="0"/>
          <note key="59" pos="72" len="24" vol="19" pan="0"/>
          <note key="64" pos="96" len="24" vol="51" pan="0"/>
          <note key="60" pos="96" len="24" vol="19" pan="0"/>
          <note key="60" pos="96" len="24" vol="100" pan="0"/>
          <note key="64" pos="120" len="24" vol="19" pan="0"/>
          <note key="62" pos="120" len="24" vol="100" pan="0"/>
          <note key="60" pos="120" len="24" vol="51" pan="0"/>
          <note key="62" pos="144" len="24" vol="51" pan="0"/>
          <note key="60" pos="144" len="24" vol="19" pan="0"/>
          <note key="57" pos="144" len="24" vol="100" pan="0"/>
          <note key="62" pos="168" len="24" vol="19" pan="0"/>
          <note key="59" pos="168" len="24" vol="100" pan="0"/>
          <note key="57" pos="168" len="24" vol="51" pan="0"/>
          <note key="62" pos="192" len="24" vol="100" pan="0"/>
          <note key="59" pos="192" len="24" vol="51" pan="0"/>
          <note key="57" pos="192" len="24" vol="19" pan="0"/>
          <note key="64" pos="216" len="24" vol="100" pan="0"/>
          <note key="62" pos="216" len="24" vol="51" pan="0"/>
          <note key="59" pos="216" len="24" vol="19" pan="0"/>
          <note key="64" pos="240" len="24" vol="51" pan="0"/>
          <note key="62" pos="240" len="24" vol="19" pan="0"/>
          <note key="57" pos="240" len="24" vol="100" pan="0"/>
          <note key="64" pos="264" len="24" vol="19" pan="0"/>
          <note key="57" pos="264" len="24" vol="51" pan="0"/>
          <note key="55" pos="264" len="24" vol="100" pan="0"/>
          <note key="62" pos="288" len="24" vol="100" pan="0"/>
          <note key="57" pos="288" len="24" vol="19" pan="0"/>
          <note key="55" pos="288" len="24" vol="51" pan="0"/>
          <note key="62" pos="312" len="24" vol="51" pan="0"/>
          <note key="60" pos="312" len="24" vol="100" pan="0"/>
          <note key="55" pos="312" len="24" vol="19" pan="0"/>
          <note key="62" pos="336" len="24" vol="19" pan="0"/>
          <note key="60" pos="336" len="24" vol="51" pan="0"/>
          <note key="56" pos="336" len="24" vol="100" pan="0"/>
          <note key="60" pos="360" len="24" vol="19" pan="0"/>
          <note key="59" pos="360" len="24" vol="100" pan="0"/>
          <note key="56" pos="360" len="24" vol="51" pan="0"/>
          <note key="59" pos="384" len="24" vol="51" pan="0"/>
          <note key="56" pos="384" len="24" vol="19" pan="0"/>
          <note key="59" pos="408" len="24" vol="19" pan="0"/>
        </pattern>
        <pattern muted="0" pos="6912" name="" type="1" steps="16">
          <note key="57" pos="0" len="24" vol="100" pan="0"/>
          <note key="59" pos="24" len="24" vol="100" pan="0"/>
          <note key="57" pos="24" len="24" vol="51" pan="0"/>
          <note key="60" pos="48" len="24" vol="100" pan="0"/>
          <note key="59" pos="48" len="24" vol="51" pan="0"/>
          <note key="57" pos="48" len="24" vol="19" pan="0"/>
          <note key="64" pos="72" len="24" vol="100" pan="0"/>
          <note key="60" pos="72" len="24" vol="51" pan="0"/>
          <note key="59" pos="72" len="24" vol="19" pan="0"/>
          <note key="64" pos="96" len="24" vol="51" pan="0"/>
          <note key="60" pos="96" len="24" vol="19" pan="0"/>
          <note key="60" pos="96" len="24" vol="100" pan="0"/>
          <note key="64" pos="120" len="24" vol="19" pan="0"/>
          <note key="62" pos="120" len="24" vol="100" pan="0"/>
          <note key="60" pos="120" len="24" vol="51" pan="0"/>
          <note key="62" pos="144" len="24" vol="51" pan="0"/>
          <note key="60" pos="144" len="24" vol="19" pan="0"/>
          <note key="57" pos="144" len="24" vol="100" pan="0"/>
          <note key="62" pos="168" len="24" vol="19" pan="0"/>
          <note key="59" pos="168" len="24" vol="100" pan="0"/>
          <note key="57" pos="168" len="24" vol="51" pan="0"/>
          <note key="62" pos="192" len="24" vol="100" pan="0"/>
          <note key="59" pos="192" len="24" vol="51" pan="0"/>
          <note key="57" pos="192" len="24" vol="19" pan="0"/>
          <note key="64" pos="216" len="24" vol="100" pan="0"/>
          <note key="62" pos="216" len="24" vol="51" pan="0"/>
          <note key="59" pos="216" len="24" vol="19" pan="0"/>
          <note key="64" pos="240" len="24" vol="51" pan="0"/>
          <note key="62" pos="240" len="24" vol="19" pan="0"/>
          <note key="57" pos="240" len="24" vol="100" pan="0"/>
          <note key="64" pos="264" len="24" vol="19" pan="0"/>
          <note key="57" pos="264" len="24" vol="51" pan="0"/>
          <note key="55" pos="264" len="24" vol="100" pan="0"/>
          <note key="62" pos="288" len="24" vol="100" pan="0"/>
          <note key="57" pos="288" len="24" vol="19" pan="0"/>
          <note key="55" pos="288" len="24" vol="51" pan="0"/>
          <note key="62" pos="312" len="24" vol="51" pan="0"/>
          <note key="60" pos="312" len="24" vol="100" pan="0"/>
          <note key="55" pos="312" len="24" vol="19" pan="0"/>
          <note key="62" pos="336" len="24" vol="19" pan="0"/>
          <note key="60" pos="336" len="24" vol="51" pan="0"/>
          <note key="56" pos="336" len="24" vol="100" pan="0"/>
          <note key="60" pos="360" len="24" vol="19" pan="0"/>
          <note key="59" pos="360" len="24" vol="100" pan="0"/>
          <note key="56" pos="360" len="24" vol="51" pan="0"/>
          <note key="59" pos="384" len="24" vol="51" pan="0"/>
          <note key="56" pos="384" len="24" vol="19" pan="0"/>
          <note key="59" pos="408" len="24" vol="19" pan="0"/>
        </pattern>
        <pattern muted="0" pos="7296" name="" type="1" steps="16">
          <note key="57" pos="0" len="24" vol="100" pan="0"/>
          <note key="59" pos="24" len="24" vol="100" pan="0"/>
          <note key="57" pos="24" len="24" vol="51" pan="0"/>
          <note key="60" pos="48" len="24" vol="100" pan="0"/>
          <note key="59" pos="48" len="24" vol="51" pan="0"/>
          <note key="57" pos="48" len="24" vol="19" pan="0"/>
          <note key="64" pos="72" len="24" vol="100" pan="0"/>
          <note key="60" pos="72" len="24" vol="51" pan="0"/>
          <note key="59" pos="72" len="24" vol="19" pan="0"/>
          <note key="64" pos="96" len="24" vol="51" pan="0"/>
          <note key="60" pos="96" len="24" vol="19" pan="0"/>
          <note key="60" pos="96" len="24" vol="100" pan="0"/>
          <note key="64" pos="120" len="24" vol="19" pan="0"/>
          <note key="62" pos="120" len="24" vol="100" pan="0"/>
          <note key="60" pos="120" len="24" vol="51" pan="0"/>
          <note key="62" pos="144" len="24" vol="51" pan="0"/>
          <note key="60" pos="144" len="24" vol="19" pan="0"/>
          <note key="57" pos="144" len="24" vol="100" pan="0"/>
          <note key="62" pos="168" len="24" vol="19" pan="0"/>
          <note key="59" pos="168" len="24" vol="100" pan="0"/>
          <note key="57" pos="168" len="24" vol="51" pan="0"/>
          <note key="62" pos="192" len="24" vol="100" pan="0"/>
          <note key="59" pos="192" len="24" vol="51" pan="0"/>
          <note key="57" pos="192" len="24" vol="19" pan="0"/>
          <note key="64" pos="216" len="24" vol="100" pan="0"/>
          <note key="62" pos="216" len="24" vol="51" pan="0"/>
          <note key="59" pos="216" len="24" vol="19" pan="0"/>
          <note key="64" pos="240" len="24" vol="51" pan="0"/>
          <note key="62" pos="240" len="24" vol="19" pan="0"/>
          <note key="57" pos="240" len="24" vol="100" pan="0"/>
          <note key="64" pos="264" len="24" vol="19" pan="0"/>
          <note key="57" pos="264" len="24" vol="51" pan="0"/>
          <note key="55" pos="264" len="24" vol="100" pan="0"/>
          <note key="62" pos="288" len="24" vol="100" pan="0"/>
          <note key="57" pos="288" len="24" vol="19" pan="0"/>
          <note key="55" pos="288" len="24" vol="51" pan="0"/>
          <note key="62" pos="312" len="24" vol="51" pan="0"/>
          <note key="60" pos="312" len="24" vol="100" pan="0"/>
          <note key="55" pos="312" len="24" vol="19" pan="0"/>
          <note key="62" pos="336" len="24" vol="19" pan="0"/>
          <note key="60" pos="336" len="24" vol="51" pan="0"/>
          <note key="56" pos="336" len="24" vol="100" pan="0"/>
          <note key="60" pos="360" len="24" vol="19" pan="0"/>
          <note key="59" pos="360" len="24" vol="100" pan="0"/>
          <note key="56" pos="360" len="24" vol="51" pan="0"/>
        </pattern>
      </track>
      <track solo="0" muted="0" name="snare.ogg" type="0">
        <instrumenttrack vol="8" fxch="0" usemasterpitch="1" pitch="0" basenote="57" pitchrange="1" pan="0">
          <instrument name="audiofileprocessor">
            <audiofileprocessor interp="1" sframe="0" lframe="0" amp="100" eframe="1" reversed="0" looped="0" src="noteblock/snare.ogg" stutter="0"/>
          </instrument>
          <eldata ftype="0" fcut="14000" fwet="0" fres="0.5">
            <elvol hold="0.5" dec="0.5" att="0" lspd_numerator="4" latt="0" pdel="0" lshp="0" lspd_denominator="4" amt="1" userwavefile="" sustain="0.5" x100="0" rel="0.74" ctlenvamt="0" lpdel="0" lamt="0" lspd="0.1" lspd_syncmode="0"/>
            <elcut hold="0.5" dec="0.5" att="0" lspd_numerator="4" latt="0" pdel="0" lshp="0" lspd_denominator="4" amt="0" userwavefile="" sustain="0.5" x100="0" rel="0.1" ctlenvamt="0" lpdel="0" lamt="0" lspd="0.1" lspd_syncmode="0"/>
            <elres hold="0.5" dec="0.5" att="0" lspd_numerator="4" latt="0" pdel="0" lshp="0" lspd_denominator="4" amt="0" userwavefile="" sustain="0.5" x100="0" rel="0.1" ctlenvamt="0" lpdel="0" lamt="0" lspd="0.1" lspd_syncmode="0"/>
          </eldata>
          <chordcreator chord-enabled="0" chord="0" chordrange="1"/>
          <arpeggiator arptime_syncmode="0" arptime_numerator="4" arptime_denominator="4" arpmode="0" arpskip="0" arpgate="100" arprange="1" arp-enabled="0" arp="0" arpcycle="0" arpmiss="0" arptime="200" arpdir="0"/>
          <midiport outputprogram="1" writable="0" fixedoutputvelocity="-1" outputchannel="1" readable="0" inputchannel="0" fixedoutputnote="-1" inputcontroller="0" outputcontroller="0" basevelocity="63" fixedinputvelocity="-1"/>
          <fxchain enabled="0" numofeffects="0"/>
        </instrumenttrack>
        <pattern muted="0" pos="1536" name="snare.ogg" type="1" steps="16">
          <note key="70" pos="0" len="12" vol="100" pan="0"/>
          <note key="70" pos="12" len="12" vol="40" pan="0"/>
          <note key="70" pos="24" len="12" vol="59" pan="0"/>
          <note key="70" pos="36" len="12" vol="48" pan="0"/>
          <note key="70" pos="48" len="12" vol="100" pan="0"/>
          <note key="70" pos="60" len="12" vol="48" pan="0"/>
          <note key="70" pos="72" len="12" vol="72" pan="0"/>
          <note key="70" pos="84" len="12" vol="48" pan="0"/>
          <note key="70" pos="96" len="12" vol="100" pan="0"/>
          <note key="70" pos="108" len="12" vol="40" pan="0"/>
          <note key="70" pos="120" len="12" vol="59" pan="0"/>
          <note key="70" pos="132" len="12" vol="48" pan="0"/>
          <note key="70" pos="144" len="12" vol="100" pan="0"/>
          <note key="70" pos="156" len="12" vol="48" pan="0"/>
          <note key="70" pos="168" len="12" vol="72" pan="0"/>
          <note key="70" pos="180" len="12" vol="48" pan="0"/>
          <note key="70" pos="192" len="12" vol="100" pan="0"/>
          <note key="70" pos="204" len="12" vol="40" pan="0"/>
          <note key="70" pos="216" len="12" vol="59" pan="0"/>
          <note key="70" pos="228" len="12" vol="48" pan="0"/>
          <note key="70" pos="240" len="12" vol="100" pan="0"/>
          <note key="70" pos="252" len="12" vol="48" pan="0"/>
          <note key="70" pos="264" len="12" vol="72" pan="0"/>
          <note key="70" pos="276" len="12" vol="48" pan="0"/>
          <note key="70" pos="288" len="12" vol="100" pan="0"/>
          <note key="70" pos="300" len="12" vol="40" pan="0"/>
          <note key="70" pos="312" len="12" vol="59" pan="0"/>
          <note key="70" pos="324" len="12" vol="48" pan="0"/>
          <note key="70" pos="336" len="12" vol="100" pan="0"/>
          <note key="70" pos="348" len="12" vol="48" pan="0"/>
          <note key="70" pos="360" len="12" vol="72" pan="0"/>
          <note key="70" pos="372" len="12" vol="48" pan="0"/>
        </pattern>
        <pattern muted="0" pos="1920" name="" type="1" steps="16">
          <note key="70" pos="0" len="12" vol="100" pan="0"/>
          <note key="70" pos="12" len="12" vol="40" pan="0"/>
          <note key="70" pos="24" len="12" vol="59" pan="0"/>
          <note key="70" pos="36" len="12" vol="48" pan="0"/>
          <note key="70" pos="48" len="12" vol="100" pan="0"/>
          <note key="70" pos="60" len="12" vol="48" pan="0"/>
          <note key="70" pos="72" len="12" vol="72" pan="0"/>
          <note key="70" pos="84" len="12" vol="48" pan="0"/>
          <note key="70" pos="96" len="12" vol="100" pan="0"/>
          <note key="70" pos="108" len="12" vol="40" pan="0"/>
          <note key="70" pos="120" len="12" vol="59" pan="0"/>
          <note key="70" pos="132" len="12" vol="48" pan="0"/>
          <note key="70" pos="144" len="12" vol="100" pan="0"/>
          <note key="70" pos="156" len="12" vol="48" pan="0"/>
          <note key="70" pos="168" len="12" vol="72" pan="0"/>
          <note key="70" pos="180" len="12" vol="48" pan="0"/>
          <note key="70" pos="192" len="12" vol="100" pan="0"/>
          <note key="70" pos="204" len="12" vol="40" pan="0"/>
          <note key="70" pos="216" len="12" vol="59" pan="0"/>
          <note key="70" pos="228" len="12" vol="48" pan="0"/>
          <note key="70" pos="240" len="12" vol="100" pan="0"/>
          <note key="70" pos="252" len="12" vol="48" pan="0"/>
          <note key="70" pos="264" len="12" vol="72" pan="0"/>
          <note key="70" pos="276" len="12" vol="48" pan="0"/>
          <note key="70" pos="288" len="12" vol="100" pan="0"/>
          <note key="70" pos="300" len="12" vol="40" pan="0"/>
          <note key="70" pos="312" len="12" vol="59" pan="0"/>
          <note key="70" pos="324" len="12" vol="48" pan="0"/>
          <note key="70" pos="336" len="12" vol="100" pan="0"/>
          <note key="70" pos="348" len="12" vol="48" pan="0"/>
          <note key="70" pos="360" len="12" vol="72" pan="0"/>
          <note key="70" pos="372" len="12" vol="48" pan="0"/>
        </pattern>
        <pattern muted="0" pos="2304" name="" type="1" steps="16">
          <note key="70" pos="0" len="12" vol="100" pan="0"/>
          <note key="70" pos="12" len="12" vol="40" pan="0"/>
          <note key="70" pos="24" len="12" vol="59" pan="0"/>
          <note key="70" pos="36" len="12" vol="48" pan="0"/>
          <note key="70" pos="48" len="12" vol="100" pan="0"/>
          <note key="70" pos="60" len="12" vol="48" pan="0"/>
          <note key="70" pos="72" len="12" vol="72" pan="0"/>
          <note key="70" pos="84" len="12" vol="48" pan="0"/>
          <note key="70" pos="96" len="12" vol="100" pan="0"/>
          <note key="70" pos="108" len="12" vol="40" pan="0"/>
          <note key="70" pos="120" len="12" vol="59" pan="0"/>
          <note key="70" pos="132" len="12" vol="48" pan="0"/>
          <note key="70" pos="144" len="12" vol="100" pan="0"/>
          <note key="70" pos="156" len="12" vol="48" pan="0"/>
          <note key="70" pos="168" len="12" vol="72" pan="0"/>
          <note key="70" pos="180" len="12" vol="48" pan="0"/>
          <note key="70" pos="192" len="12" vol="100" pan="0"/>
          <note key="70" pos="204" len="12" vol="40" pan="0"/>
          <note key="70" pos="216" len="12" vol="59" pan="0"/>
          <note key="70" pos="228" len="12" vol="48" pan="0"/>
          <note key="70" pos="240" len="12" vol="100" pan="0"/>
          <note key="70" pos="252" len="12" vol="48" pan="0"/>
          <note key="70" pos="264" len="12" vol="72" pan="0"/>
          <note key="70" pos="276" len="12" vol="48" pan="0"/>
          <note key="70" pos="288" len="12" vol="100" pan="0"/>
          <note key="70" pos="300" len="12" vol="40" pan="0"/>
          <note key="70" pos="312" len="12" vol="59" pan="0"/>
          <note key="70" pos="324" len="12" vol="48" pan="0"/>
          <note key="70" pos="336" len="12" vol="100" pan="0"/>
          <note key="70" pos="348" len="12" vol="48" pan="0"/>
          <note key="70" pos="360" len="12" vol="72" pan="0"/>
          <note key="70" pos="372" len="12" vol="48" pan="0"/>
        </pattern>
        <pattern muted="0" pos="2688" name="" type="1" steps="16">
          <note key="70" pos="0" len="12" vol="100" pan="0"/>
          <note key="70" pos="12" len="12" vol="40" pan="0"/>
          <note key="70" pos="24" len="12" vol="59" pan="0"/>
          <note key="70" pos="36" len="12" vol="48" pan="0"/>
          <note key="70" pos="48" len="12" vol="100" pan="0"/>
          <note key="70" pos="60" len="12" vol="48" pan="0"/>
          <note key="70" pos="72" len="12" vol="72" pan="0"/>
          <note key="70" pos="84" len="12" vol="48" pan="0"/>
          <note key="70" pos="96" len="12" vol="100" pan="0"/>
          <note key="70" pos="108" len="12" vol="40" pan="0"/>
          <note key="70" pos="120" len="12" vol="59" pan="0"/>
          <note key="70" pos="132" len="12" vol="48" pan="0"/>
          <note key="70" pos="144" len="12" vol="100" pan="0"/>
          <note key="70" pos="156" len="12" vol="48" pan="0"/>
          <note key="70" pos="168" len="12" vol="72" pan="0"/>
          <note key="70" pos="180" len="12" vol="48" pan="0"/>
          <note key="70" pos="192" len="12" vol="100" pan="0"/>
          <note key="70" pos="204" len="12" vol="40" pan="0"/>
          <note key="70" pos="216" len="12" vol="59" pan="0"/>
          <note key="70" pos="228" len="12" vol="48" pan="0"/>
          <note key="70" pos="240" len="12" vol="100" pan="0"/>
          <note key="70" pos="252" len="12" vol="48" pan="0"/>
          <note key="70" pos="264" len="12" vol="72" pan="0"/>
          <note key="70" pos="276" len="12" vol="48" pan="0"/>
          <note key="70" pos="288" len="12" vol="100" pan="0"/>
          <note key="70" pos="300" len="12" vol="40" pan="0"/>
          <note key="70" pos="312" len="12" vol="59" pan="0"/>
          <note key="70" pos="324" len="12" vol="48" pan="0"/>
          <note key="70" pos="336" len="12" vol="100" pan="0"/>
          <note key="70" pos="348" len="12" vol="48" pan="0"/>
          <note key="70" pos="360" len="12" vol="72" pan="0"/>
          <note key="70" pos="372" len="12" vol="48" pan="0"/>
        </pattern>
        <pattern muted="0" pos="6144" name="" type="1" steps="16">
          <note key="70" pos="0" len="12" vol="100" pan="0"/>
          <note key="70" pos="12" len="12" vol="40" pan="0"/>
          <note key="70" pos="24" len="12" vol="59" pan="0"/>
          <note key="70" pos="36" len="12" vol="48" pan="0"/>
          <note key="70" pos="48" len="12" vol="100" pan="0"/>
          <note key="70" pos="60" len="12" vol="48" pan="0"/>
          <note key="70" pos="72" len="12" vol="72" pan="0"/>
          <note key="70" pos="84" len="12" vol="48" pan="0"/>
          <note key="70" pos="96" len="12" vol="100" pan="0"/>
          <note key="70" pos="108" len="12" vol="40" pan="0"/>
          <note key="70" pos="120" len="12" vol="59" pan="0"/>
          <note key="70" pos="132" len="12" vol="48" pan="0"/>
          <note key="70" pos="144" len="12" vol="100" pan="0"/>
          <note key="70" pos="156" len="12" vol="48" pan="0"/>
          <note key="70" pos="168" len="12" vol="72" pan="0"/>
          <note key="70" pos="180" len="12" vol="48" pan="0"/>
          <note key="70" pos="192" len="12" vol="100" pan="0"/>
          <note key="70" pos="204" len="12" vol="40" pan="0"/>
          <note key="70" pos="216" len="12" vol="59" pan="0"/>
          <note key="70" pos="228" len="12" vol="48" pan="0"/>
          <note key="70" pos="240" len="12" vol="100" pan="0"/>
          <note key="70" pos="252" len="12" vol="48" pan="0"/>
          <note key="70" pos="264" len="12" vol="72" pan="0"/>
          <note key="70" pos="276" len="12" vol="48" pan="0"/>
          <note key="70" pos="288" len="12" vol="100" pan="0"/>
          <note key="70" pos="300" len="12" vol="40" pan="0"/>
          <note key="70" pos="312" len="12" vol="59" pan="0"/>
          <note key="70" pos="324" len="12" vol="48" pan="0"/>
          <note key="70" pos="336" len="12" vol="100" pan="0"/>
          <note key="70" pos="348" len="12" vol="48" pan="0"/>
          <note key="70" pos="360" len="12" vol="72" pan="0"/>
          <note key="70" pos="372" len="12" vol="48" pan="0"/>
        </pattern>
        <pattern muted="0" pos="6528" name="" type="1" steps="16">
          <note key="70" pos="0" len="12" vol="100" pan="0"/>
          <note key="70" pos="12" len="12" vol="40" pan="0"/>
          <note key="70" pos="24" len="12" vol="59" pan="0"/>
          <note key="70" pos="36" len="12" vol="48" pan="0"/>
          <note key="70" pos="48" len="12" vol="100" pan="0"/>
          <note key="70" pos="60" len="12" vol="48" pan="0"/>
          <note key="70" pos="72" len="12" vol="72" pan="0"/>
          <note key="70" pos="84" len="12" vol="48" pan="0"/>
          <note key="70" pos="96" len="12" vol="100" pan="0"/>
          <note key="70" pos="108" len="12" vol="40" pan="0"/>
          <note key="70" pos="120" len="12" vol="59" pan="0"/>
          <note key="70" pos="132" len="12" vol="48" pan="0"/>
          <note key="70" pos="144" len="12" vol="100" pan="0"/>
          <note key="70" pos="156" len="12" vol="48" pan="0"/>
          <note key="70" pos="168" len="12" vol="72" pan="0"/>
          <note key="70" pos="180" len="12" vol="48" pan="0"/>
          <note key="70" pos="192" len="12" vol="100" pan="0"/>
          <note key="70" pos="204" len="12" vol="40" pan="0"/>
          <note key="70" pos="216" len="12" vol="59" pan="0"/>
          <note key="70" pos="228" len="12" vol="48" pan="0"/>
          <note key="70" pos="240" len="12" vol="100" pan="0"/>
          <note key="70" pos="252" len="12" vol="48" pan="0"/>
          <note key="70" pos="264" len="12" vol="72" pan="0"/>
          <note key="70" pos="276" len="12" vol="48" pan="0"/>
          <note key="70" pos="288" len="12" vol="100" pan="0"/>
          <note key="70" pos="300" len="12" vol="40" pan="0"/>
          <note key="70" pos="312" len="12" vol="59" pan="0"/>
          <note key="70" pos="324" len="12" vol="48" pan="0"/>
          <note key="70" pos="336" len="12" vol="100" pan="0"/>
          <note key="70" pos="348" len="12" vol="48" pan="0"/>
          <note key="70" pos="360" len="12" vol="72" pan="0"/>
          <note key="70" pos="372" len="12" vol="48" pan="0"/>
        </pattern>
        <pattern muted="0" pos="6912" name="" type="1" steps="16">
          <note key="70" pos="0" len="12" vol="100" pan="0"/>
          <note key="70" pos="12" len="12" vol="40" pan="0"/>
          <note key="70" pos="24" len="12" vol="59" pan="0"/>
          <note key="70" pos="36" len="12" vol="48" pan="0"/>
          <note key="70" pos="48" len="12" vol="100" pan="0"/>
          <note key="70" pos="60" len="12" vol="48" pan="0"/>
          <note key="70" pos="72" len="12" vol="72" pan="0"/>
          <note key="70" pos="84" len="12" vol="48" pan="0"/>
          <note key="70" pos="96" len="12" vol="100" pan="0"/>
          <note key="70" pos="108" len="12" vol="40" pan="0"/>
          <note key="70" pos="120" len="12" vol="59" pan="0"/>
          <note key="70" pos="132" len="12" vol="48" pan="0"/>
          <note key="70" pos="144" len="12" vol="100" pan="0"/>
          <note key="70" pos="156" len="12" vol="48" pan="0"/>
          <note key="70" pos="168" len="12" vol="72" pan="0"/>
          <note key="70" pos="180" len="12" vol="48" pan="0"/>
          <note key="70" pos="192" len="12" vol="100" pan="0"/>
          <note key="70" pos="204" len="12" vol="40" pan="0"/>
          <note key="70" pos="216" len="12" vol="59" pan="0"/>
          <note key="70" pos="228" len="12" vol="48" pan="0"/>
          <note key="70" pos="240" len="12" vol="100" pan="0"/>
          <note key="70" pos="252" len="12" vol="48" pan="0"/>
          <note key="70" pos="264" len="12" vol="72" pan="0"/>
          <note key="70" pos="276" len="12" vol="48" pan="0"/>
          <note key="70" pos="288" len="12" vol="100" pan="0"/>
          <note key="70" pos="300" len="12" vol="40" pan="0"/>
          <note key="70" pos="312" len="12" vol="59" pan="0"/>
          <note key="70" pos="324" len="12" vol="48" pan="0"/>
          <note key="70" pos="336" len="12" vol="100" pan="0"/>
          <note key="70" pos="348" len="12" vol="48" pan="0"/>
          <note key="70" pos="360" len="12" vol="72" pan="0"/>
          <note key="70" pos="372" len="12" vol="48" pan="0"/>
        </pattern>
        <pattern muted="0" pos="7296" name="" type="1" steps="16">
          <note key="70" pos="0" len="12" vol="100" pan="0"/>
          <note key="70" pos="12" len="12" vol="40" pan="0"/>
          <note key="70" pos="24" len="12" vol="59" pan="0"/>
          <note key="70" pos="36" len="12" vol="48" pan="0"/>
          <note key="70" pos="48" len="12" vol="100" pan="0"/>
          <note key="70" pos="60" len="12" vol="48" pan="0"/>
          <note key="70" pos="72" len="12" vol="72" pan="0"/>
          <note key="70" pos="84" len="12" vol="48" pan="0"/>
          <note key="70" pos="96" len="12" vol="100" pan="0"/>
          <note key="70" pos="108" len="12" vol="40" pan="0"/>
          <note key="70" pos="120" len="12" vol="59" pan="0"/>
          <note key="70" pos="132" len="12" vol="48" pan="0"/>
          <note key="70" pos="144" len="12" vol="100" pan="0"/>
          <note key="70" pos="156" len="12" vol="48" pan="0"/>
          <note key="70" pos="168" len="12" vol="72" pan="0"/>
          <note key="70" pos="180" len="12" vol="48" pan="0"/>
          <note key="70" pos="192" len="12" vol="100" pan="0"/>
          <note key="70" pos="204" len="12" vol="40" pan="0"/>
          <note key="70" pos="216" len="12" vol="59" pan="0"/>
          <note key="70" pos="228" len="12" vol="48" pan="0"/>
          <note key="70" pos="240" len="12" vol="100" pan="0"/>
          <note key="70" pos="252" len="12" vol="48" pan="0"/>
          <note key="70" pos="264" len="12" vol="72" pan="0"/>
          <note key="70" pos="276" len="12" vol="48" pan="0"/>
          <note key="70" pos="288" len="12" vol="100" pan="0"/>
          <note key="70" pos="300" len="12" vol="40" pan="0"/>
          <note key="70" pos="312" len="12" vol="59" pan="0"/>
          <note key="70" pos="324" len="12" vol="48" pan="0"/>
          <note key="70" pos="336" len="12" vol="100" pan="0"/>
          <note key="70" pos="348" len="12" vol="48" pan="0"/>
          <note key="70" pos="360" len="12" vol="72" pan="0"/>
          <note key="70" pos="372" len="12" vol="48" pan="0"/>
        </pattern>
      </track>
      <track solo="0" muted="0" name="guitar.ogg" type="0">
        <instrumenttrack vol="30.4" fxch="0" usemasterpitch="1" pitch="0" basenote="57" pitchrange="1" pan="0">
          <instrument name="audiofileprocessor">
            <audiofileprocessor interp="1" sframe="0" lframe="0" amp="100" eframe="1" reversed="0" looped="0" src="noteblock/guitar.ogg" stutter="0"/>
          </instrument>
          <eldata ftype="0" fcut="14000" fwet="0" fres="0.5">
            <elvol hold="0.5" dec="0.5" att="0" lspd_numerator="4" latt="0" pdel="0" lshp="0" lspd_denominator="4" amt="1" userwavefile="" sustain="0.5" x100="0" rel="1.436" ctlenvamt="0" lpdel="0" lamt="0" lspd="0.1" lspd_syncmode="0"/>
            <elcut hold="0.5" dec="0.5" att="0" lspd_numerator="4" latt="0" pdel="0" lshp="0" lspd_denominator="4" amt="0" userwavefile="" sustain="0.5" x100="0" rel="0.1" ctlenvamt="0" lpdel="0" lamt="0" lspd="0.1" lspd_syncmode="0"/>
            <elres hold="0.5" dec="0.5" att="0" lspd_numerator="4" latt="0" pdel="0" lshp="0" lspd_denominator="4" amt="0" userwavefile="" sustain="0.5" x100="0" rel="0.1" ctlenvamt="0" lpdel="0" lamt="0" lspd="0.1" lspd_syncmode="0"/>
          </eldata>
          <chordcreator chord-enabled="0" chord="0" chordrange="1"/>
          <arpeggiator arptime_syncmode="0" arptime_numerator="4" arptime_denominator="4" arpmode="0" arpskip="0" arpgate="100" arprange="1" arp-enabled="0" arp="0" arpcycle="0" arpmiss="0" arptime="200" arpdir="0"/>
          <midiport outputprogram="1" writable="0" fixedoutputvelocity="-1" outputchannel="1" readable="0" inputchannel="0" fixedoutputnote="-1" inputcontroller="0" outputcontroller="0" basevelocity="63" fixedinputvelocity="-1"/>
          <fxchain enabled="0" numofeffects="0"/>
        </instrumenttrack>
        <pattern muted="0" pos="1536" name="guitar.ogg" type="1" steps="16">
          <note key="57" pos="0" len="24" vol="100" pan="0"/>
          <note key="57" pos="24" len="24" vol="61" pan="0"/>
          <note key="57" pos="48" len="24" vol="21" pan="0"/>
          <note key="52" pos="72" len="24" vol="100" pan="0"/>
          <note key="52" pos="96" len="24" vol="61" pan="0"/>
          <note key="52" pos="120" len="24" vol="21" pan="0"/>
          <note key="45" pos="144" len="24" vol="100" pan="0"/>
          <note key="45" pos="168" len="24" vol="61" pan="0"/>
          <note key="45" pos="192" len="24" vol="21" pan="0"/>
        </pattern>
        <pattern muted="0" pos="1920" name="" type="1" steps="16">
          <note key="50" pos="0" len="24" vol="100" pan="0"/>
          <note key="50" pos="24" len="24" vol="61" pan="0"/>
          <note key="50" pos="48" len="24" vol="21" pan="0"/>
          <note key="52" pos="72" len="24" vol="100" pan="0"/>
          <note key="52" pos="96" len="24" vol="61" pan="0"/>
          <note key="52" pos="120" len="24" vol="21" pan="0"/>
          <note key="47" pos="144" len="24" vol="100" pan="0"/>
          <note key="47" pos="168" len="24" vol="61" pan="0"/>
          <note key="47" pos="192" len="24" vol="21" pan="0"/>
        </pattern>
        <pattern muted="0" pos="2304" name="" type="1" steps="16">
          <note key="48" pos="0" len="24" vol="100" pan="0"/>
          <note key="48" pos="24" len="24" vol="61" pan="0"/>
          <note key="48" pos="48" len="24" vol="21" pan="0"/>
          <note key="52" pos="72" len="24" vol="100" pan="0"/>
          <note key="52" pos="96" len="24" vol="61" pan="0"/>
          <note key="52" pos="120" len="24" vol="21" pan="0"/>
          <note key="55" pos="144" len="24" vol="100" pan="0"/>
          <note key="55" pos="168" len="24" vol="61" pan="0"/>
          <note key="55" pos="192" len="24" vol="21" pan="0"/>
        </pattern>
        <pattern muted="0" pos="2688" name="" type="1" steps="16">
          <note key="45" pos="0" len="24" vol="100" pan="0"/>
          <note key="45" pos="24" len="24" vol="61" pan="0"/>
          <note key="45" pos="48" len="24" vol="21" pan="0"/>
          <note key="52" pos="72" len="24" vol="100" pan="0"/>
          <note key="52" pos="96" len="24" vol="61" pan="0"/>
          <note key="52" pos="120" len="24" vol="21" pan="0"/>
          <note key="50" pos="144" len="24" vol="100" pan="0"/>
          <note key="50" pos="168" len="24" vol="61" pan="0"/>
          <note key="50" pos="192" len="24" vol="21" pan="0"/>
        </pattern>
        <pattern muted="0" pos="0" name="" type="1" steps="16">
          <note key="57" pos="0" len="24" vol="100" pan="0"/>
          <note key="57" pos="24" len="24" vol="61" pan="0"/>
          <note key="57" pos="48" len="24" vol="21" pan="0"/>
          <note key="52" pos="72" len="24" vol="100" pan="0"/>
          <note key="52" pos="96" len="24" vol="61" pan="0"/>
          <note key="52" pos="120" len="24" vol="21" pan="0"/>
          <note key="45" pos="144" len="24" vol="100" pan="0"/>
          <note key="45" pos="168" len="24" vol="61" pan="0"/>
          <note key="45" pos="192" len="24" vol="21" pan="0"/>
        </pattern>
        <pattern muted="0" pos="384" name="" type="1" steps="16">
          <note key="50" pos="0" len="24" vol="100" pan="0"/>
          <note key="50" pos="24" len="24" vol="61" pan="0"/>
          <note key="50" pos="48" len="24" vol="21" pan="0"/>
          <note key="52" pos="72" len="24" vol="100" pan="0"/>
          <note key="52" pos="96" len="24" vol="61" pan="0"/>
          <note key="52" pos="120" len="24" vol="21" pan="0"/>
          <note key="47" pos="144" len="24" vol="100" pan="0"/>
          <note key="47" pos="168" len="24" vol="61" pan="0"/>
          <note key="47" pos="192" len="24" vol="21" pan="0"/>
        </pattern>
        <pattern muted="0" pos="768" name="" type="1" steps="16">
          <note key="48" pos="0" len="24" vol="100" pan="0"/>
          <note key="48" pos="24" len="24" vol="61" pan="0"/>
          <note key="48" pos="48" len="24" vol="21" pan="0"/>
          <note key="52" pos="72" len="24" vol="100" pan="0"/>
          <note key="52" pos="96" len="24" vol="61" pan="0"/>
          <note key="52" pos="120" len="24" vol="21" pan="0"/>
          <note key="55" pos="144" len="24" vol="100" pan="0"/>
          <note key="55" pos="168" len="24" vol="61" pan="0"/>
          <note key="55" pos="192" len="24" vol="21" pan="0"/>
        </pattern>
        <pattern muted="0" pos="1152" name="" type="1" steps="16">
          <note key="45" pos="0" len="24" vol="100" pan="0"/>
          <note key="45" pos="24" len="24" vol="61" pan="0"/>
          <note key="45" pos="48" len="24" vol="21" pan="0"/>
          <note key="52" pos="72" len="24" vol="100" pan="0"/>
          <note key="52" pos="96" len="24" vol="61" pan="0"/>
          <note key="52" pos="120" len="24" vol="21" pan="0"/>
          <note key="50" pos="144" len="24" vol="100" pan="0"/>
          <note key="50" pos="168" len="24" vol="61" pan="0"/>
          <note key="50" pos="192" len="24" vol="21" pan="0"/>
        </pattern>
        <pattern muted="0" pos="6144" name="" type="1" steps="16">
          <note key="57" pos="0" len="24" vol="100" pan="0"/>
          <note key="57" pos="24" len="24" vol="61" pan="0"/>
          <note key="57" pos="48" len="24" vol="21" pan="0"/>
          <note key="52" pos="72" len="24" vol="100" pan="0"/>
          <note key="52" pos="96" len="24" vol="61" pan="0"/>
          <note key="52" pos="120" len="24" vol="21" pan="0"/>
          <note key="45" pos="144" len="24" vol="100" pan="0"/>
          <note key="45" pos="168" len="24" vol="61" pan="0"/>
          <note key="45" pos="192" len="24" vol="21" pan="0"/>
        </pattern>
        <pattern muted="0" pos="6528" name="" type="1" steps="16">
          <note key="50" pos="0" len="24" vol="100" pan="0"/>
          <note key="50" pos="24" len="24" vol="61" pan="0"/>
          <note key="50" pos="48" len="24" vol="21" pan="0"/>
          <note key="52" pos="72" len="24" vol="100" pan="0"/>
          <note key="52" pos="96" len="24" vol="61" pan="0"/>
          <note key="52" pos="120" len="24" vol="21" pan="0"/>
          <note key="47" pos="144" len="24" vol="100" pan="0"/>
          <note key="47" pos="168" len="24" vol="61" pan="0"/>
          <note key="47" pos="192" len="24" vol="21" pan="0"/>
        </pattern>
        <pattern muted="0" pos="6912" name="" type="1" steps="16">
          <note key="48" pos="0" len="24" vol="100" pan="0"/>
          <note key="48" pos="24" len="24" vol="61" pan="0"/>
          <note key="48" pos="48" len="24" vol="21" pan="0"/>
          <note key="52" pos="72" len="24" vol="100" pan="0"/>
          <note key="52" pos="96" len="24" vol="61" pan="0"/>
          <note key="52" pos="120" len="24" vol="21" pan="0"/>
          <note key="55" pos="144" len="24" vol="100" pan="0"/>
          <note key="55" pos="168" len="24" vol="61" pan="0"/>
          <note key="55" pos="192" len="24" vol="21" pan="0"/>
        </pattern>
        <pattern muted="0" pos="7296" name="" type="1" steps="16">
          <note key="45" pos="0" len="24" vol="100" pan="0"/>
          <note key="45" pos="24" len="24" vol="61" pan="0"/>
          <note key="45" pos="48" len="24" vol="21" pan="0"/>
          <note key="52" pos="72" len="24" vol="100" pan="0"/>
          <note key="52" pos="96" len="24" vol="61" pan="0"/>
          <note key="52" pos="120" len="24" vol="21" pan="0"/>
          <note key="50" pos="144" len="24" vol="100" pan="0"/>
          <note key="50" pos="168" len="24" vol="61" pan="0"/>
          <note key="50" pos="192" len="24" vol="21" pan="0"/>
        </pattern>
        <pattern muted="0" pos="3072" name="guitar.ogg" type="1" steps="16">
          <note key="57" pos="0" len="24" vol="74" pan="0"/>
          <note key="52" pos="48" len="24" vol="74" pan="0"/>
          <note key="55" pos="72" len="24" vol="74" pan="0"/>
          <note key="50" pos="96" len="24" vol="74" pan="0"/>
          <note key="55" pos="192" len="24" vol="74" pan="0"/>
          <note key="50" pos="240" len="24" vol="74" pan="0"/>
          <note key="55" pos="264" len="24" vol="74" pan="0"/>
          <note key="48" pos="288" len="24" vol="74" pan="0"/>
          <note key="52" pos="384" len="24" vol="74" pan="0"/>
          <note key="53" pos="408" len="24" vol="74" pan="0"/>
          <note key="52" pos="432" len="24" vol="74" pan="0"/>
          <note key="53" pos="456" len="24" vol="74" pan="0"/>
          <note key="52" pos="480" len="24" vol="74" pan="0"/>
          <note key="50" pos="576" len="24" vol="74" pan="0"/>
          <note key="52" pos="600" len="24" vol="74" pan="0"/>
          <note key="50" pos="624" len="24" vol="74" pan="0"/>
          <note key="48" pos="648" len="24" vol="74" pan="0"/>
          <note key="47" pos="672" len="24" vol="74" pan="0"/>
        </pattern>
        <pattern muted="0" pos="3840" name="" type="1" steps="16">
          <note key="57" pos="0" len="24" vol="74" pan="0"/>
          <note key="52" pos="48" len="24" vol="74" pan="0"/>
          <note key="55" pos="72" len="24" vol="74" pan="0"/>
          <note key="50" pos="96" len="24" vol="74" pan="0"/>
          <note key="55" pos="192" len="24" vol="74" pan="0"/>
          <note key="50" pos="240" len="24" vol="74" pan="0"/>
          <note key="55" pos="264" len="24" vol="74" pan="0"/>
          <note key="48" pos="288" len="24" vol="74" pan="0"/>
          <note key="52" pos="384" len="24" vol="74" pan="0"/>
          <note key="53" pos="408" len="24" vol="74" pan="0"/>
          <note key="52" pos="432" len="24" vol="74" pan="0"/>
          <note key="53" pos="456" len="24" vol="74" pan="0"/>
          <note key="52" pos="480" len="24" vol="74" pan="0"/>
          <note key="50" pos="576" len="24" vol="74" pan="0"/>
          <note key="52" pos="600" len="24" vol="74" pan="0"/>
          <note key="50" pos="624" len="24" vol="74" pan="0"/>
          <note key="48" pos="648" len="24" vol="74" pan="0"/>
          <note key="47" pos="672" len="24" vol="74" pan="0"/>
        </pattern>
        <pattern muted="0" pos="4608" name="" type="1" steps="16">
          <note key="57" pos="0" len="24" vol="74" pan="0"/>
          <note key="52" pos="48" len="24" vol="74" pan="0"/>
          <note key="55" pos="72" len="24" vol="74" pan="0"/>
          <note key="50" pos="96" len="24" vol="74" pan="0"/>
          <note key="55" pos="192" len="24" vol="74" pan="0"/>
          <note key="50" pos="240" len="24" vol="74" pan="0"/>
          <note key="55" pos="264" len="24" vol="74" pan="0"/>
          <note key="48" pos="288" len="24" vol="74" pan="0"/>
          <note key="52" pos="384" len="24" vol="74" pan="0"/>
          <note key="53" pos="408" len="24" vol="74" pan="0"/>
          <note key="52" pos="432" len="24" vol="74" pan="0"/>
          <note key="53" pos="456" len="24" vol="74" pan="0"/>
          <note key="52" pos="480" len="24" vol="74" pan="0"/>
          <note key="50" pos="576" len="24" vol="74" pan="0"/>
          <note key="52" pos="600" len="24" vol="74" pan="0"/>
          <note key="50" pos="624" len="24" vol="74" pan="0"/>
          <note key="48" pos="648" len="24" vol="74" pan="0"/>
          <note key="47" pos="672" len="24" vol="74" pan="0"/>
        </pattern>
        <pattern muted="0" pos="5376" name="" type="1" steps="16">
          <note key="57" pos="0" len="24" vol="74" pan="0"/>
          <note key="52" pos="48" len="24" vol="74" pan="0"/>
          <note key="55" pos="72" len="24" vol="74" pan="0"/>
          <note key="50" pos="96" len="24" vol="74" pan="0"/>
          <note key="55" pos="192" len="24" vol="74" pan="0"/>
          <note key="50" pos="240" len="24" vol="74" pan="0"/>
          <note key="55" pos="264" len="24" vol="74" pan="0"/>
          <note key="48" pos="288" len="24" vol="74" pan="0"/>
          <note key="52" pos="384" len="24" vol="74" pan="0"/>
          <note key="53" pos="408" len="24" vol="74" pan="0"/>
          <note key="52" pos="432" len="24" vol="74" pan="0"/>
          <note key="53" pos="456" len="24" vol="74" pan="0"/>
          <note key="52" pos="480" len="24" vol="74" pan="0"/>
          <note key="50" pos="576" len="24" vol="74" pan="0"/>
          <note key="52" pos="600" len="24" vol="74" pan="0"/>
          <note key="50" pos="624" len="24" vol="74" pan="0"/>
          <note key="48" pos="648" len="24" vol="74" pan="0"/>
          <note key="47" pos="672" len="24" vol="74" pan="0"/>
        </pattern>
      </track>
      <track solo="0" muted="0" name="bass.ogg" type="0">
        <instrumenttrack vol="52" fxch="0" usemasterpitch="1" pitch="0" basenote="57" pitchrange="1" pan="0">
          <instrument name="audiofileprocessor">
            <audiofileprocessor interp="1" sframe="0" lframe="0" amp="100" eframe="1" reversed="0" looped="0" src="noteblock/bass.ogg" stutter="0"/>
          </instrument>
          <eldata ftype="0" fcut="14000" fwet="0" fres="0.5">
            <elvol hold="0.5" dec="0.5" att="0" lspd_numerator="4" latt="0" pdel="0" lshp="0" lspd_denominator="4" amt="1" userwavefile="" sustain="0.5" x100="0" rel="0.524" ctlenvamt="0" lpdel="0" lamt="0" lspd="0.1" lspd_syncmode="0"/>
            <elcut hold="0.5" dec="0.5" att="0" lspd_numerator="4" latt="0" pdel="0" lshp="0" lspd_denominator="4" amt="0" userwavefile="" sustain="0.5" x100="0" rel="0.1" ctlenvamt="0" lpdel="0" lamt="0" lspd="0.1" lspd_syncmode="0"/>
            <elres hold="0.5" dec="0.5" att="0" lspd_numerator="4" latt="0" pdel="0" lshp="0" lspd_denominator="4" amt="0" userwavefile="" sustain="0.5" x100="0" rel="0.1" ctlenvamt="0" lpdel="0" lamt="0" lspd="0.1" lspd_syncmode="0"/>
          </eldata>
          <chordcreator chord-enabled="0" chord="0" chordrange="1"/>
          <arpeggiator arptime_syncmode="0" arptime_numerator="4" arptime_denominator="4" arpmode="0" arpskip="0" arpgate="100" arprange="1" arp-enabled="0" arp="0" arpcycle="0" arpmiss="0" arptime="200" arpdir="0"/>
          <midiport outputprogram="1" writable="0" fixedoutputvelocity="-1" outputchannel="1" readable="0" inputchannel="0" fixedoutputnote="-1" inputcontroller="0" outputcontroller="0" basevelocity="63" fixedinputvelocity="-1"/>
          <fxchain enabled="0" numofeffects="0"/>
        </instrumenttrack>
      </track>
      <track solo="0" muted="0" name="bit.ogg" type="0">
        <instrumenttrack vol="21.6" fxch="0" usemasterpitch="1" pitch="0" basenote="57" pitchrange="1" pan="0">
          <instrument name="audiofileprocessor">
            <audiofileprocessor interp="1" sframe="0" lframe="0" amp="100" eframe="1" reversed="0" looped="0" src="noteblock/bit.ogg" stutter="0"/>
          </instrument>
          <eldata ftype="0" fcut="14000" fwet="0" fres="0.5">
            <elvol hold="0.5" dec="0.5" att="0" lspd_numerator="4" latt="0" pdel="0" lshp="0" lspd_denominator="4" amt="1" userwavefile="" sustain="0.5" x100="0" rel="0.54" ctlenvamt="0" lpdel="0" lamt="0" lspd="0.1" lspd_syncmode="0"/>
            <elcut hold="0.5" dec="0.5" att="0" lspd_numerator="4" latt="0" pdel="0" lshp="0" lspd_denominator="4" amt="0" userwavefile="" sustain="0.5" x100="0" rel="0.1" ctlenvamt="0" lpdel="0" lamt="0" lspd="0.1" lspd_syncmode="0"/>
            <elres hold="0.5" dec="0.5" att="0" lspd_numerator="4" latt="0" pdel="0" lshp="0" lspd_denominator="4" amt="0" userwavefile="" sustain="0.5" x100="0" rel="0.1" ctlenvamt="0" lpdel="0" lamt="0" lspd="0.1" lspd_syncmode="0"/>
          </eldata>
          <chordcreator chord-enabled="0" chord="0" chordrange="1"/>
          <arpeggiator arptime_syncmode="0" arptime_numerator="4" arptime_denominator="4" arpmode="0" arpskip="0" arpgate="100" arprange="1" arp-enabled="0" arp="0" arpcycle="0" arpmiss="0" arptime="200" arpdir="0"/>
          <midiport outputprogram="1" writable="0" fixedoutputvelocity="-1" outputchannel="1" readable="0" inputchannel="0" fixedoutputnote="-1" inputcontroller="0" outputcontroller="0" basevelocity="63" fixedinputvelocity="-1"/>
          <fxchain enabled="0" numofeffects="0"/>
        </instrumenttrack>
        <pattern muted="0" pos="1536" name="bit.ogg" type="1" steps="16">
          <note key="57" pos="0" len="24" vol="100" pan="0"/>
          <note key="59" pos="24" len="24" vol="100" pan="0"/>
          <note key="57" pos="24" len="24" vol="51" pan="0"/>
          <note key="60" pos="48" len="24" vol="100" pan="0"/>
          <note key="59" pos="48" len="24" vol="51" pan="0"/>
          <note key="57" pos="48" len="24" vol="19" pan="0"/>
          <note key="64" pos="72" len="24" vol="100" pan="0"/>
          <note key="60" pos="72" len="24" vol="51" pan="0"/>
          <note key="59" pos="72" len="24" vol="19" pan="0"/>
          <note key="64" pos="96" len="24" vol="51" pan="0"/>
          <note key="60" pos="96" len="24" vol="19" pan="0"/>
          <note key="60" pos="96" len="24" vol="100" pan="0"/>
          <note key="64" pos="120" len="24" vol="19" pan="0"/>
          <note key="62" pos="120" len="24" vol="100" pan="0"/>
          <note key="60" pos="120" len="24" vol="51" pan="0"/>
          <note key="62" pos="144" len="24" vol="51" pan="0"/>
          <note key="60" pos="144" len="24" vol="19" pan="0"/>
          <note key="57" pos="144" len="24" vol="100" pan="0"/>
          <note key="62" pos="168" len="24" vol="19" pan="0"/>
          <note key="59" pos="168" len="24" vol="100" pan="0"/>
          <note key="57" pos="168" len="24" vol="51" pan="0"/>
          <note key="62" pos="192" len="24" vol="100" pan="0"/>
          <note key="59" pos="192" len="24" vol="51" pan="0"/>
          <note key="57" pos="192" len="24" vol="19" pan="0"/>
          <note key="64" pos="216" len="24" vol="100" pan="0"/>
          <note key="62" pos="216" len="24" vol="51" pan="0"/>
          <note key="59" pos="216" len="24" vol="19" pan="0"/>
          <note key="64" pos="240" len="24" vol="51" pan="0"/>
          <note key="62" pos="240" len="24" vol="19" pan="0"/>
          <note key="57" pos="240" len="24" vol="100" pan="0"/>
          <note key="64" pos="264" len="24" vol="19" pan="0"/>
          <note key="57" pos="264" len="24" vol="51" pan="0"/>
          <note key="55" pos="264" len="24" vol="100" pan="0"/>
          <note key="62" pos="288" len="24" vol="100" pan="0"/>
          <note key="57" pos="288" len="24" vol="19" pan="0"/>
          <note key="55" pos="288" len="24" vol="51" pan="0"/>
          <note key="62" pos="312" len="24" vol="51" pan="0"/>
          <note key="60" pos="312" len="24" vol="100" pan="0"/>
          <note key="55" pos="312" len="24" vol="19" pan="0"/>
          <note key="62" pos="336" len="24" vol="19" pan="0"/>
          <note key="60" pos="336" len="24" vol="51" pan="0"/>
          <note key="56" pos="336" len="24" vol="100" pan="0"/>
          <note key="60" pos="360" len="24" vol="19" pan="0"/>
          <note key="59" pos="360" len="24" vol="100" pan="0"/>
          <note key="56" pos="360" len="24" vol="51" pan="0"/>
          <note key="59" pos="384" len="24" vol="51" pan="0"/>
          <note key="56" pos="384" len="24" vol="19" pan="0"/>
          <note key="59" pos="408" len="24" vol="19" pan="0"/>
        </pattern>
        <pattern muted="0" pos="1920" name="" type="1" steps="16">
          <note key="57" pos="0" len="24" vol="100" pan="0"/>
          <note key="59" pos="24" len="24" vol="100" pan="0"/>
          <note key="57" pos="24" len="24" vol="51" pan="0"/>
          <note key="60" pos="48" len="24" vol="100" pan="0"/>
          <note key="59" pos="48" len="24" vol="51" pan="0"/>
          <note key="57" pos="48" len="24" vol="19" pan="0"/>
          <note key="64" pos="72" len="24" vol="100" pan="0"/>
          <note key="60" pos="72" len="24" vol="51" pan="0"/>
          <note key="59" pos="72" len="24" vol="19" pan="0"/>
          <note key="64" pos="96" len="24" vol="51" pan="0"/>
          <note key="60" pos="96" len="24" vol="19" pan="0"/>
          <note key="60" pos="96" len="24" vol="100" pan="0"/>
          <note key="64" pos="120" len="24" vol="19" pan="0"/>
          <note key="62" pos="120" len="24" vol="100" pan="0"/>
          <note key="60" pos="120" len="24" vol="51" pan="0"/>
          <note key="62" pos="144" len="24" vol="51" pan="0"/>
          <note key="60" pos="144" len="24" vol="19" pan="0"/>
          <note key="57" pos="144" len="24" vol="100" pan="0"/>
          <note key="62" pos="168" len="24" vol="19" pan="0"/>
          <note key="59" pos="168" len="24" vol="100" pan="0"/>
          <note key="57" pos="168" len="24" vol="51" pan="0"/>
          <note key="62" pos="192" len="24" vol="100" pan="0"/>
          <note key="59" pos="192" len="24" vol="51" pan="0"/>
          <note key="57" pos="192" len="24" vol="19" pan="0"/>
          <note key="64" pos="216" len="24" vol="100" pan="0"/>
          <note key="62" pos="216" len="24" vol="51" pan="0"/>
          <note key="59" pos="216" len="24" vol="19" pan="0"/>
          <note key="64" pos="240" len="24" vol="51" pan="0"/>
          <note key="62" pos="240" len="24" vol="19" pan="0"/>
          <note key="57" pos="240" len="24" vol="100" pan="0"/>
          <note key="64" pos="264" len="24" vol="19" pan="0"/>
          <note key="57" pos="264" len="24" vol="51" pan="0"/>
          <note key="55" pos="264" len="24" vol="100" pan="0"/>
          <note key="62" pos="288" len="24" vol="100" pan="0"/>
          <note key="57" pos="288" len="24" vol="19" pan="0"/>
          <note key="55" pos="288" len="24" vol="51" pan="0"/>
          <note key="62" pos="312" len="24" vol="51" pan="0"/>
          <note key="60" pos="312" len="24" vol="100" pan="0"/>
          <note key="55" pos="312" len="24" vol="19" pan="0"/>
          <note key="62" pos="336" len="24" vol="19" pan="0"/>
          <note key="60" pos="336" len="24" vol="51" pan="0"/>
          <note key="56" pos="336" len="24" vol="100" pan="0"/>
          <note key="60" pos="360" len="24" vol="19" pan="0"/>
          <note key="59" pos="360" len="24" vol="100" pan="0"/>
          <note key="56" pos="360" len="24" vol="51" pan="0"/>
          <note key="59" pos="384" len="24" vol="51" pan="0"/>
          <note key="56" pos="384" len="24" vol="19" pan="0"/>
          <note key="59" pos="408" len="24" vol="19" pan="0"/>
        </pattern>
        <pattern muted="0" pos="2304" name="" type="1" steps="16">
          <note key="57" pos="0" len="24" vol="100" pan="0"/>
          <note key="59" pos="24" len="24" vol="100" pan="0"/>
          <note key="57" pos="24" len="24" vol="51" pan="0"/>
          <note key="60" pos="48" len="24" vol="100" pan="0"/>
          <note key="59" pos="48" len="24" vol="51" pan="0"/>
          <note key="57" pos="48" len="24" vol="19" pan="0"/>
          <note key="64" pos="72" len="24" vol="100" pan="0"/>
          <note key="60" pos="72" len="24" vol="51" pan="0"/>
          <note key="59" pos="72" len="24" vol="19" pan="0"/>
          <note key="64" pos="96" len="24" vol="51" pan="0"/>
          <note key="60" pos="96" len="24" vol="19" pan="0"/>
          <note key="60" pos="96" len="24" vol="100" pan="0"/>
          <note key="64" pos="120" len="24" vol="19" pan="0"/>
          <note key="62" pos="120" len="24" vol="100" pan="0"/>
          <note key="60" pos="120" len="24" vol="51" pan="0"/>
          <note key="62" pos="144" len="24" vol="51" pan="0"/>
          <note key="60" pos="144" len="24" vol="19" pan="0"/>
          <note key="57" pos="144" len="24" vol="100" pan="0"/>
          <note key="62" pos="168" len="24" vol="19" pan="0"/>
          <note key="59" pos="168" len="24" vol="100" pan="0"/>
          <note key="57" pos="168" len="24" vol="51" pan="0"/>
          <note key="62" pos="192" len="24" vol="100" pan="0"/>
          <note key="59" pos="192" len="24" vol="51" pan="0"/>
          <note key="57" pos="192" len="24" vol="19" pan="0"/>
          <note key="64" pos="216" len="24" vol="100" pan="0"/>
          <note key="62" pos="216" len="24" vol="51" pan="0"/>
          <note key="59" pos="216" len="24" vol="19" pan="0"/>
          <note key="64" pos="240" len="24" vol="51" pan="0"/>
          <note key="62" pos="240" len="24" vol="19" pan="0"/>
          <note key="57" pos="240" len="24" vol="100" pan="0"/>
          <note key="64" pos="264" len="24" vol="19" pan="0"/>
          <note key="57" pos="264" len="24" vol="51" pan="0"/>
          <note key="55" pos="264" len="24" vol="100" pan="0"/>
          <note key="62" pos="288" len="24" vol="100" pan="0"/>
          <note key="57" pos="288" len="24" vol="19" pan="0"/>
          <note key="55" pos="288" len="24" vol="51" pan="0"/>
          <note key="62" pos="312" len="24" vol="51" pan="0"/>
          <note key="60" pos="312" len="24" vol="100" pan="0"/>
          <note key="55" pos="312" len="24" vol="19" pan="0"/>
          <note key="62" pos="336" len="24" vol="19" pan="0"/>
          <note key="60" pos="336" len="24" vol="51" pan="0"/>
          <note key="56" pos="336" len="24" vol="100" pan="0"/>
          <note key="60" pos="360" len="24" vol="19" pan="0"/>
          <note key="59" pos="360" len="24" vol="100" pan="0"/>
          <note key="56" pos="360" len="24" vol="51" pan="0"/>
          <note key="59" pos="384" len="24" vol="51" pan="0"/>
          <note key="56" pos="384" len="24" vol="19" pan="0"/>
          <note key="59" pos="408" len="24" vol="19" pan="0"/>
        </pattern>
        <pattern muted="0" pos="2688" name="" type="1" steps="16">
          <note key="57" pos="0" len="24" vol="100" pan="0"/>
          <note key="59" pos="24" len="24" vol="100" pan="0"/>
          <note key="57" pos="24" len="24" vol="51" pan="0"/>
          <note key="60" pos="48" len="24" vol="100" pan="0"/>
          <note key="59" pos="48" len="24" vol="51" pan="0"/>
          <note key="57" pos="48" len="24" vol="19" pan="0"/>
          <note key="64" pos="72" len="24" vol="100" pan="0"/>
          <note key="60" pos="72" len="24" vol="51" pan="0"/>
          <note key="59" pos="72" len="24" vol="19" pan="0"/>
          <note key="64" pos="96" len="24" vol="51" pan="0"/>
          <note key="60" pos="96" len="24" vol="19" pan="0"/>
          <note key="60" pos="96" len="24" vol="100" pan="0"/>
          <note key="64" pos="120" len="24" vol="19" pan="0"/>
          <note key="62" pos="120" len="24" vol="100" pan="0"/>
          <note key="60" pos="120" len="24" vol="51" pan="0"/>
          <note key="62" pos="144" len="24" vol="51" pan="0"/>
          <note key="60" pos="144" len="24" vol="19" pan="0"/>
          <note key="57" pos="144" len="24" vol="100" pan="0"/>
          <note key="62" pos="168" len="24" vol="19" pan="0"/>
          <note key="59" pos="168" len="24" vol="100" pan="0"/>
          <note key="57" pos="168" len="24" vol="51" pan="0"/>
          <note key="62" pos="192" len="24" vol="100" pan="0"/>
          <note key="59" pos="192" len="24" vol="51" pan="0"/>
          <note key="57" pos="192" len="24" vol="19" pan="0"/>
          <note key="64" pos="216" len="24" vol="100" pan="0"/>
          <note key="62" pos="216" len="24" vol="51" pan="0"/>
          <note key="59" pos="216" len="24" vol="19" pan="0"/>
          <note key="64" pos="240" len="24" vol="51" pan="0"/>
          <note key="62" pos="240" len="24" vol="19" pan="0"/>
          <note key="57" pos="240" len="24" vol="100" pan="0"/>
          <note key="64" pos="264" len="24" vol="19" pan="0"/>
          <note key="57" pos="264" len="24" vol="51" pan="0"/>
          <note key="55" pos="264" len="24" vol="100" pan="0"/>
          <note key="62" pos="288" len="24" vol="100" pan="0"/>
          <note key="57" pos="288" len="24" vol="19" pan="0"/>
          <note key="55" pos="288" len="24" vol="51" pan="0"/>
          <note key="62" pos="312" len="24" vol="51" pan="0"/>
          <note key="60" pos="312" len="24" vol="100" pan="0"/>
          <note key="55" pos="312" len="24" vol="19" pan="0"/>
          <note key="62" pos="336" len="24" vol="19" pan="0"/>
          <note key="60" pos="336" len="24" vol="51" pan="0"/>
          <note key="56" pos="336" len="24" vol="100" pan="0"/>
          <note key="60" pos="360" len="24" vol="19" pan="0"/>
          <note key="59" pos="360" len="24" vol="100" pan="0"/>
          <note key="56" pos="360" len="24" vol="51" pan="0"/>
          <note key="59" pos="384" len="24" vol="51" pan="0"/>
          <note key="56" pos="384" len="24" vol="19" pan="0"/>
          <note key="59" pos="408" len="24" vol="19" pan="0"/>
        </pattern>
        <pattern muted="0" pos="0" name="" type="1" steps="16">
          <note key="57" pos="0" len="24" vol="100" pan="0"/>
          <note key="59" pos="24" len="24" vol="100" pan="0"/>
          <note key="57" pos="24" len="24" vol="51" pan="0"/>
          <note key="60" pos="48" len="24" vol="100" pan="0"/>
          <note key="59" pos="48" len="24" vol="51" pan="0"/>
          <note key="57" pos="48" len="24" vol="19" pan="0"/>
          <note key="64" pos="72" len="24" vol="100" pan="0"/>
          <note key="60" pos="72" len="24" vol="51" pan="0"/>
          <note key="59" pos="72" len="24" vol="19" pan="0"/>
          <note key="64" pos="96" len="24" vol="51" pan="0"/>
          <note key="60" pos="96" len="24" vol="19" pan="0"/>
          <note key="60" pos="96" len="24" vol="100" pan="0"/>
          <note key="64" pos="120" len="24" vol="19" pan="0"/>
          <note key="62" pos="120" len="24" vol="100" pan="0"/>
          <note key="60" pos="120" len="24" vol="51" pan="0"/>
          <note key="62" pos="144" len="24" vol="51" pan="0"/>
          <note key="60" pos="144" len="24" vol="19" pan="0"/>
          <note key="57" pos="144" len="24" vol="100" pan="0"/>
          <note key="62" pos="168" len="24" vol="19" pan="0"/>
          <note key="59" pos="168" len="24" vol="100" pan="0"/>
          <note key="57" pos="168" len="24" vol="51" pan="0"/>
          <note key="62" pos="192" len="24" vol="100" pan="0"/>
          <note key="59" pos="192" len="24" vol="51" pan="0"/>
          <note key="57" pos="192" len="24" vol="19" pan="0"/>
          <note key="64" pos="216" len="24" vol="100" pan="0"/>
          <note key="62" pos="216" len="24" vol="51" pan="0"/>
          <note key="59" pos="216" len="24" vol="19" pan="0"/>
          <note key="64" pos="240" len="24" vol="51" pan="0"/>
          <note key="62" pos="240" len="24" vol="19" pan="0"/>
          <note key="57" pos="240" len="24" vol="100" pan="0"/>
          <note key="64" pos="264" len="24" vol="19" pan="0"/>
          <note key="57" pos="264" len="24" vol="51" pan="0"/>
          <note key="55" pos="264" len="24" vol="100" pan="0"/>
          <note key="62" pos="288" len="24" vol="100" pan="0"/>
          <note key="57" pos="288" len="24" vol="19" pan="0"/>
          <note key="55" pos="288" len="24" vol="51" pan="0"/>
          <note key="62" pos="312" len="24" vol="51" pan="0"/>
          <note key="60" pos="312" len="24" vol="100" pan="0"/>
          <note key="55" pos="312" len="24" vol="19" pan="0"/>
          <note key="62" pos="336" len="24" vol="19" pan="0"/>
          <note key="60" pos="336" len="24" vol="51" pan="0"/>
          <note key="56" pos="336" len="24" vol="100" pan="0"/>
          <note key="60" pos="360" len="24" vol="19" pan="0"/>
          <note key="59" pos="360" len="24" vol="100" pan="0"/>
          <note key="56" pos="360" len="24" vol="51" pan="0"/>
          <note key="59" pos="384" len="24" vol="51" pan="0"/>
          <note key="56" pos="384" len="24" vol="19" pan="0"/>
          <note key="59" pos="408" len="24" vol="19" pan="0"/>
        </pattern>
        <pattern muted="0" pos="384" name="" type="1" steps="16">
          <note key="57" pos="0" len="24" vol="100" pan="0"/>
          <note key="59" pos="24" len="24" vol="100" pan="0"/>
          <note key="57" pos="24" len="24" vol="51" pan="0"/>
          <note key="60" pos="48" len="24" vol="100" pan="0"/>
          <note key="59" pos="48" len="24" vol="51" pan="0"/>
          <note key="57" pos="48" len="24" vol="19" pan="0"/>
          <note key="64" pos="72" len="24" vol="100" pan="0"/>
          <note key="60" pos="72" len="24" vol="51" pan="0"/>
          <note key="59" pos="72" len="24" vol="19" pan="0"/>
          <note key="64" pos="96" len="24" vol="51" pan="0"/>
          <note key="60" pos="96" len="24" vol="19" pan="0"/>
          <note key="60" pos="96" len="24" vol="100" pan="0"/>
          <note key="64" pos="120" len="24" vol="19" pan="0"/>
          <note key="62" pos="120" len="24" vol="100" pan="0"/>
          <note key="60" pos="120" len="24" vol="51" pan="0"/>
          <note key="62" pos="144" len="24" vol="51" pan="0"/>
          <note key="60" pos="144" len="24" vol="19" pan="0"/>
          <note key="57" pos="144" len="24" vol="100" pan="0"/>
          <note key="62" pos="168" len="24" vol="19" pan="0"/>
          <note key="59" pos="168" len="24" vol="100" pan="0"/>
          <note key="57" pos="168" len="24" vol="51" pan="0"/>
          <note key="62" pos="192" len="24" vol="100" pan="0"/>
          <note key="59" pos="192" len="24" vol="51" pan="0"/>
          <note key="57" pos="192" len="24" vol="19" pan="0"/>
          <note key="64" pos="216" len="24" vol="100" pan="0"/>
          <note key="62" pos="216" len="24" vol="51" pan="0"/>
          <note key="59" pos="216" len="24" vol="19" pan="0"/>
          <note key="64" pos="240" len="24" vol="51" pan="0"/>
          <note key="62" pos="240" len="24" vol="19" pan="0"/>
          <note key="57" pos="240" len="24" vol="100" pan="0"/>
          <note key="64" pos="264" len="24" vol="19" pan="0"/>
          <note key="57" pos="264" len="24" vol="51" pan="0"/>
          <note key="55" pos="264" len="24" vol="100" pan="0"/>
          <note key="62" pos="288" len="24" vol="100" pan="0"/>
          <note key="57" pos="288" len="24" vol="19" pan="0"/>
          <note key="55" pos="288" len="24" vol="51" pan="0"/>
          <note key="62" pos="312" len="24" vol="51" pan="0"/>
          <note key="60" pos="312" len="24" vol="100" pan="0"/>
          <note key="55" pos="312" len="24" vol="19" pan="0"/>
          <note key="62" pos="336" len="24" vol="19" pan="0"/>
          <note key="60" pos="336" len="24" vol="51" pan="0"/>
          <note key="56" pos="336" len="24" vol="100" pan="0"/>
          <note key="60" pos="360" len="24" vol="19" pan="0"/>
          <note key="59" pos="360" len="24" vol="100" pan="0"/>
          <note key="56" pos="360" len="24" vol="51" pan="0"/>
          <note key="59" pos="384" len="24" vol="51" pan="0"/>
          <note key="56" pos="384" len="24" vol="19" pan="0"/>
          <note key="59" pos="408" len="24" vol="19" pan="0"/>
        </pattern>
        <pattern muted="0" pos="768" name="" type="1" steps="16">
          <note key="57" pos="0" len="24" vol="100" pan="0"/>
          <note key="59" pos="24" len="24" vol="100" pan="0"/>
          <note key="57" pos="24" len="24" vol="51" pan="0"/>
          <note key="60" pos="48" len="24" vol="100" pan="0"/>
          <note key="59" pos="48" len="24" vol="51" pan="0"/>
          <note key="57" pos="48" len="24" vol="19" pan="0"/>
          <note key="64" pos="72" len="24" vol="100" pan="0"/>
          <note key="60" pos="72" len="24" vol="51" pan="0"/>
          <note key="59" pos="72" len="24" vol="19" pan="0"/>
          <note key="64" pos="96" len="24" vol="51" pan="0"/>
          <note key="60" pos="96" len="24" vol="19" pan="0"/>
          <note key="60" pos="96" len="24" vol="100" pan="0"/>
          <note key="64" pos="120" len="24" vol="19" pan="0"/>
          <note key="62" pos="120" len="24" vol="100" pan="0"/>
          <note key="60" pos="120" len="24" vol="51" pan="0"/>
          <note key="62" pos="144" len="24" vol="51" pan="0"/>
          <note key="60" pos="144" len="24" vol="19" pan="0"/>
          <note key="57" pos="144" len="24" vol="100" pan="0"/>
          <note key="62" pos="168" len="24" vol="19" pan="0"/>
          <note key="59" pos="168" len="24" vol="100" pan="0"/>
          <note key="57" pos="168" len="24" vol="51" pan="0"/>
          <note key="62" pos="192" len="24" vol="100" pan="0"/>
          <note key="59" pos="192" len="24" vol="51" pan="0"/>
          <note key="57" pos="192" len="24" vol="19" pan="0"/>
          <note key="64" pos="216" len="24" vol="100" pan="0"/>
          <note key="62" pos="216" len="24" vol="51" pan="0"/>
          <note key="59" pos="216" len="24" vol="19" pan="0"/>
          <note key="64" pos="240" len="24" vol="51" pan="0"/>
          <note key="62" pos="240" len="24" vol="19" pan="0"/>
          <note key="57" pos="240" len="24" vol="100" pan="0"/>
          <note key="64" pos="264" len="24" vol="19" pan="0"/>
          <note key="57" pos="264" len="24" vol="51" pan="0"/>
          <note key="55" pos="264" len="24" vol="100" pan="0"/>
          <note key="62" pos="288" len="24" vol="100" pan="0"/>
          <note key="57" pos="288" len="24" vol="19" pan="0"/>
          <note key="55" pos="288" len="24" vol="51" pan="0"/>
          <note key="62" pos="312" len="24" vol="51" pan="0"/>
          <note key="60" pos="312" len="24" vol="100" pan="0"/>
          <note key="55" pos="312" len="24" vol="19" pan="0"/>
          <note key="62" pos="336" len="24" vol="19" pan="0"/>
          <note key="60" pos="336" len="24" vol="51" pan="0"/>
          <note key="56" pos="336" len="24" vol="100" pan="0"/>
          <note key="60" pos="360" len="24" vol="19" pan="0"/>
          <note key="59" pos="360" len="24" vol="100" pan="0"/>
          <note key="56" pos="360" len="24" vol="51" pan="0"/>
          <note key="59" pos="384" len="24" vol="51" pan="0"/>
          <note key="56" pos="384" len="24" vol="19" pan="0"/>
          <note key="59" pos="408" len="24" vol="19" pan="0"/>
        </pattern>
        <pattern muted="0" pos="1152" name="" type="1" steps="16">
          <note key="57" pos="0" len="24" vol="100" pan="0"/>
          <note key="59" pos="24" len="24" vol="100" pan="0"/>
          <note key="57" pos="24" len="24" vol="51" pan="0"/>
          <note key="60" pos="48" len="24" vol="100" pan="0"/>
          <note key="59" pos="48" len="24" vol="51" pan="0"/>
          <note key="57" pos="48" len="24" vol="19" pan="0"/>
          <note key="64" pos="72" len="24" vol="100" pan="0"/>
          <note key="60" pos="72" len="24" vol="51" pan="0"/>
          <note key="59" pos="72" len="24" vol="19" pan="0"/>
          <note key="64" pos="96" len="24" vol="51" pan="0"/>
          <note key="60" pos="96" len="24" vol="19" pan="0"/>
          <note key="60" pos="96" len="24" vol="100" pan="0"/>
          <note key="64" pos="120" len="24" vol="19" pan="0"/>
          <note key="62" pos="120" len="24" vol="100" pan="0"/>
          <note key="60" pos="120" len="24" vol="51" pan="0"/>
          <note key="62" pos="144" len="24" vol="51" pan="0"/>
          <note key="60" pos="144" len="24" vol="19" pan="0"/>
          <note key="57" pos="144" len="24" vol="100" pan="0"/>
          <note key="62" pos="168" len="24" vol="19" pan="0"/>
          <note key="59" pos="168" len="24" vol="100" pan="0"/>
          <note key="57" pos="168" len="24" vol="51" pan="0"/>
          <note key="62" pos="192" len="24" vol="100" pan="0"/>
          <note key="59" pos="192" len="24" vol="51" pan="0"/>
          <note key="57" pos="192" len="24" vol="19" pan="0"/>
          <note key="64" pos="216" len="24" vol="100" pan="0"/>
          <note key="62" pos="216" len="24" vol="51" pan="0"/>
          <note key="59" pos="216" len="24" vol="19" pan="0"/>
          <note key="64" pos="240" len="24" vol="51" pan="0"/>
          <note key="62" pos="240" len="24" vol="19" pan="0"/>
          <note key="57" pos="240" len="24" vol="100" pan="0"/>
          <note key="64" pos="264" len="24" vol="19" pan="0"/>
          <note key="57" pos="264" len="24" vol="51" pan="0"/>
          <note key="55" pos="264" len="24" vol="100" pan="0"/>
          <note key="62" pos="288" len="24" vol="100" pan="0"/>
          <note key="57" pos="288" len="24" vol="19" pan="0"/>
          <note key="55" pos="288" len="24" vol="51" pan="0"/>
          <note key="62" pos="312" len="24" vol="51" pan="0"/>
          <note key="60" pos="312" len="24" vol="100" pan="0"/>
          <note key="55" pos="312" len="24" vol="19" pan="0"/>
          <note key="62" pos="336" len="24" vol="19" pan="0"/>
          <note key="60" pos="336" len="24" vol="51" pan="0"/>
          <note key="56" pos="336" len="24" vol="100" pan="0"/>
          <note key="60" pos="360" len="24" vol="19" pan="0"/>
          <note key="59" pos="360" len="24" vol="100" pan="0"/>
          <note key="56" pos="360" len="24" vol="51" pan="0"/>
          <note key="59" pos="384" len="24" vol="51" pan="0"/>
          <note key="56" pos="384" len="24" vol="19" pan="0"/>
          <note key="59" pos="408" len="24" vol="19" pan="0"/>
        </pattern>
      </track>
      <track solo="0" muted="0" name="guitar.ogg" type="0">
        <instrumenttrack vol="100" fxch="0" usemasterpitch="1" pitch="0" basenote="57" pitchrange="1" pan="0">
          <instrument name="audiofileprocessor">
            <audiofileprocessor interp="1" sframe="0" lframe="0" amp="100" eframe="1" reversed="0" looped="0" src="noteblock/guitar.ogg" stutter="0"/>
          </instrument>
          <eldata ftype="0" fcut="14000" fwet="0" fres="0.5">
            <elvol hold="0.5" dec="0.5" att="0" lspd_numerator="4" latt="0" pdel="0" lshp="0" lspd_denominator="4" amt="0" userwavefile="" sustain="0.5" x100="0" rel="0.1" ctlenvamt="0" lpdel="0" lamt="0" lspd="0.1" lspd_syncmode="0"/>
            <elcut hold="0.5" dec="0.5" att="0" lspd_numerator="4" latt="0" pdel="0" lshp="0" lspd_denominator="4" amt="0" userwavefile="" sustain="0.5" x100="0" rel="0.1" ctlenvamt="0" lpdel="0" lamt="0" lspd="0.1" lspd_syncmode="0"/>
            <elres hold="0.5" dec="0.5" att="0" lspd_numerator="4" latt="0" pdel="0" lshp="0" lspd_denominator="4" amt="0" userwavefile="" sustain="0.5" x100="0" rel="0.1" ctlenvamt="0" lpdel="0" lamt="0" lspd="0.1" lspd_syncmode="0"/>
          </eldata>
          <chordcreator chord-enabled="0" chord="0" chordrange="1"/>
          <arpeggiator arptime_syncmode="0" arptime_numerator="4" arptime_denominator="4" arpmode="0" arpskip="0" arpgate="100" arprange="1" arp-enabled="0" arp="0" arpcycle="0" arpmiss="0" arptime="200" arpdir="0"/>
          <midiport outputprogram="1" writable="0" fixedoutputvelocity="-1" outputchannel="1" readable="0" inputchannel="0" fixedoutputnote="-1" inputcontroller="0" outputcontroller="0" basevelocity="63" fixedinputvelocity="-1"/>
          <fxchain enabled="0" numofeffects="0"/>
        </instrumenttrack>
      </track>
    </trackcontainer>
    <track solo="0" muted="0" name="Automation track" type="6">
      <automationtrack/>
      <automationpattern pos="0" mute="0" prog="0" tens="1" len="192" name="Numerator"/>
      <automationpattern pos="0" mute="0" prog="0" tens="1" len="192" name="Denominator"/>
      <automationpattern pos="0" mute="0" prog="0" tens="1" len="192" name="Tempo"/>
      <automationpattern pos="0" mute="0" prog="0" tens="1" len="192" name="Master volume"/>
      <automationpattern pos="0" mute="0" prog="0" tens="1" len="192" name="Master pitch"/>
    </track>
    <fxmixer minimized="0" maximized="0" visible="1" height="333" y="310" width="543" x="5">
      <fxchannel muted="0" name="Master" soloed="0" volume="1" num="0">
        <fxchain enabled="0" numofeffects="0"/>
      </fxchannel>
    </fxmixer>
    <ControllerRackView minimized="0" maximized="0" visible="1" height="200" y="310" width="350" x="680"/>
    <pianoroll minimized="0" maximized="1" visible="0" height="480" y="5" width="860" x="5"/>
    <automationeditor minimized="0" maximized="0" visible="0" height="400" y="1" width="860" x="1"/>
    <projectnotes minimized="0" maximized="0" visible="1" height="400" y="10" width="687" x="700"><![CDATA[<!DOCTYPE HTML PUBLIC "-//W3C//DTD HTML 4.0//EN" "http://www.w3.org/TR/REC-html40/strict.dtd">
<html><head><meta name="qrichtext" content="1" /><style type="text/css">
p, li { white-space: pre-wrap; }
</style></head><body style=" font-family:'MS Shell Dlg 2'; font-size:8.25pt; font-weight:400; font-style:normal;">
<p style=" margin-top:0px; margin-bottom:0px; margin-left:0px; margin-right:0px; -qt-block-indent:0; text-indent:0px;"><span style=" font-size:16pt; color:#e0e0e0;">Colored Falling</span></p>
<p style="-qt-paragraph-type:empty; margin-top:0px; margin-bottom:0px; margin-left:0px; margin-right:0px; -qt-block-indent:0; text-indent:0px; font-size:16pt; color:#e0e0e0;"><br /></p>
<p style=" margin-top:0px; margin-bottom:0px; margin-left:0px; margin-right:0px; -qt-block-indent:0; text-indent:0px;"><span style=" font-size:16pt; color:#e0e0e0;">Hangup</span></p>
<p style="-qt-paragraph-type:empty; margin-top:0px; margin-bottom:0px; margin-left:0px; margin-right:0px; -qt-block-indent:0; text-indent:0px; font-size:16pt; color:#e0e0e0;"><br /></p>
<p style=" margin-top:0px; margin-bottom:0px; margin-left:0px; margin-right:0px; -qt-block-indent:0; text-indent:0px;"><span style=" font-size:16pt; color:#e0e0e0;">Explosives</span></p></body></html>]]></projectnotes>
    <timeline lp1pos="7680" lp0pos="0" lpstate="1"/>
    <controllers/>
  </song>
</lmms-project>
