<?xml version="1.0"?>
<!DOCTYPE lmms-project>
<lmms-project version="1.0" type="song" creator="LMMS" creatorversion="1.2.2">
  <head timesig_denominator="4" bpm="190" mastervol="100" timesig_numerator="4" masterpitch="0"/>
  <song>
    <trackcontainer height="300" type="song" visible="1" minimized="0" width="600" maximized="1" y="2" x="6">
      <track muted="0" solo="0" type="5" name="Automation track">
        <automationtrack/>
      </track>
      <track muted="0" solo="0" type="0" name="bass.ogg">
        <instrumenttrack pitchrange="1" fxch="0" vol="46.4" usemasterpitch="1" pan="0" basenote="57" pitch="0">
          <instrument name="audiofileprocessor">
            <audiofileprocessor reversed="0" lframe="0" src="noteblock/bass.ogg" eframe="1" stutter="0" looped="0" amp="100" interp="1" sframe="0"/>
          </instrument>
          <eldata fcut="14000" fwet="0" fres="0.5" ftype="0">
            <elvol pdel="0" userwavefile="" lshp="0" lpdel="0" lspd="0.1" latt="0" lspd_denominator="4" lamt="0" rel="1.156" sustain="0.5" lspd_syncmode="0" dec="0.5" lspd_numerator="4" att="0" ctlenvamt="0" hold="0.5" amt="1" x100="0"/>
            <elcut pdel="0" userwavefile="" lshp="0" lpdel="0" lspd="0.1" latt="0" lspd_denominator="4" lamt="0" rel="0.1" sustain="0.5" lspd_syncmode="0" dec="0.5" lspd_numerator="4" att="0" ctlenvamt="0" hold="0.5" amt="0" x100="0"/>
            <elres pdel="0" userwavefile="" lshp="0" lpdel="0" lspd="0.1" latt="0" lspd_denominator="4" lamt="0" rel="0.1" sustain="0.5" lspd_syncmode="0" dec="0.5" lspd_numerator="4" att="0" ctlenvamt="0" hold="0.5" amt="0" x100="0"/>
          </eldata>
          <chordcreator chordrange="1" chord="0" chord-enabled="0"/>
          <arpeggiator arprange="1" arpskip="0" arpmiss="0" arpmode="0" arptime_syncmode="0" arp="0" arptime_denominator="4" arp-enabled="0" arpdir="0" arptime_numerator="4" arptime="200" arpcycle="0" arpgate="100"/>
          <midiport outputprogram="1" fixedinputvelocity="-1" outputchannel="1" readable="0" inputcontroller="0" fixedoutputvelocity="-1" inputchannel="0" outputcontroller="0" fixedoutputnote="-1" basevelocity="63" writable="0"/>
          <fxchain numofeffects="0" enabled="0"/>
        </instrumenttrack>
        <pattern muted="0" type="1" steps="16" name="bass.ogg" pos="0">
          <note key="52" vol="100" pan="0" len="24" pos="0"/>
          <note key="52" vol="51" pan="0" len="24" pos="24"/>
          <note key="52" vol="100" pan="0" len="24" pos="48"/>
          <note key="53" vol="97" pan="0" len="24" pos="72"/>
          <note key="55" vol="97" pan="0" len="24" pos="120"/>
          <note key="57" vol="97" pan="0" len="24" pos="168"/>
          <note key="52" vol="100" pan="0" len="24" pos="192"/>
          <note key="52" vol="51" pan="0" len="24" pos="216"/>
          <note key="52" vol="100" pan="0" len="24" pos="240"/>
          <note key="53" vol="97" pan="0" len="24" pos="264"/>
          <note key="51" vol="97" pan="0" len="24" pos="360"/>
        </pattern>
        <pattern muted="0" type="1" steps="16" name="" pos="384">
          <note key="52" vol="100" pan="0" len="24" pos="0"/>
          <note key="52" vol="51" pan="0" len="24" pos="24"/>
          <note key="52" vol="100" pan="0" len="24" pos="48"/>
          <note key="53" vol="97" pan="0" len="24" pos="72"/>
          <note key="55" vol="97" pan="0" len="24" pos="120"/>
          <note key="57" vol="97" pan="0" len="24" pos="168"/>
          <note key="52" vol="100" pan="0" len="24" pos="192"/>
          <note key="52" vol="51" pan="0" len="24" pos="216"/>
          <note key="52" vol="100" pan="0" len="24" pos="240"/>
          <note key="53" vol="97" pan="0" len="24" pos="264"/>
          <note key="51" vol="97" pan="0" len="24" pos="360"/>
        </pattern>
        <pattern muted="0" type="1" steps="16" name="" pos="768">
          <note key="52" vol="100" pan="0" len="24" pos="0"/>
          <note key="52" vol="51" pan="0" len="24" pos="24"/>
          <note key="52" vol="100" pan="0" len="24" pos="48"/>
          <note key="53" vol="97" pan="0" len="24" pos="72"/>
          <note key="55" vol="97" pan="0" len="24" pos="120"/>
          <note key="57" vol="97" pan="0" len="24" pos="168"/>
          <note key="52" vol="100" pan="0" len="24" pos="192"/>
          <note key="52" vol="51" pan="0" len="24" pos="216"/>
          <note key="52" vol="100" pan="0" len="24" pos="240"/>
          <note key="53" vol="97" pan="0" len="24" pos="264"/>
          <note key="51" vol="97" pan="0" len="24" pos="360"/>
        </pattern>
        <pattern muted="0" type="1" steps="16" name="" pos="1152">
          <note key="52" vol="100" pan="0" len="24" pos="0"/>
          <note key="52" vol="51" pan="0" len="24" pos="24"/>
          <note key="52" vol="100" pan="0" len="24" pos="48"/>
          <note key="53" vol="97" pan="0" len="24" pos="72"/>
          <note key="55" vol="97" pan="0" len="24" pos="120"/>
          <note key="57" vol="97" pan="0" len="24" pos="168"/>
          <note key="52" vol="100" pan="0" len="24" pos="192"/>
          <note key="52" vol="51" pan="0" len="24" pos="216"/>
          <note key="52" vol="100" pan="0" len="24" pos="240"/>
          <note key="53" vol="97" pan="0" len="24" pos="264"/>
          <note key="51" vol="97" pan="0" len="24" pos="360"/>
        </pattern>
        <pattern muted="0" type="1" steps="16" name="" pos="1536">
          <note key="52" vol="100" pan="0" len="24" pos="0"/>
          <note key="52" vol="51" pan="0" len="24" pos="24"/>
          <note key="52" vol="100" pan="0" len="24" pos="48"/>
          <note key="53" vol="97" pan="0" len="24" pos="72"/>
          <note key="55" vol="97" pan="0" len="24" pos="120"/>
          <note key="57" vol="97" pan="0" len="24" pos="168"/>
          <note key="52" vol="100" pan="0" len="24" pos="192"/>
          <note key="52" vol="51" pan="0" len="24" pos="216"/>
          <note key="52" vol="100" pan="0" len="24" pos="240"/>
          <note key="53" vol="97" pan="0" len="24" pos="264"/>
          <note key="51" vol="97" pan="0" len="24" pos="360"/>
        </pattern>
        <pattern muted="0" type="1" steps="16" name="" pos="1920">
          <note key="52" vol="100" pan="0" len="24" pos="0"/>
          <note key="52" vol="51" pan="0" len="24" pos="24"/>
          <note key="52" vol="100" pan="0" len="24" pos="48"/>
          <note key="53" vol="97" pan="0" len="24" pos="72"/>
          <note key="55" vol="97" pan="0" len="24" pos="120"/>
          <note key="57" vol="97" pan="0" len="24" pos="168"/>
          <note key="52" vol="100" pan="0" len="24" pos="192"/>
          <note key="52" vol="51" pan="0" len="24" pos="216"/>
          <note key="52" vol="100" pan="0" len="24" pos="240"/>
          <note key="53" vol="97" pan="0" len="24" pos="264"/>
          <note key="51" vol="97" pan="0" len="24" pos="360"/>
        </pattern>
        <pattern muted="0" type="1" steps="16" name="" pos="2304">
          <note key="52" vol="100" pan="0" len="24" pos="0"/>
          <note key="52" vol="51" pan="0" len="24" pos="24"/>
          <note key="52" vol="100" pan="0" len="24" pos="48"/>
          <note key="53" vol="97" pan="0" len="24" pos="72"/>
          <note key="55" vol="97" pan="0" len="24" pos="120"/>
          <note key="57" vol="97" pan="0" len="24" pos="168"/>
          <note key="52" vol="100" pan="0" len="24" pos="192"/>
          <note key="52" vol="51" pan="0" len="24" pos="216"/>
          <note key="52" vol="100" pan="0" len="24" pos="240"/>
          <note key="53" vol="97" pan="0" len="24" pos="264"/>
          <note key="51" vol="97" pan="0" len="24" pos="360"/>
        </pattern>
        <pattern muted="0" type="1" steps="16" name="" pos="2688">
          <note key="52" vol="100" pan="0" len="24" pos="0"/>
          <note key="52" vol="51" pan="0" len="24" pos="24"/>
          <note key="52" vol="100" pan="0" len="24" pos="48"/>
          <note key="53" vol="97" pan="0" len="24" pos="72"/>
          <note key="55" vol="97" pan="0" len="24" pos="120"/>
          <note key="57" vol="97" pan="0" len="24" pos="168"/>
          <note key="52" vol="100" pan="0" len="24" pos="192"/>
          <note key="52" vol="51" pan="0" len="24" pos="216"/>
          <note key="52" vol="100" pan="0" len="24" pos="240"/>
          <note key="53" vol="97" pan="0" len="24" pos="264"/>
          <note key="51" vol="97" pan="0" len="24" pos="360"/>
        </pattern>
      </track>
      <track muted="0" solo="0" type="0" name="hat.ogg">
        <instrumenttrack pitchrange="1" fxch="0" vol="56" usemasterpitch="1" pan="0" basenote="57" pitch="0">
          <instrument name="audiofileprocessor">
            <audiofileprocessor reversed="0" lframe="0" src="noteblock/hat.ogg" eframe="1" stutter="0" looped="0" amp="100" interp="1" sframe="0"/>
          </instrument>
          <eldata fcut="14000" fwet="0" fres="0.5" ftype="0">
            <elvol pdel="0" userwavefile="" lshp="0" lpdel="0" lspd="0.1" latt="0" lspd_denominator="4" lamt="0" rel="0.652" sustain="0.5" lspd_syncmode="0" dec="0.5" lspd_numerator="4" att="0" ctlenvamt="0" hold="0.5" amt="1" x100="0"/>
            <elcut pdel="0" userwavefile="" lshp="0" lpdel="0" lspd="0.1" latt="0" lspd_denominator="4" lamt="0" rel="0.1" sustain="0.5" lspd_syncmode="0" dec="0.5" lspd_numerator="4" att="0" ctlenvamt="0" hold="0.5" amt="0" x100="0"/>
            <elres pdel="0" userwavefile="" lshp="0" lpdel="0" lspd="0.1" latt="0" lspd_denominator="4" lamt="0" rel="0.1" sustain="0.5" lspd_syncmode="0" dec="0.5" lspd_numerator="4" att="0" ctlenvamt="0" hold="0.5" amt="0" x100="0"/>
          </eldata>
          <chordcreator chordrange="1" chord="0" chord-enabled="0"/>
          <arpeggiator arprange="1" arpskip="0" arpmiss="0" arpmode="0" arptime_syncmode="0" arp="0" arptime_denominator="4" arp-enabled="0" arpdir="0" arptime_numerator="4" arptime="200" arpcycle="0" arpgate="100"/>
          <midiport outputprogram="1" fixedinputvelocity="-1" outputchannel="1" readable="0" inputcontroller="0" fixedoutputvelocity="-1" inputchannel="0" outputcontroller="0" fixedoutputnote="-1" basevelocity="63" writable="0"/>
          <fxchain numofeffects="0" enabled="0"/>
        </instrumenttrack>
        <pattern muted="0" type="1" steps="16" name="hat.ogg" pos="0">
          <note key="57" vol="97" pan="0" len="24" pos="96"/>
          <note key="57" vol="97" pan="0" len="24" pos="288"/>
        </pattern>
        <pattern muted="0" type="1" steps="16" name="hat.ogg" pos="384">
          <note key="57" vol="97" pan="0" len="24" pos="96"/>
          <note key="57" vol="97" pan="0" len="24" pos="288"/>
        </pattern>
        <pattern muted="0" type="1" steps="16" name="hat.ogg" pos="768">
          <note key="57" vol="97" pan="0" len="24" pos="96"/>
          <note key="57" vol="97" pan="0" len="24" pos="288"/>
        </pattern>
        <pattern muted="0" type="1" steps="16" name="hat.ogg" pos="1152">
          <note key="57" vol="97" pan="0" len="24" pos="96"/>
          <note key="57" vol="97" pan="0" len="24" pos="288"/>
        </pattern>
        <pattern muted="0" type="1" steps="16" name="hat.ogg" pos="1536">
          <note key="57" vol="97" pan="0" len="24" pos="96"/>
          <note key="57" vol="97" pan="0" len="24" pos="288"/>
        </pattern>
        <pattern muted="0" type="1" steps="16" name="hat.ogg" pos="1920">
          <note key="57" vol="97" pan="0" len="24" pos="96"/>
          <note key="57" vol="97" pan="0" len="24" pos="288"/>
        </pattern>
        <pattern muted="0" type="1" steps="16" name="hat.ogg" pos="2304">
          <note key="57" vol="97" pan="0" len="24" pos="96"/>
          <note key="57" vol="97" pan="0" len="24" pos="288"/>
        </pattern>
        <pattern muted="0" type="1" steps="16" name="hat.ogg" pos="2688">
          <note key="57" vol="97" pan="0" len="24" pos="96"/>
          <note key="57" vol="97" pan="0" len="24" pos="288"/>
        </pattern>
        <pattern muted="0" type="1" steps="16" name="" pos="3072">
          <note key="57" vol="97" pan="0" len="24" pos="96"/>
          <note key="57" vol="97" pan="0" len="24" pos="288"/>
        </pattern>
        <pattern muted="0" type="1" steps="16" name="" pos="3456">
          <note key="57" vol="97" pan="0" len="24" pos="96"/>
          <note key="57" vol="97" pan="0" len="24" pos="288"/>
        </pattern>
        <pattern muted="0" type="1" steps="16" name="" pos="3840">
          <note key="57" vol="97" pan="0" len="24" pos="96"/>
          <note key="57" vol="97" pan="0" len="24" pos="288"/>
        </pattern>
        <pattern muted="0" type="1" steps="16" name="" pos="4224">
          <note key="57" vol="97" pan="0" len="24" pos="96"/>
          <note key="57" vol="97" pan="0" len="24" pos="288"/>
        </pattern>
      </track>
      <track muted="0" solo="0" type="0" name="bd.ogg">
        <instrumenttrack pitchrange="1" fxch="0" vol="32" usemasterpitch="1" pan="0" basenote="57" pitch="0">
          <instrument name="audiofileprocessor">
            <audiofileprocessor reversed="0" lframe="0" src="noteblock/bd.ogg" eframe="1" stutter="0" looped="0" amp="100" interp="1" sframe="0"/>
          </instrument>
          <eldata fcut="14000" fwet="0" fres="0.5" ftype="0">
            <elvol pdel="0" userwavefile="" lshp="0" lpdel="0" lspd="0.1" latt="0" lspd_denominator="4" lamt="0" rel="1.308" sustain="0.5" lspd_syncmode="0" dec="0.5" lspd_numerator="4" att="0" ctlenvamt="0" hold="0.5" amt="1" x100="0"/>
            <elcut pdel="0" userwavefile="" lshp="0" lpdel="0" lspd="0.1" latt="0" lspd_denominator="4" lamt="0" rel="0.1" sustain="0.5" lspd_syncmode="0" dec="0.5" lspd_numerator="4" att="0" ctlenvamt="0" hold="0.5" amt="0" x100="0"/>
            <elres pdel="0" userwavefile="" lshp="0" lpdel="0" lspd="0.1" latt="0" lspd_denominator="4" lamt="0" rel="0.1" sustain="0.5" lspd_syncmode="0" dec="0.5" lspd_numerator="4" att="0" ctlenvamt="0" hold="0.5" amt="0" x100="0"/>
          </eldata>
          <chordcreator chordrange="1" chord="0" chord-enabled="0"/>
          <arpeggiator arprange="1" arpskip="0" arpmiss="0" arpmode="0" arptime_syncmode="0" arp="0" arptime_denominator="4" arp-enabled="0" arpdir="0" arptime_numerator="4" arptime="200" arpcycle="0" arpgate="100"/>
          <midiport outputprogram="1" fixedinputvelocity="-1" outputchannel="1" readable="0" inputcontroller="0" fixedoutputvelocity="-1" inputchannel="0" outputcontroller="0" fixedoutputnote="-1" basevelocity="63" writable="0"/>
          <fxchain numofeffects="0" enabled="0"/>
        </instrumenttrack>
        <pattern muted="0" type="1" steps="16" name="bd.ogg" pos="0">
          <note key="57" vol="97" pan="0" len="24" pos="0"/>
          <note key="57" vol="97" pan="0" len="24" pos="72"/>
          <note key="57" vol="97" pan="0" len="24" pos="168"/>
          <note key="57" vol="97" pan="0" len="24" pos="192"/>
          <note key="57" vol="97" pan="0" len="24" pos="264"/>
        </pattern>
        <pattern muted="0" type="1" steps="16" name="bd.ogg" pos="384">
          <note key="57" vol="97" pan="0" len="24" pos="0"/>
          <note key="57" vol="97" pan="0" len="24" pos="72"/>
          <note key="57" vol="97" pan="0" len="24" pos="168"/>
          <note key="57" vol="97" pan="0" len="24" pos="192"/>
          <note key="57" vol="97" pan="0" len="24" pos="264"/>
        </pattern>
        <pattern muted="0" type="1" steps="16" name="bd.ogg" pos="768">
          <note key="57" vol="97" pan="0" len="24" pos="0"/>
          <note key="57" vol="97" pan="0" len="24" pos="72"/>
          <note key="57" vol="97" pan="0" len="24" pos="168"/>
          <note key="57" vol="97" pan="0" len="24" pos="192"/>
          <note key="57" vol="97" pan="0" len="24" pos="264"/>
        </pattern>
        <pattern muted="0" type="1" steps="16" name="bd.ogg" pos="1152">
          <note key="57" vol="97" pan="0" len="24" pos="0"/>
          <note key="57" vol="97" pan="0" len="24" pos="72"/>
          <note key="57" vol="97" pan="0" len="24" pos="168"/>
          <note key="57" vol="97" pan="0" len="24" pos="192"/>
          <note key="57" vol="97" pan="0" len="24" pos="264"/>
        </pattern>
        <pattern muted="0" type="1" steps="16" name="bd.ogg" pos="1536">
          <note key="57" vol="97" pan="0" len="24" pos="0"/>
          <note key="57" vol="97" pan="0" len="24" pos="72"/>
          <note key="57" vol="97" pan="0" len="24" pos="168"/>
          <note key="57" vol="97" pan="0" len="24" pos="192"/>
          <note key="57" vol="97" pan="0" len="24" pos="264"/>
        </pattern>
        <pattern muted="0" type="1" steps="16" name="bd.ogg" pos="1920">
          <note key="57" vol="97" pan="0" len="24" pos="0"/>
          <note key="57" vol="97" pan="0" len="24" pos="72"/>
          <note key="57" vol="97" pan="0" len="24" pos="168"/>
          <note key="57" vol="97" pan="0" len="24" pos="192"/>
          <note key="57" vol="97" pan="0" len="24" pos="264"/>
        </pattern>
        <pattern muted="0" type="1" steps="16" name="bd.ogg" pos="2304">
          <note key="57" vol="97" pan="0" len="24" pos="0"/>
          <note key="57" vol="97" pan="0" len="24" pos="72"/>
          <note key="57" vol="97" pan="0" len="24" pos="168"/>
          <note key="57" vol="97" pan="0" len="24" pos="192"/>
          <note key="57" vol="97" pan="0" len="24" pos="264"/>
        </pattern>
        <pattern muted="0" type="1" steps="16" name="bd.ogg" pos="2688">
          <note key="57" vol="97" pan="0" len="24" pos="0"/>
          <note key="57" vol="97" pan="0" len="24" pos="72"/>
          <note key="57" vol="97" pan="0" len="24" pos="168"/>
          <note key="57" vol="97" pan="0" len="24" pos="192"/>
          <note key="57" vol="97" pan="0" len="24" pos="264"/>
        </pattern>
        <pattern muted="0" type="1" steps="16" name="" pos="3072">
          <note key="57" vol="97" pan="0" len="24" pos="0"/>
          <note key="57" vol="97" pan="0" len="24" pos="72"/>
          <note key="57" vol="97" pan="0" len="24" pos="168"/>
          <note key="57" vol="97" pan="0" len="24" pos="192"/>
          <note key="57" vol="97" pan="0" len="24" pos="264"/>
        </pattern>
        <pattern muted="0" type="1" steps="16" name="" pos="3456">
          <note key="57" vol="97" pan="0" len="24" pos="0"/>
          <note key="57" vol="97" pan="0" len="24" pos="72"/>
          <note key="57" vol="97" pan="0" len="24" pos="168"/>
          <note key="57" vol="97" pan="0" len="24" pos="192"/>
          <note key="57" vol="97" pan="0" len="24" pos="264"/>
        </pattern>
        <pattern muted="0" type="1" steps="16" name="" pos="3840">
          <note key="57" vol="97" pan="0" len="24" pos="0"/>
          <note key="57" vol="97" pan="0" len="24" pos="72"/>
          <note key="57" vol="97" pan="0" len="24" pos="168"/>
          <note key="57" vol="97" pan="0" len="24" pos="192"/>
          <note key="57" vol="97" pan="0" len="24" pos="264"/>
        </pattern>
        <pattern muted="0" type="1" steps="16" name="" pos="4224">
          <note key="57" vol="97" pan="0" len="24" pos="0"/>
          <note key="57" vol="97" pan="0" len="24" pos="72"/>
          <note key="57" vol="97" pan="0" len="24" pos="168"/>
          <note key="57" vol="97" pan="0" len="24" pos="192"/>
          <note key="57" vol="97" pan="0" len="24" pos="264"/>
        </pattern>
      </track>
      <track muted="0" solo="0" type="0" name="pling.ogg">
        <instrumenttrack pitchrange="1" fxch="0" vol="100" usemasterpitch="1" pan="0" basenote="57" pitch="0">
          <instrument name="audiofileprocessor">
            <audiofileprocessor reversed="0" lframe="0" src="noteblock/pling.ogg" eframe="1" stutter="0" looped="0" amp="100" interp="1" sframe="0"/>
          </instrument>
          <eldata fcut="14000" fwet="0" fres="0.5" ftype="0">
            <elvol pdel="0" userwavefile="" lshp="0" lpdel="0" lspd="0.1" latt="0" lspd_denominator="4" lamt="0" rel="0.1" sustain="0.5" lspd_syncmode="0" dec="0.5" lspd_numerator="4" att="0" ctlenvamt="0" hold="0.5" amt="0" x100="0"/>
            <elcut pdel="0" userwavefile="" lshp="0" lpdel="0" lspd="0.1" latt="0" lspd_denominator="4" lamt="0" rel="0.1" sustain="0.5" lspd_syncmode="0" dec="0.5" lspd_numerator="4" att="0" ctlenvamt="0" hold="0.5" amt="0" x100="0"/>
            <elres pdel="0" userwavefile="" lshp="0" lpdel="0" lspd="0.1" latt="0" lspd_denominator="4" lamt="0" rel="0.1" sustain="0.5" lspd_syncmode="0" dec="0.5" lspd_numerator="4" att="0" ctlenvamt="0" hold="0.5" amt="0" x100="0"/>
          </eldata>
          <chordcreator chordrange="1" chord="0" chord-enabled="0"/>
          <arpeggiator arprange="1" arpskip="0" arpmiss="0" arpmode="0" arptime_syncmode="0" arp="0" arptime_denominator="4" arp-enabled="0" arpdir="0" arptime_numerator="4" arptime="200" arpcycle="0" arpgate="100"/>
          <midiport outputprogram="1" fixedinputvelocity="-1" outputchannel="1" readable="0" inputcontroller="0" fixedoutputvelocity="-1" inputchannel="0" outputcontroller="0" fixedoutputnote="-1" basevelocity="63" writable="0"/>
          <fxchain numofeffects="0" enabled="0"/>
        </instrumenttrack>
      </track>
      <track muted="0" solo="0" type="0" name="snare.ogg">
        <instrumenttrack pitchrange="1" fxch="0" vol="100" usemasterpitch="1" pan="0" basenote="57" pitch="0">
          <instrument name="audiofileprocessor">
            <audiofileprocessor reversed="0" lframe="0" src="noteblock/snare.ogg" eframe="1" stutter="0" looped="0" amp="100" interp="1" sframe="0"/>
          </instrument>
          <eldata fcut="14000" fwet="0" fres="0.5" ftype="0">
            <elvol pdel="0" userwavefile="" lshp="0" lpdel="0" lspd="0.1" latt="0" lspd_denominator="4" lamt="0" rel="1.332" sustain="0.5" lspd_syncmode="0" dec="0.5" lspd_numerator="4" att="0" ctlenvamt="0" hold="0.5" amt="1" x100="0"/>
            <elcut pdel="0" userwavefile="" lshp="0" lpdel="0" lspd="0.1" latt="0" lspd_denominator="4" lamt="0" rel="0.1" sustain="0.5" lspd_syncmode="0" dec="0.5" lspd_numerator="4" att="0" ctlenvamt="0" hold="0.5" amt="0" x100="0"/>
            <elres pdel="0" userwavefile="" lshp="0" lpdel="0" lspd="0.1" latt="0" lspd_denominator="4" lamt="0" rel="0.1" sustain="0.5" lspd_syncmode="0" dec="0.5" lspd_numerator="4" att="0" ctlenvamt="0" hold="0.5" amt="0" x100="0"/>
          </eldata>
          <chordcreator chordrange="1" chord="0" chord-enabled="0"/>
          <arpeggiator arprange="1" arpskip="0" arpmiss="0" arpmode="0" arptime_syncmode="0" arp="0" arptime_denominator="4" arp-enabled="0" arpdir="0" arptime_numerator="4" arptime="200" arpcycle="0" arpgate="100"/>
          <midiport outputprogram="1" fixedinputvelocity="-1" outputchannel="1" readable="0" inputcontroller="0" fixedoutputvelocity="-1" inputchannel="0" outputcontroller="0" fixedoutputnote="-1" basevelocity="63" writable="0"/>
          <fxchain numofeffects="0" enabled="0"/>
        </instrumenttrack>
        <pattern muted="0" type="1" steps="16" name="snare.ogg" pos="1536">
          <note key="57" vol="97" pan="0" len="24" pos="96"/>
          <note key="57" vol="97" pan="0" len="24" pos="288"/>
          <note key="57" vol="46" pan="0" len="12" pos="360"/>
          <note key="57" vol="95" pan="0" len="12" pos="372"/>
        </pattern>
        <pattern muted="0" type="1" steps="16" name="snare.ogg" pos="1920">
          <note key="57" vol="97" pan="0" len="24" pos="96"/>
          <note key="57" vol="97" pan="0" len="24" pos="288"/>
          <note key="57" vol="46" pan="0" len="12" pos="360"/>
          <note key="57" vol="95" pan="0" len="12" pos="372"/>
        </pattern>
        <pattern muted="0" type="1" steps="16" name="snare.ogg" pos="2304">
          <note key="57" vol="97" pan="0" len="24" pos="96"/>
          <note key="57" vol="97" pan="0" len="24" pos="288"/>
          <note key="57" vol="46" pan="0" len="12" pos="360"/>
          <note key="57" vol="95" pan="0" len="12" pos="372"/>
        </pattern>
        <pattern muted="0" type="1" steps="16" name="snare.ogg" pos="2688">
          <note key="57" vol="97" pan="0" len="24" pos="96"/>
          <note key="57" vol="97" pan="0" len="24" pos="288"/>
          <note key="57" vol="46" pan="0" len="12" pos="360"/>
          <note key="57" vol="95" pan="0" len="12" pos="372"/>
        </pattern>
        <pattern muted="0" type="1" steps="16" name="" pos="3072">
          <note key="57" vol="97" pan="0" len="24" pos="96"/>
          <note key="57" vol="97" pan="0" len="24" pos="288"/>
          <note key="57" vol="46" pan="0" len="12" pos="360"/>
          <note key="57" vol="95" pan="0" len="12" pos="372"/>
        </pattern>
        <pattern muted="0" type="1" steps="16" name="" pos="3456">
          <note key="57" vol="97" pan="0" len="24" pos="96"/>
          <note key="57" vol="97" pan="0" len="24" pos="288"/>
          <note key="57" vol="46" pan="0" len="12" pos="360"/>
          <note key="57" vol="95" pan="0" len="12" pos="372"/>
        </pattern>
        <pattern muted="0" type="1" steps="16" name="" pos="3840">
          <note key="57" vol="97" pan="0" len="24" pos="96"/>
          <note key="57" vol="97" pan="0" len="24" pos="288"/>
          <note key="57" vol="46" pan="0" len="12" pos="360"/>
          <note key="57" vol="95" pan="0" len="12" pos="372"/>
        </pattern>
        <pattern muted="0" type="1" steps="16" name="" pos="4224">
          <note key="57" vol="97" pan="0" len="24" pos="96"/>
          <note key="57" vol="97" pan="0" len="24" pos="288"/>
          <note key="57" vol="46" pan="0" len="12" pos="360"/>
          <note key="57" vol="95" pan="0" len="12" pos="372"/>
        </pattern>
      </track>
      <track muted="0" solo="0" type="0" name="cow_bell.ogg">
        <instrumenttrack pitchrange="1" fxch="0" vol="52.8" usemasterpitch="1" pan="0" basenote="57" pitch="0">
          <instrument name="audiofileprocessor">
            <audiofileprocessor reversed="0" lframe="0" src="noteblock/cow_bell.ogg" eframe="1" stutter="0" looped="0" amp="100" interp="1" sframe="0"/>
          </instrument>
          <eldata fcut="14000" fwet="0" fres="0.5" ftype="0">
            <elvol pdel="0" userwavefile="" lshp="0" lpdel="0" lspd="0.1" latt="0" lspd_denominator="4" lamt="0" rel="1.492" sustain="0.5" lspd_syncmode="0" dec="0.5" lspd_numerator="4" att="0" ctlenvamt="0" hold="0.5" amt="1" x100="0"/>
            <elcut pdel="0" userwavefile="" lshp="0" lpdel="0" lspd="0.1" latt="0" lspd_denominator="4" lamt="0" rel="0.1" sustain="0.5" lspd_syncmode="0" dec="0.5" lspd_numerator="4" att="0" ctlenvamt="0" hold="0.5" amt="0" x100="0"/>
            <elres pdel="0" userwavefile="" lshp="0" lpdel="0" lspd="0.1" latt="0" lspd_denominator="4" lamt="0" rel="0.1" sustain="0.5" lspd_syncmode="0" dec="0.5" lspd_numerator="4" att="0" ctlenvamt="0" hold="0.5" amt="0" x100="0"/>
          </eldata>
          <chordcreator chordrange="1" chord="0" chord-enabled="0"/>
          <arpeggiator arprange="1" arpskip="0" arpmiss="0" arpmode="0" arptime_syncmode="0" arp="0" arptime_denominator="4" arp-enabled="0" arpdir="0" arptime_numerator="4" arptime="200" arpcycle="0" arpgate="100"/>
          <midiport outputprogram="1" fixedinputvelocity="-1" outputchannel="1" readable="0" inputcontroller="0" fixedoutputvelocity="-1" inputchannel="0" outputcontroller="0" fixedoutputnote="-1" basevelocity="63" writable="0"/>
          <fxchain numofeffects="0" enabled="0"/>
        </instrumenttrack>
        <pattern muted="0" type="1" steps="16" name="cow_bell.ogg" pos="1536">
          <note key="33" vol="91" pan="0" len="24" pos="0"/>
          <note key="28" vol="91" pan="0" len="24" pos="24"/>
          <note key="31" vol="91" pan="0" len="24" pos="48"/>
          <note key="36" vol="91" pan="0" len="24" pos="72"/>
          <note key="36" vol="91" pan="0" len="24" pos="96"/>
          <note key="36" vol="51" pan="0" len="24" pos="120"/>
          <note key="36" vol="27" pan="0" len="24" pos="144"/>
          <note key="36" vol="21" pan="0" len="24" pos="168"/>
          <note key="38" vol="91" pan="0" len="24" pos="192"/>
          <note key="35" vol="91" pan="0" len="24" pos="216"/>
          <note key="38" vol="102" pan="0" len="24" pos="240"/>
          <note key="40" vol="114" pan="0" len="24" pos="264"/>
          <note key="40" vol="63" pan="0" len="24" pos="288"/>
          <note key="40" vol="59" pan="0" len="24" pos="312"/>
          <note key="40" vol="21" pan="0" len="24" pos="336"/>
          <note key="40" vol="21" pan="0" len="24" pos="360"/>
        </pattern>
        <pattern muted="0" type="1" steps="16" name="" pos="1920">
          <note key="43" vol="91" pan="0" len="24" pos="0"/>
          <note key="41" vol="91" pan="0" len="24" pos="24"/>
          <note key="40" vol="91" pan="0" len="24" pos="48"/>
          <note key="36" vol="91" pan="0" len="24" pos="72"/>
          <note key="36" vol="91" pan="0" len="24" pos="96"/>
          <note key="36" vol="51" pan="0" len="24" pos="120"/>
          <note key="36" vol="27" pan="0" len="24" pos="144"/>
          <note key="36" vol="21" pan="0" len="24" pos="168"/>
          <note key="38" vol="91" pan="0" len="24" pos="192"/>
          <note key="35" vol="91" pan="0" len="24" pos="216"/>
          <note key="41" vol="102" pan="0" len="24" pos="240"/>
          <note key="40" vol="114" pan="0" len="24" pos="264"/>
          <note key="40" vol="63" pan="0" len="24" pos="288"/>
          <note key="40" vol="59" pan="0" len="24" pos="312"/>
          <note key="40" vol="21" pan="0" len="24" pos="336"/>
          <note key="40" vol="21" pan="0" len="24" pos="360"/>
        </pattern>
        <pattern muted="0" type="1" steps="16" name="" pos="2304">
          <note key="33" vol="91" pan="0" len="24" pos="0"/>
          <note key="28" vol="91" pan="0" len="24" pos="24"/>
          <note key="31" vol="91" pan="0" len="24" pos="48"/>
          <note key="36" vol="91" pan="0" len="24" pos="72"/>
          <note key="36" vol="91" pan="0" len="24" pos="96"/>
          <note key="36" vol="51" pan="0" len="24" pos="120"/>
          <note key="36" vol="27" pan="0" len="24" pos="144"/>
          <note key="36" vol="21" pan="0" len="24" pos="168"/>
          <note key="38" vol="91" pan="0" len="24" pos="192"/>
          <note key="35" vol="91" pan="0" len="24" pos="216"/>
          <note key="38" vol="102" pan="0" len="24" pos="240"/>
          <note key="40" vol="114" pan="0" len="24" pos="264"/>
          <note key="40" vol="63" pan="0" len="24" pos="288"/>
          <note key="40" vol="59" pan="0" len="24" pos="312"/>
          <note key="40" vol="21" pan="0" len="24" pos="336"/>
          <note key="40" vol="21" pan="0" len="24" pos="360"/>
        </pattern>
        <pattern muted="0" type="1" steps="16" name="" pos="2688">
          <note key="43" vol="91" pan="0" len="24" pos="0"/>
          <note key="41" vol="91" pan="0" len="24" pos="24"/>
          <note key="40" vol="91" pan="0" len="24" pos="48"/>
          <note key="36" vol="91" pan="0" len="24" pos="72"/>
          <note key="36" vol="91" pan="0" len="24" pos="96"/>
          <note key="36" vol="51" pan="0" len="24" pos="120"/>
          <note key="36" vol="27" pan="0" len="24" pos="144"/>
          <note key="36" vol="21" pan="0" len="24" pos="168"/>
          <note key="38" vol="91" pan="0" len="24" pos="192"/>
          <note key="35" vol="91" pan="0" len="24" pos="216"/>
          <note key="41" vol="102" pan="0" len="24" pos="240"/>
          <note key="40" vol="114" pan="0" len="24" pos="264"/>
          <note key="40" vol="63" pan="0" len="24" pos="288"/>
          <note key="40" vol="59" pan="0" len="24" pos="312"/>
          <note key="40" vol="21" pan="0" len="24" pos="336"/>
          <note key="40" vol="21" pan="0" len="24" pos="360"/>
        </pattern>
      </track>
      <track muted="0" solo="0" type="0" name="guitar.ogg">
        <instrumenttrack pitchrange="1" fxch="0" vol="100" usemasterpitch="1" pan="0" basenote="57" pitch="0">
          <instrument name="audiofileprocessor">
            <audiofileprocessor reversed="0" lframe="0" src="noteblock/guitar.ogg" eframe="1" stutter="0" looped="0" amp="100" interp="1" sframe="0"/>
          </instrument>
          <eldata fcut="14000" fwet="0" fres="0.5" ftype="0">
            <elvol pdel="0" userwavefile="" lshp="0" lpdel="0" lspd="0.1" latt="0" lspd_denominator="4" lamt="0.075" rel="1.308" sustain="0.5" lspd_syncmode="0" dec="0.5" lspd_numerator="4" att="0" ctlenvamt="0" hold="0.5" amt="0.88" x100="0"/>
            <elcut pdel="0" userwavefile="" lshp="0" lpdel="0" lspd="0.1" latt="0" lspd_denominator="4" lamt="0" rel="0.1" sustain="0.5" lspd_syncmode="0" dec="0.5" lspd_numerator="4" att="0" ctlenvamt="0" hold="0.5" amt="0" x100="0"/>
            <elres pdel="0" userwavefile="" lshp="0" lpdel="0" lspd="0.1" latt="0" lspd_denominator="4" lamt="0" rel="0.1" sustain="0.5" lspd_syncmode="0" dec="0.5" lspd_numerator="4" att="0" ctlenvamt="0" hold="0.5" amt="0" x100="0"/>
          </eldata>
          <chordcreator chordrange="1" chord="0" chord-enabled="0"/>
          <arpeggiator arprange="1" arpskip="0" arpmiss="0" arpmode="0" arptime_syncmode="0" arp="0" arptime_denominator="4" arp-enabled="0" arpdir="0" arptime_numerator="4" arptime="200" arpcycle="0" arpgate="100"/>
          <midiport outputprogram="1" fixedinputvelocity="-1" outputchannel="1" readable="0" inputcontroller="0" fixedoutputvelocity="-1" inputchannel="0" outputcontroller="0" fixedoutputnote="-1" basevelocity="63" writable="0"/>
          <fxchain numofeffects="0" enabled="0"/>
        </instrumenttrack>
        <pattern muted="0" type="1" steps="16" name="" pos="3072">
          <note key="62" vol="114" pan="0" len="72" pos="0"/>
          <note key="57" vol="114" pan="0" len="72" pos="0"/>
          <note key="52" vol="114" pan="0" len="72" pos="0"/>
          <note key="62" vol="114" pan="0" len="72" pos="72"/>
          <note key="57" vol="114" pan="0" len="72" pos="72"/>
          <note key="50" vol="114" pan="0" len="72" pos="72"/>
          <note key="59" vol="114" pan="0" len="72" pos="192"/>
          <note key="55" vol="114" pan="0" len="72" pos="192"/>
          <note key="50" vol="114" pan="0" len="72" pos="192"/>
          <note key="60" vol="114" pan="0" len="72" pos="264"/>
          <note key="55" vol="114" pan="0" len="72" pos="264"/>
          <note key="48" vol="114" pan="0" len="72" pos="264"/>
          <note key="59" vol="114" pan="0" len="72" pos="384"/>
          <note key="50" vol="114" pan="0" len="72" pos="384"/>
          <note key="55" vol="114" pan="0" len="72" pos="456"/>
          <note key="48" vol="114" pan="0" len="72" pos="456"/>
          <note key="57" vol="114" pan="0" len="72" pos="576"/>
          <note key="52" vol="114" pan="0" len="72" pos="576"/>
          <note key="60" vol="114" pan="0" len="72" pos="648"/>
          <note key="55" vol="114" pan="0" len="72" pos="648"/>
          <note key="48" vol="114" pan="0" len="72" pos="648"/>
        </pattern>
        <pattern muted="0" type="1" steps="16" name="" pos="3840">
          <note key="62" vol="114" pan="0" len="72" pos="0"/>
          <note key="57" vol="114" pan="0" len="72" pos="0"/>
          <note key="52" vol="114" pan="0" len="72" pos="0"/>
          <note key="62" vol="114" pan="0" len="72" pos="72"/>
          <note key="57" vol="114" pan="0" len="72" pos="72"/>
          <note key="50" vol="114" pan="0" len="72" pos="72"/>
          <note key="59" vol="114" pan="0" len="72" pos="192"/>
          <note key="55" vol="114" pan="0" len="72" pos="192"/>
          <note key="50" vol="114" pan="0" len="72" pos="192"/>
          <note key="60" vol="114" pan="0" len="72" pos="264"/>
          <note key="55" vol="114" pan="0" len="72" pos="264"/>
          <note key="48" vol="114" pan="0" len="72" pos="264"/>
          <note key="59" vol="114" pan="0" len="72" pos="384"/>
          <note key="50" vol="114" pan="0" len="72" pos="384"/>
          <note key="55" vol="114" pan="0" len="72" pos="456"/>
          <note key="48" vol="114" pan="0" len="72" pos="456"/>
          <note key="57" vol="114" pan="0" len="72" pos="576"/>
          <note key="52" vol="114" pan="0" len="72" pos="576"/>
          <note key="60" vol="114" pan="0" len="72" pos="648"/>
          <note key="55" vol="114" pan="0" len="72" pos="648"/>
          <note key="48" vol="114" pan="0" len="72" pos="648"/>
        </pattern>
      </track>
      <track muted="0" solo="0" type="0" name="pling.ogg">
        <instrumenttrack pitchrange="1" fxch="0" vol="35.2" usemasterpitch="1" pan="0" basenote="57" pitch="0">
          <instrument name="audiofileprocessor">
            <audiofileprocessor reversed="0" lframe="0" src="noteblock/pling.ogg" eframe="1" stutter="0" looped="0" amp="76" interp="1" sframe="0"/>
          </instrument>
          <eldata fcut="14000" fwet="0" fres="0.5" ftype="0">
            <elvol pdel="0" userwavefile="" lshp="0" lpdel="0" lspd="0.1" latt="0" lspd_denominator="4" lamt="0" rel="1.292" sustain="0.5" lspd_syncmode="0" dec="0.5" lspd_numerator="4" att="0" ctlenvamt="0" hold="0.5" amt="1" x100="0"/>
            <elcut pdel="0" userwavefile="" lshp="0" lpdel="0" lspd="0.1" latt="0" lspd_denominator="4" lamt="0" rel="0.1" sustain="0.5" lspd_syncmode="0" dec="0.5" lspd_numerator="4" att="0" ctlenvamt="0" hold="0.5" amt="0" x100="0"/>
            <elres pdel="0" userwavefile="" lshp="0" lpdel="0" lspd="0.1" latt="0" lspd_denominator="4" lamt="0" rel="0.1" sustain="0.5" lspd_syncmode="0" dec="0.5" lspd_numerator="4" att="0" ctlenvamt="0" hold="0.5" amt="0" x100="0"/>
          </eldata>
          <chordcreator chordrange="1" chord="0" chord-enabled="0"/>
          <arpeggiator arprange="1" arpskip="0" arpmiss="0" arpmode="0" arptime_syncmode="0" arp="0" arptime_denominator="4" arp-enabled="0" arpdir="0" arptime_numerator="4" arptime="200" arpcycle="0" arpgate="100"/>
          <midiport outputprogram="1" fixedinputvelocity="-1" outputchannel="1" readable="0" inputcontroller="0" fixedoutputvelocity="-1" inputchannel="0" outputcontroller="0" fixedoutputnote="-1" basevelocity="63" writable="0"/>
          <fxchain numofeffects="0" enabled="0"/>
        </instrumenttrack>
        <pattern muted="0" type="1" steps="16" name="pling.ogg" pos="1536">
          <note key="62" vol="114" pan="0" len="72" pos="0"/>
          <note key="57" vol="114" pan="0" len="72" pos="0"/>
          <note key="52" vol="114" pan="0" len="72" pos="0"/>
          <note key="62" vol="114" pan="0" len="72" pos="72"/>
          <note key="57" vol="114" pan="0" len="72" pos="72"/>
          <note key="50" vol="114" pan="0" len="72" pos="72"/>
          <note key="59" vol="114" pan="0" len="72" pos="192"/>
          <note key="55" vol="114" pan="0" len="72" pos="192"/>
          <note key="50" vol="114" pan="0" len="72" pos="192"/>
          <note key="60" vol="114" pan="0" len="72" pos="264"/>
          <note key="55" vol="114" pan="0" len="72" pos="264"/>
          <note key="48" vol="114" pan="0" len="72" pos="264"/>
          <note key="59" vol="114" pan="0" len="72" pos="384"/>
          <note key="50" vol="114" pan="0" len="72" pos="384"/>
          <note key="55" vol="114" pan="0" len="72" pos="456"/>
          <note key="48" vol="114" pan="0" len="72" pos="456"/>
          <note key="57" vol="114" pan="0" len="72" pos="576"/>
          <note key="52" vol="114" pan="0" len="72" pos="576"/>
          <note key="60" vol="114" pan="0" len="72" pos="648"/>
          <note key="55" vol="114" pan="0" len="72" pos="648"/>
          <note key="48" vol="114" pan="0" len="72" pos="648"/>
        </pattern>
        <pattern muted="0" type="1" steps="16" name="" pos="2304">
          <note key="62" vol="114" pan="0" len="72" pos="0"/>
          <note key="57" vol="114" pan="0" len="72" pos="0"/>
          <note key="52" vol="114" pan="0" len="72" pos="0"/>
          <note key="62" vol="114" pan="0" len="72" pos="72"/>
          <note key="57" vol="114" pan="0" len="72" pos="72"/>
          <note key="50" vol="114" pan="0" len="72" pos="72"/>
          <note key="59" vol="114" pan="0" len="72" pos="192"/>
          <note key="55" vol="114" pan="0" len="72" pos="192"/>
          <note key="50" vol="114" pan="0" len="72" pos="192"/>
          <note key="60" vol="114" pan="0" len="72" pos="264"/>
          <note key="55" vol="114" pan="0" len="72" pos="264"/>
          <note key="48" vol="114" pan="0" len="72" pos="264"/>
          <note key="59" vol="114" pan="0" len="72" pos="384"/>
          <note key="50" vol="114" pan="0" len="72" pos="384"/>
          <note key="55" vol="114" pan="0" len="72" pos="456"/>
          <note key="48" vol="114" pan="0" len="72" pos="456"/>
          <note key="57" vol="114" pan="0" len="72" pos="576"/>
          <note key="52" vol="114" pan="0" len="72" pos="576"/>
          <note key="60" vol="114" pan="0" len="72" pos="648"/>
          <note key="55" vol="114" pan="0" len="72" pos="648"/>
          <note key="48" vol="114" pan="0" len="72" pos="648"/>
        </pattern>
        <pattern muted="0" type="1" steps="16" name="" pos="3072">
          <note key="59" vol="114" pan="0" len="24" pos="0"/>
          <note key="59" vol="57" pan="0" len="24" pos="24"/>
          <note key="59" vol="65" pan="0" len="24" pos="48"/>
          <note key="59" vol="57" pan="0" len="24" pos="72"/>
          <note key="59" vol="114" pan="0" len="24" pos="96"/>
          <note key="59" vol="57" pan="0" len="24" pos="120"/>
          <note key="59" vol="65" pan="0" len="24" pos="144"/>
          <note key="59" vol="57" pan="0" len="24" pos="168"/>
          <note key="60" vol="114" pan="0" len="24" pos="192"/>
          <note key="60" vol="57" pan="0" len="24" pos="216"/>
          <note key="60" vol="65" pan="0" len="24" pos="240"/>
          <note key="60" vol="57" pan="0" len="24" pos="264"/>
          <note key="60" vol="114" pan="0" len="24" pos="288"/>
          <note key="60" vol="57" pan="0" len="24" pos="312"/>
          <note key="60" vol="65" pan="0" len="24" pos="336"/>
          <note key="60" vol="57" pan="0" len="24" pos="360"/>
          <note key="55" vol="114" pan="0" len="24" pos="384"/>
          <note key="55" vol="57" pan="0" len="24" pos="408"/>
          <note key="55" vol="65" pan="0" len="24" pos="432"/>
          <note key="55" vol="57" pan="0" len="24" pos="456"/>
          <note key="55" vol="114" pan="0" len="24" pos="480"/>
          <note key="55" vol="57" pan="0" len="24" pos="504"/>
          <note key="55" vol="65" pan="0" len="24" pos="528"/>
          <note key="55" vol="57" pan="0" len="24" pos="552"/>
          <note key="57" vol="114" pan="0" len="24" pos="576"/>
          <note key="57" vol="57" pan="0" len="24" pos="600"/>
          <note key="57" vol="65" pan="0" len="24" pos="624"/>
          <note key="57" vol="57" pan="0" len="24" pos="648"/>
          <note key="57" vol="114" pan="0" len="24" pos="672"/>
          <note key="57" vol="57" pan="0" len="24" pos="696"/>
          <note key="57" vol="65" pan="0" len="24" pos="720"/>
          <note key="57" vol="57" pan="0" len="24" pos="744"/>
          <note key="59" vol="114" pan="0" len="24" pos="768"/>
          <note key="59" vol="57" pan="0" len="24" pos="792"/>
          <note key="59" vol="65" pan="0" len="24" pos="816"/>
          <note key="59" vol="57" pan="0" len="24" pos="840"/>
          <note key="59" vol="114" pan="0" len="24" pos="864"/>
          <note key="59" vol="57" pan="0" len="24" pos="888"/>
          <note key="59" vol="65" pan="0" len="24" pos="912"/>
          <note key="59" vol="57" pan="0" len="24" pos="936"/>
          <note key="60" vol="114" pan="0" len="24" pos="960"/>
          <note key="60" vol="57" pan="0" len="24" pos="984"/>
          <note key="60" vol="65" pan="0" len="24" pos="1008"/>
          <note key="60" vol="57" pan="0" len="24" pos="1032"/>
          <note key="60" vol="114" pan="0" len="24" pos="1056"/>
          <note key="60" vol="57" pan="0" len="24" pos="1080"/>
          <note key="60" vol="65" pan="0" len="24" pos="1104"/>
          <note key="60" vol="57" pan="0" len="24" pos="1128"/>
          <note key="62" vol="114" pan="0" len="24" pos="1152"/>
          <note key="62" vol="57" pan="0" len="24" pos="1176"/>
          <note key="62" vol="65" pan="0" len="24" pos="1200"/>
          <note key="62" vol="57" pan="0" len="24" pos="1224"/>
          <note key="62" vol="114" pan="0" len="24" pos="1248"/>
          <note key="62" vol="57" pan="0" len="24" pos="1272"/>
          <note key="62" vol="65" pan="0" len="24" pos="1296"/>
          <note key="62" vol="57" pan="0" len="24" pos="1320"/>
          <note key="64" vol="114" pan="0" len="24" pos="1344"/>
          <note key="64" vol="57" pan="0" len="24" pos="1368"/>
          <note key="64" vol="65" pan="0" len="24" pos="1392"/>
          <note key="64" vol="57" pan="0" len="24" pos="1416"/>
          <note key="64" vol="114" pan="0" len="24" pos="1440"/>
          <note key="64" vol="57" pan="0" len="24" pos="1464"/>
          <note key="64" vol="65" pan="0" len="24" pos="1488"/>
          <note key="64" vol="57" pan="0" len="24" pos="1512"/>
        </pattern>
      </track>
      <track muted="0" solo="0" type="0" name="icechime.ogg">
        <instrumenttrack pitchrange="1" fxch="0" vol="100" usemasterpitch="1" pan="0" basenote="57" pitch="0">
          <instrument name="audiofileprocessor">
            <audiofileprocessor reversed="0" lframe="0" src="noteblock/icechime.ogg" eframe="1" stutter="0" looped="0" amp="100" interp="1" sframe="0"/>
          </instrument>
          <eldata fcut="14000" fwet="0" fres="0.5" ftype="0">
            <elvol pdel="0" userwavefile="" lshp="0" lpdel="0" lspd="0.1" latt="0" lspd_denominator="4" lamt="0" rel="0.508" sustain="0.5" lspd_syncmode="0" dec="0.5" lspd_numerator="4" att="0" ctlenvamt="0" hold="0.5" amt="1" x100="0"/>
            <elcut pdel="0" userwavefile="" lshp="0" lpdel="0" lspd="0.1" latt="0" lspd_denominator="4" lamt="0" rel="0.1" sustain="0.5" lspd_syncmode="0" dec="0.5" lspd_numerator="4" att="0" ctlenvamt="0" hold="0.5" amt="0" x100="0"/>
            <elres pdel="0" userwavefile="" lshp="0" lpdel="0" lspd="0.1" latt="0" lspd_denominator="4" lamt="0" rel="0.1" sustain="0.5" lspd_syncmode="0" dec="0.5" lspd_numerator="4" att="0" ctlenvamt="0" hold="0.5" amt="0" x100="0"/>
          </eldata>
          <chordcreator chordrange="1" chord="0" chord-enabled="0"/>
          <arpeggiator arprange="1" arpskip="0" arpmiss="0" arpmode="0" arptime_syncmode="0" arp="0" arptime_denominator="4" arp-enabled="0" arpdir="0" arptime_numerator="4" arptime="200" arpcycle="0" arpgate="100"/>
          <midiport outputprogram="1" fixedinputvelocity="-1" outputchannel="1" readable="0" inputcontroller="0" fixedoutputvelocity="-1" inputchannel="0" outputcontroller="0" fixedoutputnote="-1" basevelocity="63" writable="0"/>
          <fxchain numofeffects="0" enabled="0"/>
        </instrumenttrack>
        <pattern muted="0" type="1" steps="16" name="icechime.ogg" pos="1536">
          <note key="33" vol="114" pan="0" len="384" pos="0"/>
        </pattern>
        <pattern muted="0" type="1" steps="16" name="" pos="2304">
          <note key="33" vol="114" pan="0" len="384" pos="0"/>
        </pattern>
      </track>
      <track muted="0" solo="0" type="0" name="bit.ogg">
        <instrumenttrack pitchrange="1" fxch="0" vol="40" usemasterpitch="1" pan="0" basenote="57" pitch="0">
          <instrument name="audiofileprocessor">
            <audiofileprocessor reversed="0" lframe="0" src="noteblock/bit.ogg" eframe="1" stutter="0" looped="0" amp="100" interp="1" sframe="0"/>
          </instrument>
          <eldata fcut="14000" fwet="0" fres="0.5" ftype="0">
            <elvol pdel="0" userwavefile="" lshp="0" lpdel="0" lspd="0.1" latt="0" lspd_denominator="4" lamt="0" rel="0.1" sustain="0.5" lspd_syncmode="0" dec="0.5" lspd_numerator="4" att="0" ctlenvamt="0" hold="0.5" amt="0" x100="0"/>
            <elcut pdel="0" userwavefile="" lshp="0" lpdel="0" lspd="0.1" latt="0" lspd_denominator="4" lamt="0" rel="0.1" sustain="0.5" lspd_syncmode="0" dec="0.5" lspd_numerator="4" att="0" ctlenvamt="0" hold="0.5" amt="0" x100="0"/>
            <elres pdel="0" userwavefile="" lshp="0" lpdel="0" lspd="0.1" latt="0" lspd_denominator="4" lamt="0" rel="0.1" sustain="0.5" lspd_syncmode="0" dec="0.5" lspd_numerator="4" att="0" ctlenvamt="0" hold="0.5" amt="0" x100="0"/>
          </eldata>
          <chordcreator chordrange="1" chord="0" chord-enabled="0"/>
          <arpeggiator arprange="1" arpskip="0" arpmiss="0" arpmode="0" arptime_syncmode="0" arp="0" arptime_denominator="4" arp-enabled="0" arpdir="0" arptime_numerator="4" arptime="200" arpcycle="0" arpgate="100"/>
          <midiport outputprogram="1" fixedinputvelocity="-1" outputchannel="1" readable="0" inputcontroller="0" fixedoutputvelocity="-1" inputchannel="0" outputcontroller="0" fixedoutputnote="-1" basevelocity="63" writable="0"/>
          <fxchain numofeffects="0" enabled="0"/>
        </instrumenttrack>
        <pattern muted="0" type="1" steps="16" name="bit.ogg" pos="768">
          <note key="57" vol="114" pan="0" len="24" pos="0"/>
          <note key="57" vol="57" pan="0" len="24" pos="24"/>
          <note key="57" vol="65" pan="0" len="24" pos="48"/>
          <note key="57" vol="57" pan="0" len="24" pos="72"/>
          <note key="57" vol="114" pan="0" len="24" pos="96"/>
          <note key="57" vol="57" pan="0" len="24" pos="120"/>
          <note key="57" vol="65" pan="0" len="24" pos="144"/>
          <note key="57" vol="57" pan="0" len="24" pos="168"/>
          <note key="57" vol="114" pan="0" len="24" pos="192"/>
          <note key="57" vol="57" pan="0" len="24" pos="216"/>
          <note key="57" vol="65" pan="0" len="24" pos="240"/>
          <note key="57" vol="57" pan="0" len="24" pos="264"/>
          <note key="57" vol="114" pan="0" len="24" pos="288"/>
          <note key="57" vol="57" pan="0" len="24" pos="312"/>
          <note key="57" vol="65" pan="0" len="24" pos="336"/>
          <note key="57" vol="57" pan="0" len="24" pos="360"/>
        </pattern>
        <pattern muted="0" type="1" steps="16" name="" pos="1152">
          <note key="57" vol="114" pan="0" len="24" pos="0"/>
          <note key="57" vol="57" pan="0" len="24" pos="24"/>
          <note key="57" vol="65" pan="0" len="24" pos="48"/>
          <note key="57" vol="57" pan="0" len="24" pos="72"/>
          <note key="57" vol="114" pan="0" len="24" pos="96"/>
          <note key="57" vol="57" pan="0" len="24" pos="120"/>
          <note key="57" vol="65" pan="0" len="24" pos="144"/>
          <note key="57" vol="57" pan="0" len="24" pos="168"/>
          <note key="57" vol="114" pan="0" len="24" pos="192"/>
          <note key="57" vol="57" pan="0" len="24" pos="216"/>
          <note key="57" vol="65" pan="0" len="24" pos="240"/>
          <note key="57" vol="57" pan="0" len="24" pos="264"/>
          <note key="57" vol="114" pan="0" len="24" pos="288"/>
          <note key="57" vol="57" pan="0" len="24" pos="312"/>
          <note key="57" vol="65" pan="0" len="24" pos="336"/>
          <note key="57" vol="57" pan="0" len="24" pos="360"/>
        </pattern>
        <pattern muted="0" type="1" steps="16" name="" pos="1536">
          <note key="59" vol="114" pan="0" len="24" pos="0"/>
          <note key="59" vol="57" pan="0" len="24" pos="24"/>
          <note key="59" vol="65" pan="0" len="24" pos="48"/>
          <note key="59" vol="57" pan="0" len="24" pos="72"/>
          <note key="59" vol="114" pan="0" len="24" pos="96"/>
          <note key="59" vol="57" pan="0" len="24" pos="120"/>
          <note key="59" vol="65" pan="0" len="24" pos="144"/>
          <note key="59" vol="57" pan="0" len="24" pos="168"/>
          <note key="60" vol="114" pan="0" len="24" pos="192"/>
          <note key="60" vol="57" pan="0" len="24" pos="216"/>
          <note key="60" vol="65" pan="0" len="24" pos="240"/>
          <note key="60" vol="57" pan="0" len="24" pos="264"/>
          <note key="60" vol="114" pan="0" len="24" pos="288"/>
          <note key="60" vol="57" pan="0" len="24" pos="312"/>
          <note key="60" vol="65" pan="0" len="24" pos="336"/>
          <note key="60" vol="57" pan="0" len="24" pos="360"/>
          <note key="55" vol="114" pan="0" len="24" pos="384"/>
          <note key="55" vol="57" pan="0" len="24" pos="408"/>
          <note key="55" vol="65" pan="0" len="24" pos="432"/>
          <note key="55" vol="57" pan="0" len="24" pos="456"/>
          <note key="55" vol="114" pan="0" len="24" pos="480"/>
          <note key="55" vol="57" pan="0" len="24" pos="504"/>
          <note key="55" vol="65" pan="0" len="24" pos="528"/>
          <note key="55" vol="57" pan="0" len="24" pos="552"/>
          <note key="57" vol="114" pan="0" len="24" pos="576"/>
          <note key="57" vol="57" pan="0" len="24" pos="600"/>
          <note key="57" vol="65" pan="0" len="24" pos="624"/>
          <note key="57" vol="57" pan="0" len="24" pos="648"/>
          <note key="57" vol="114" pan="0" len="24" pos="672"/>
          <note key="57" vol="57" pan="0" len="24" pos="696"/>
          <note key="57" vol="65" pan="0" len="24" pos="720"/>
          <note key="57" vol="57" pan="0" len="24" pos="744"/>
          <note key="59" vol="114" pan="0" len="24" pos="768"/>
          <note key="59" vol="57" pan="0" len="24" pos="792"/>
          <note key="59" vol="65" pan="0" len="24" pos="816"/>
          <note key="59" vol="57" pan="0" len="24" pos="840"/>
          <note key="59" vol="114" pan="0" len="24" pos="864"/>
          <note key="59" vol="57" pan="0" len="24" pos="888"/>
          <note key="59" vol="65" pan="0" len="24" pos="912"/>
          <note key="59" vol="57" pan="0" len="24" pos="936"/>
          <note key="60" vol="114" pan="0" len="24" pos="960"/>
          <note key="60" vol="57" pan="0" len="24" pos="984"/>
          <note key="60" vol="65" pan="0" len="24" pos="1008"/>
          <note key="60" vol="57" pan="0" len="24" pos="1032"/>
          <note key="60" vol="114" pan="0" len="24" pos="1056"/>
          <note key="60" vol="57" pan="0" len="24" pos="1080"/>
          <note key="60" vol="65" pan="0" len="24" pos="1104"/>
          <note key="60" vol="57" pan="0" len="24" pos="1128"/>
          <note key="62" vol="114" pan="0" len="24" pos="1152"/>
          <note key="62" vol="57" pan="0" len="24" pos="1176"/>
          <note key="62" vol="65" pan="0" len="24" pos="1200"/>
          <note key="62" vol="57" pan="0" len="24" pos="1224"/>
          <note key="62" vol="114" pan="0" len="24" pos="1248"/>
          <note key="62" vol="57" pan="0" len="24" pos="1272"/>
          <note key="62" vol="65" pan="0" len="24" pos="1296"/>
          <note key="62" vol="57" pan="0" len="24" pos="1320"/>
          <note key="64" vol="114" pan="0" len="24" pos="1344"/>
          <note key="64" vol="57" pan="0" len="24" pos="1368"/>
          <note key="64" vol="65" pan="0" len="24" pos="1392"/>
          <note key="64" vol="57" pan="0" len="24" pos="1416"/>
          <note key="64" vol="114" pan="0" len="24" pos="1440"/>
          <note key="64" vol="57" pan="0" len="24" pos="1464"/>
          <note key="64" vol="65" pan="0" len="24" pos="1488"/>
          <note key="64" vol="57" pan="0" len="24" pos="1512"/>
        </pattern>
      </track>
      <track muted="0" solo="0" type="0" name="icechime.ogg">
        <instrumenttrack pitchrange="1" fxch="0" vol="100" usemasterpitch="1" pan="0" basenote="57" pitch="0">
          <instrument name="audiofileprocessor">
            <audiofileprocessor reversed="0" lframe="0" src="noteblock/icechime.ogg" eframe="1" stutter="0" looped="0" amp="100" interp="1" sframe="0"/>
          </instrument>
          <eldata fcut="14000" fwet="0" fres="0.5" ftype="0">
            <elvol pdel="0" userwavefile="" lshp="0" lpdel="0" lspd="0.1" latt="0" lspd_denominator="4" lamt="0" rel="0.1" sustain="0.5" lspd_syncmode="0" dec="0.5" lspd_numerator="4" att="0" ctlenvamt="0" hold="0.5" amt="0" x100="0"/>
            <elcut pdel="0" userwavefile="" lshp="0" lpdel="0" lspd="0.1" latt="0" lspd_denominator="4" lamt="0" rel="0.1" sustain="0.5" lspd_syncmode="0" dec="0.5" lspd_numerator="4" att="0" ctlenvamt="0" hold="0.5" amt="0" x100="0"/>
            <elres pdel="0" userwavefile="" lshp="0" lpdel="0" lspd="0.1" latt="0" lspd_denominator="4" lamt="0" rel="0.1" sustain="0.5" lspd_syncmode="0" dec="0.5" lspd_numerator="4" att="0" ctlenvamt="0" hold="0.5" amt="0" x100="0"/>
          </eldata>
          <chordcreator chordrange="1" chord="0" chord-enabled="0"/>
          <arpeggiator arprange="1" arpskip="0" arpmiss="0" arpmode="0" arptime_syncmode="0" arp="0" arptime_denominator="4" arp-enabled="0" arpdir="0" arptime_numerator="4" arptime="200" arpcycle="0" arpgate="100"/>
          <midiport outputprogram="1" fixedinputvelocity="-1" outputchannel="1" readable="0" inputcontroller="0" fixedoutputvelocity="-1" inputchannel="0" outputcontroller="0" fixedoutputnote="-1" basevelocity="63" writable="0"/>
          <fxchain numofeffects="0" enabled="0"/>
        </instrumenttrack>
      </track>
    </trackcontainer>
    <track muted="0" solo="0" type="6" name="Automation track">
      <automationtrack/>
      <automationpattern mute="0" prog="0" name="Numerator" tens="1" len="192" pos="0"/>
      <automationpattern mute="0" prog="0" name="Denominator" tens="1" len="192" pos="0"/>
      <automationpattern mute="0" prog="0" name="Tempo" tens="1" len="192" pos="0"/>
      <automationpattern mute="0" prog="0" name="Master volume" tens="1" len="192" pos="0"/>
      <automationpattern mute="0" prog="0" name="Master pitch" tens="1" len="192" pos="0"/>
    </track>
    <fxmixer height="333" visible="1" minimized="0" width="543" maximized="0" y="310" x="5">
      <fxchannel volume="1" muted="0" name="Master" num="0" soloed="0">
        <fxchain numofeffects="0" enabled="0"/>
      </fxchannel>
    </fxmixer>
    <ControllerRackView height="200" visible="1" minimized="0" width="350" maximized="0" y="310" x="680"/>
    <pianoroll height="480" visible="0" minimized="0" width="860" maximized="1" y="5" x="5"/>
    <automationeditor height="400" visible="0" minimized="0" width="860" maximized="0" y="1" x="1"/>
    <projectnotes height="400" visible="0" minimized="0" width="687" maximized="0" y="10" x="700"><![CDATA[<!DOCTYPE HTML PUBLIC "-//W3C//DTD HTML 4.0//EN" "http://www.w3.org/TR/REC-html40/strict.dtd">
<html><head><meta name="qrichtext" content="1" /><style type="text/css">
p, li { white-space: pre-wrap; }
</style></head><body style=" font-family:'MS Shell Dlg 2'; font-size:8.25pt; font-weight:400; font-style:normal;">
<p style="-qt-paragraph-type:empty; margin-top:0px; margin-bottom:0px; margin-left:0px; margin-right:0px; -qt-block-indent:0; text-indent:0px; font-size:7.5pt;"><br /></p></body></html>]]></projectnotes>
    <timeline lpstate="1" lp0pos="0" lp1pos="4608"/>
    <controllers/>
  </song>
</lmms-project>
