<?xml version="1.0"?>
<!DOCTYPE lmms-project>
<lmms-project type="song" creatorversion="1.2.2" version="1.0" creator="LMMS">
  <head bpm="75" timesig_denominator="4" mastervol="100" masterpitch="0" timesig_numerator="4"/>
  <song>
    <trackcontainer visible="1" maximized="1" width="600" type="song" minimized="0" y="2" x="6" height="300">
      <track muted="0" name="pling.ogg" type="0" solo="0">
        <instrumenttrack basenote="54" pitchrange="1" usemasterpitch="1" pitch="0" pan="0" fxch="0" vol="31.2">
          <instrument name="audiofileprocessor">
            <audiofileprocessor looped="0" amp="100" interp="1" lframe="0" sframe="0" stutter="0" reversed="0" eframe="1" src="noteblock/pling.ogg"/>
          </instrument>
          <eldata fwet="0" ftype="0" fcut="14000" fres="0.5">
            <elvol lspd_denominator="4" lspd="0.1" dec="0.5" rel="2" userwavefile="" amt="1" pdel="0" sustain="0.5" lspd_syncmode="0" lshp="0" ctlenvamt="0" att="0" latt="0" hold="0.5" lamt="0" x100="0" lpdel="0" lspd_numerator="4"/>
            <elcut lspd_denominator="4" lspd="0.1" dec="0.5" rel="0.1" userwavefile="" amt="0" pdel="0" sustain="0.5" lspd_syncmode="0" lshp="0" ctlenvamt="0" att="0" latt="0" hold="0.5" lamt="0" x100="0" lpdel="0" lspd_numerator="4"/>
            <elres lspd_denominator="4" lspd="0.1" dec="0.5" rel="0.1" userwavefile="" amt="0" pdel="0" sustain="0.5" lspd_syncmode="0" lshp="0" ctlenvamt="0" att="0" latt="0" hold="0.5" lamt="0" x100="0" lpdel="0" lspd_numerator="4"/>
          </eldata>
          <chordcreator chordrange="1" chord="0" chord-enabled="0"/>
          <arpeggiator arpcycle="0" arptime_denominator="4" arpdir="0" arprange="1" arpgate="100" arpmiss="0" arpskip="0" arpmode="0" arptime_numerator="4" arp="0" arptime_syncmode="0" arp-enabled="0" arptime="200"/>
          <midiport inputcontroller="0" fixedinputvelocity="-1" readable="0" writable="0" inputchannel="0" outputchannel="1" outputcontroller="0" basevelocity="63" fixedoutputnote="-1" fixedoutputvelocity="-1" outputprogram="1"/>
          <fxchain enabled="0" numofeffects="0"/>
        </instrumenttrack>
        <pattern muted="0" name="pling.ogg" type="1" steps="16" pos="0">
          <note key="45" pos="0" pan="0" vol="100" len="24"/>
          <note key="41" pos="48" pan="0" vol="100" len="24"/>
          <note key="45" pos="72" pan="0" vol="100" len="24"/>
          <note key="50" pos="96" pan="0" vol="100" len="24"/>
          <note key="50" pos="120" pan="0" vol="53" len="24"/>
          <note key="50" pos="144" pan="0" vol="19" len="24"/>
          <note key="50" pos="168" pan="0" vol="68" len="24"/>
          <note key="52" pos="192" pan="0" vol="100" len="24"/>
          <note key="48" pos="240" pan="0" vol="100" len="24"/>
          <note key="52" pos="264" pan="0" vol="121" len="24"/>
          <note key="57" pos="288" pan="0" vol="114" len="24"/>
          <note key="57" pos="312" pan="0" vol="38" len="24"/>
          <note key="57" pos="336" pan="0" vol="12" len="24"/>
          <note key="45" pos="360" pan="0" vol="80" len="12"/>
          <note key="45" pos="372" pan="0" vol="97" len="12"/>
        </pattern>
        <pattern muted="0" name="" type="1" steps="16" pos="384">
          <note key="45" pos="0" pan="0" vol="100" len="24"/>
          <note key="41" pos="48" pan="0" vol="100" len="24"/>
          <note key="45" pos="72" pan="0" vol="100" len="24"/>
          <note key="50" pos="96" pan="0" vol="100" len="24"/>
          <note key="50" pos="120" pan="0" vol="53" len="24"/>
          <note key="50" pos="144" pan="0" vol="19" len="24"/>
          <note key="50" pos="168" pan="0" vol="68" len="24"/>
          <note key="52" pos="192" pan="0" vol="100" len="24"/>
          <note key="48" pos="240" pan="0" vol="100" len="24"/>
          <note key="47" pos="264" pan="0" vol="121" len="24"/>
          <note key="45" pos="288" pan="0" vol="114" len="24"/>
          <note key="45" pos="312" pan="0" vol="38" len="24"/>
          <note key="45" pos="336" pan="0" vol="12" len="24"/>
          <note key="45" pos="360" pan="0" vol="80" len="12"/>
          <note key="45" pos="372" pan="0" vol="97" len="12"/>
        </pattern>
        <pattern muted="0" name="" type="1" steps="16" pos="768">
          <note key="45" pos="0" pan="0" vol="100" len="24"/>
          <note key="41" pos="48" pan="0" vol="100" len="24"/>
          <note key="45" pos="72" pan="0" vol="100" len="24"/>
          <note key="50" pos="96" pan="0" vol="100" len="24"/>
          <note key="50" pos="120" pan="0" vol="53" len="24"/>
          <note key="50" pos="144" pan="0" vol="19" len="24"/>
          <note key="50" pos="168" pan="0" vol="68" len="24"/>
          <note key="52" pos="192" pan="0" vol="100" len="24"/>
          <note key="48" pos="240" pan="0" vol="100" len="24"/>
          <note key="52" pos="264" pan="0" vol="121" len="24"/>
          <note key="57" pos="288" pan="0" vol="114" len="24"/>
          <note key="57" pos="312" pan="0" vol="38" len="24"/>
          <note key="57" pos="336" pan="0" vol="12" len="24"/>
          <note key="45" pos="360" pan="0" vol="80" len="12"/>
          <note key="45" pos="372" pan="0" vol="97" len="12"/>
        </pattern>
        <pattern muted="0" name="" type="1" steps="16" pos="1152">
          <note key="45" pos="0" pan="0" vol="100" len="24"/>
          <note key="41" pos="48" pan="0" vol="100" len="24"/>
          <note key="45" pos="72" pan="0" vol="100" len="24"/>
          <note key="50" pos="96" pan="0" vol="100" len="24"/>
          <note key="50" pos="120" pan="0" vol="53" len="24"/>
          <note key="50" pos="144" pan="0" vol="19" len="24"/>
          <note key="50" pos="168" pan="0" vol="68" len="24"/>
          <note key="52" pos="192" pan="0" vol="100" len="24"/>
          <note key="48" pos="240" pan="0" vol="100" len="24"/>
          <note key="47" pos="264" pan="0" vol="121" len="24"/>
          <note key="45" pos="288" pan="0" vol="114" len="24"/>
          <note key="45" pos="312" pan="0" vol="38" len="24"/>
          <note key="45" pos="336" pan="0" vol="12" len="24"/>
          <note key="45" pos="360" pan="0" vol="80" len="12"/>
          <note key="45" pos="372" pan="0" vol="97" len="12"/>
        </pattern>
        <pattern muted="0" name="" type="1" steps="16" pos="1536">
          <note key="45" pos="0" pan="0" vol="100" len="24"/>
          <note key="41" pos="48" pan="0" vol="100" len="24"/>
          <note key="45" pos="72" pan="0" vol="100" len="24"/>
          <note key="50" pos="96" pan="0" vol="100" len="24"/>
          <note key="50" pos="120" pan="0" vol="53" len="24"/>
          <note key="50" pos="144" pan="0" vol="19" len="24"/>
          <note key="50" pos="168" pan="0" vol="68" len="24"/>
          <note key="52" pos="192" pan="0" vol="100" len="24"/>
          <note key="48" pos="240" pan="0" vol="100" len="24"/>
          <note key="47" pos="264" pan="0" vol="121" len="24"/>
          <note key="45" pos="288" pan="0" vol="114" len="24"/>
          <note key="45" pos="312" pan="0" vol="38" len="24"/>
          <note key="45" pos="336" pan="0" vol="12" len="24"/>
          <note key="45" pos="360" pan="0" vol="80" len="12"/>
          <note key="45" pos="372" pan="0" vol="97" len="12"/>
        </pattern>
        <pattern muted="0" name="" type="1" steps="16" pos="1920">
          <note key="45" pos="0" pan="0" vol="100" len="24"/>
          <note key="41" pos="48" pan="0" vol="100" len="24"/>
          <note key="45" pos="72" pan="0" vol="100" len="24"/>
          <note key="50" pos="96" pan="0" vol="100" len="24"/>
          <note key="50" pos="120" pan="0" vol="53" len="24"/>
          <note key="50" pos="144" pan="0" vol="19" len="24"/>
          <note key="50" pos="168" pan="0" vol="68" len="24"/>
          <note key="52" pos="192" pan="0" vol="100" len="24"/>
          <note key="48" pos="240" pan="0" vol="100" len="24"/>
          <note key="47" pos="264" pan="0" vol="121" len="24"/>
          <note key="45" pos="288" pan="0" vol="114" len="24"/>
          <note key="45" pos="312" pan="0" vol="38" len="24"/>
          <note key="45" pos="336" pan="0" vol="12" len="24"/>
          <note key="45" pos="360" pan="0" vol="80" len="12"/>
          <note key="45" pos="372" pan="0" vol="97" len="12"/>
        </pattern>
        <pattern muted="0" name="" type="1" steps="16" pos="2304">
          <note key="45" pos="0" pan="0" vol="100" len="24"/>
          <note key="41" pos="48" pan="0" vol="100" len="24"/>
          <note key="45" pos="72" pan="0" vol="100" len="24"/>
          <note key="50" pos="96" pan="0" vol="100" len="24"/>
          <note key="50" pos="120" pan="0" vol="53" len="24"/>
          <note key="50" pos="144" pan="0" vol="19" len="24"/>
          <note key="50" pos="168" pan="0" vol="68" len="24"/>
          <note key="52" pos="192" pan="0" vol="100" len="24"/>
          <note key="48" pos="240" pan="0" vol="100" len="24"/>
          <note key="52" pos="264" pan="0" vol="121" len="24"/>
          <note key="57" pos="288" pan="0" vol="114" len="24"/>
          <note key="57" pos="312" pan="0" vol="38" len="24"/>
          <note key="57" pos="336" pan="0" vol="12" len="24"/>
          <note key="45" pos="360" pan="0" vol="80" len="12"/>
          <note key="45" pos="372" pan="0" vol="97" len="12"/>
        </pattern>
        <pattern muted="0" name="" type="1" steps="16" pos="2688">
          <note key="45" pos="0" pan="0" vol="100" len="24"/>
          <note key="41" pos="48" pan="0" vol="100" len="24"/>
          <note key="45" pos="72" pan="0" vol="100" len="24"/>
          <note key="50" pos="96" pan="0" vol="100" len="24"/>
          <note key="50" pos="120" pan="0" vol="53" len="24"/>
          <note key="50" pos="144" pan="0" vol="19" len="24"/>
          <note key="50" pos="168" pan="0" vol="68" len="24"/>
          <note key="52" pos="192" pan="0" vol="100" len="24"/>
          <note key="48" pos="240" pan="0" vol="100" len="24"/>
          <note key="47" pos="264" pan="0" vol="121" len="24"/>
          <note key="45" pos="288" pan="0" vol="114" len="24"/>
          <note key="45" pos="312" pan="0" vol="38" len="24"/>
          <note key="45" pos="336" pan="0" vol="12" len="24"/>
          <note key="45" pos="360" pan="0" vol="80" len="12"/>
          <note key="45" pos="372" pan="0" vol="97" len="12"/>
        </pattern>
      </track>
      <track muted="0" name="bass.ogg" type="0" solo="0">
        <instrumenttrack basenote="54" pitchrange="1" usemasterpitch="1" pitch="0" pan="0" fxch="0" vol="39.2">
          <instrument name="audiofileprocessor">
            <audiofileprocessor looped="0" amp="100" interp="1" lframe="0" sframe="0" stutter="0" reversed="0" eframe="1" src="noteblock/bass.ogg"/>
          </instrument>
          <eldata fwet="0" ftype="0" fcut="14000" fres="0.5">
            <elvol lspd_denominator="4" lspd="0.1" dec="0.5" rel="1.892" userwavefile="" amt="1" pdel="0" sustain="0.5" lspd_syncmode="0" lshp="0" ctlenvamt="0" att="0" latt="0" hold="0.5" lamt="0" x100="0" lpdel="0" lspd_numerator="4"/>
            <elcut lspd_denominator="4" lspd="0.1" dec="0.5" rel="0.1" userwavefile="" amt="0" pdel="0" sustain="0.5" lspd_syncmode="0" lshp="0" ctlenvamt="0" att="0" latt="0" hold="0.5" lamt="0" x100="0" lpdel="0" lspd_numerator="4"/>
            <elres lspd_denominator="4" lspd="0.1" dec="0.5" rel="0.1" userwavefile="" amt="0" pdel="0" sustain="0.5" lspd_syncmode="0" lshp="0" ctlenvamt="0" att="0" latt="0" hold="0.5" lamt="0" x100="0" lpdel="0" lspd_numerator="4"/>
          </eldata>
          <chordcreator chordrange="1" chord="0" chord-enabled="0"/>
          <arpeggiator arpcycle="0" arptime_denominator="4" arpdir="0" arprange="1" arpgate="100" arpmiss="0" arpskip="0" arpmode="0" arptime_numerator="4" arp="0" arptime_syncmode="0" arp-enabled="0" arptime="200"/>
          <midiport inputcontroller="0" fixedinputvelocity="-1" readable="0" writable="0" inputchannel="0" outputchannel="1" outputcontroller="0" basevelocity="63" fixedoutputnote="-1" fixedoutputvelocity="-1" outputprogram="1"/>
          <fxchain enabled="0" numofeffects="0"/>
        </instrumenttrack>
        <pattern muted="0" name="" type="1" steps="16" pos="0">
          <note key="45" pos="0" pan="0" vol="119" len="24"/>
          <note key="50" pos="72" pan="0" vol="119" len="24"/>
          <note key="52" pos="192" pan="0" vol="119" len="24"/>
          <note key="57" pos="264" pan="0" vol="119" len="24"/>
          <note key="45" pos="312" pan="0" vol="119" len="24"/>
          <note key="48" pos="336" pan="0" vol="119" len="24"/>
          <note key="50" pos="360" pan="0" vol="119" len="24"/>
        </pattern>
        <pattern muted="0" name="" type="1" steps="16" pos="384">
          <note key="45" pos="0" pan="0" vol="119" len="24"/>
          <note key="50" pos="72" pan="0" vol="119" len="24"/>
          <note key="52" pos="192" pan="0" vol="119" len="24"/>
          <note key="57" pos="264" pan="0" vol="119" len="24"/>
          <note key="45" pos="312" pan="0" vol="119" len="24"/>
          <note key="48" pos="336" pan="0" vol="119" len="24"/>
          <note key="50" pos="360" pan="0" vol="119" len="24"/>
        </pattern>
        <pattern muted="0" name="" type="1" steps="16" pos="768">
          <note key="45" pos="0" pan="0" vol="119" len="24"/>
          <note key="50" pos="72" pan="0" vol="119" len="24"/>
          <note key="52" pos="192" pan="0" vol="119" len="24"/>
          <note key="57" pos="264" pan="0" vol="119" len="24"/>
          <note key="45" pos="312" pan="0" vol="119" len="24"/>
          <note key="48" pos="336" pan="0" vol="119" len="24"/>
          <note key="50" pos="360" pan="0" vol="119" len="24"/>
        </pattern>
        <pattern muted="0" name="" type="1" steps="16" pos="1152">
          <note key="45" pos="0" pan="0" vol="119" len="24"/>
          <note key="50" pos="72" pan="0" vol="119" len="24"/>
          <note key="52" pos="192" pan="0" vol="119" len="24"/>
          <note key="57" pos="264" pan="0" vol="119" len="24"/>
          <note key="45" pos="312" pan="0" vol="119" len="24"/>
          <note key="48" pos="336" pan="0" vol="119" len="24"/>
          <note key="50" pos="360" pan="0" vol="119" len="24"/>
        </pattern>
        <pattern muted="0" name="" type="1" steps="16" pos="1536">
          <note key="45" pos="0" pan="0" vol="119" len="24"/>
          <note key="50" pos="72" pan="0" vol="119" len="24"/>
          <note key="52" pos="192" pan="0" vol="119" len="24"/>
          <note key="57" pos="264" pan="0" vol="119" len="24"/>
          <note key="45" pos="312" pan="0" vol="119" len="24"/>
          <note key="48" pos="336" pan="0" vol="119" len="24"/>
          <note key="50" pos="360" pan="0" vol="119" len="24"/>
        </pattern>
        <pattern muted="0" name="" type="1" steps="16" pos="1920">
          <note key="45" pos="0" pan="0" vol="119" len="24"/>
          <note key="50" pos="72" pan="0" vol="119" len="24"/>
          <note key="52" pos="192" pan="0" vol="119" len="24"/>
          <note key="57" pos="264" pan="0" vol="119" len="24"/>
          <note key="45" pos="312" pan="0" vol="119" len="24"/>
          <note key="48" pos="336" pan="0" vol="119" len="24"/>
          <note key="50" pos="360" pan="0" vol="119" len="24"/>
        </pattern>
        <pattern muted="0" name="" type="1" steps="16" pos="2304">
          <note key="45" pos="0" pan="0" vol="119" len="24"/>
          <note key="50" pos="72" pan="0" vol="119" len="24"/>
          <note key="52" pos="192" pan="0" vol="119" len="24"/>
          <note key="57" pos="264" pan="0" vol="119" len="24"/>
          <note key="45" pos="312" pan="0" vol="119" len="24"/>
          <note key="48" pos="336" pan="0" vol="119" len="24"/>
          <note key="50" pos="360" pan="0" vol="119" len="24"/>
        </pattern>
        <pattern muted="0" name="" type="1" steps="16" pos="2688">
          <note key="45" pos="0" pan="0" vol="119" len="24"/>
          <note key="50" pos="72" pan="0" vol="119" len="24"/>
          <note key="52" pos="192" pan="0" vol="119" len="24"/>
          <note key="57" pos="264" pan="0" vol="119" len="24"/>
          <note key="45" pos="312" pan="0" vol="119" len="24"/>
          <note key="48" pos="336" pan="0" vol="119" len="24"/>
          <note key="50" pos="360" pan="0" vol="119" len="24"/>
        </pattern>
      </track>
      <track muted="0" visible="1" maximized="0" width="262" name="snare.ogg" type="0" solo="0" minimized="0" tab="0" y="0" x="995" height="467">
        <instrumenttrack basenote="54" pitchrange="1" usemasterpitch="1" pitch="0" pan="0" fxch="0" vol="36">
          <instrument name="audiofileprocessor">
            <audiofileprocessor looped="0" amp="100" interp="1" lframe="0" sframe="0" stutter="0" reversed="0" eframe="1" src="noteblock/snare.ogg"/>
          </instrument>
          <eldata fwet="0" ftype="0" fcut="14000" fres="0.5">
            <elvol lspd_denominator="4" lspd="0.1" dec="0.5" rel="0.1" userwavefile="" amt="0" pdel="0" sustain="0.5" lspd_syncmode="0" lshp="0" ctlenvamt="0" att="0" latt="0" hold="0.5" lamt="0" x100="0" lpdel="0" lspd_numerator="4"/>
            <elcut lspd_denominator="4" lspd="0.1" dec="0.5" rel="0.1" userwavefile="" amt="0" pdel="0" sustain="0.5" lspd_syncmode="0" lshp="0" ctlenvamt="0" att="0" latt="0" hold="0.5" lamt="0" x100="0" lpdel="0" lspd_numerator="4"/>
            <elres lspd_denominator="4" lspd="0.1" dec="0.5" rel="0.1" userwavefile="" amt="0" pdel="0" sustain="0.5" lspd_syncmode="0" lshp="0" ctlenvamt="0" att="0" latt="0" hold="0.5" lamt="0" x100="0" lpdel="0" lspd_numerator="4"/>
          </eldata>
          <chordcreator chordrange="1" chord="0" chord-enabled="0"/>
          <arpeggiator arpcycle="0" arptime_denominator="4" arpdir="0" arprange="1" arpgate="100" arpmiss="0" arpskip="0" arpmode="0" arptime_numerator="4" arp="0" arptime_syncmode="0" arp-enabled="0" arptime="200"/>
          <midiport inputcontroller="0" fixedinputvelocity="-1" readable="0" writable="0" inputchannel="0" outputchannel="1" outputcontroller="0" basevelocity="63" fixedoutputnote="-1" fixedoutputvelocity="-1" outputprogram="1"/>
          <fxchain enabled="0" numofeffects="0"/>
        </instrumenttrack>
        <pattern muted="0" name="snare.ogg" type="1" steps="16" pos="768">
          <note key="42" pos="0" pan="0" vol="59" len="48"/>
          <note key="42" pos="72" pan="0" vol="59" len="24"/>
          <note key="42" pos="168" pan="0" vol="29" len="24"/>
          <note key="42" pos="192" pan="0" vol="59" len="48"/>
          <note key="42" pos="264" pan="0" vol="59" len="24"/>
        </pattern>
        <pattern muted="0" name="" type="1" steps="16" pos="1152">
          <note key="42" pos="0" pan="0" vol="59" len="48"/>
          <note key="42" pos="72" pan="0" vol="59" len="24"/>
          <note key="42" pos="168" pan="0" vol="29" len="24"/>
          <note key="42" pos="192" pan="0" vol="59" len="48"/>
          <note key="42" pos="264" pan="0" vol="59" len="24"/>
        </pattern>
        <pattern muted="0" name="" type="1" steps="16" pos="2688">
          <note key="42" pos="0" pan="0" vol="59" len="48"/>
          <note key="42" pos="72" pan="0" vol="59" len="24"/>
          <note key="42" pos="168" pan="0" vol="29" len="24"/>
          <note key="42" pos="192" pan="0" vol="59" len="48"/>
          <note key="42" pos="264" pan="0" vol="59" len="24"/>
        </pattern>
      </track>
      <track muted="0" name="hat.ogg" type="0" solo="0">
        <instrumenttrack basenote="54" pitchrange="1" usemasterpitch="1" pitch="0" pan="0" fxch="0" vol="32.8">
          <instrument name="audiofileprocessor">
            <audiofileprocessor looped="0" amp="100" interp="1" lframe="0" sframe="0" stutter="0" reversed="0" eframe="1" src="noteblock/hat.ogg"/>
          </instrument>
          <eldata fwet="0" ftype="0" fcut="14000" fres="0.5">
            <elvol lspd_denominator="4" lspd="0.1" dec="0.5" rel="0.1" userwavefile="" amt="0" pdel="0" sustain="0.5" lspd_syncmode="0" lshp="0" ctlenvamt="0" att="0" latt="0" hold="0.5" lamt="0" x100="0" lpdel="0" lspd_numerator="4"/>
            <elcut lspd_denominator="4" lspd="0.1" dec="0.5" rel="0.1" userwavefile="" amt="0" pdel="0" sustain="0.5" lspd_syncmode="0" lshp="0" ctlenvamt="0" att="0" latt="0" hold="0.5" lamt="0" x100="0" lpdel="0" lspd_numerator="4"/>
            <elres lspd_denominator="4" lspd="0.1" dec="0.5" rel="0.1" userwavefile="" amt="0" pdel="0" sustain="0.5" lspd_syncmode="0" lshp="0" ctlenvamt="0" att="0" latt="0" hold="0.5" lamt="0" x100="0" lpdel="0" lspd_numerator="4"/>
          </eldata>
          <chordcreator chordrange="1" chord="0" chord-enabled="0"/>
          <arpeggiator arpcycle="0" arptime_denominator="4" arpdir="0" arprange="1" arpgate="100" arpmiss="0" arpskip="0" arpmode="0" arptime_numerator="4" arp="0" arptime_syncmode="0" arp-enabled="0" arptime="200"/>
          <midiport inputcontroller="0" fixedinputvelocity="-1" readable="0" writable="0" inputchannel="0" outputchannel="1" outputcontroller="0" basevelocity="63" fixedoutputnote="-1" fixedoutputvelocity="-1" outputprogram="1"/>
          <fxchain enabled="0" numofeffects="0"/>
        </instrumenttrack>
        <pattern muted="0" name="" type="1" steps="16" pos="768">
          <note key="54" pos="96" pan="0" vol="59" len="24"/>
          <note key="54" pos="288" pan="0" vol="59" len="24"/>
        </pattern>
        <pattern muted="0" name="" type="1" steps="16" pos="1152">
          <note key="54" pos="96" pan="0" vol="59" len="24"/>
          <note key="54" pos="288" pan="0" vol="59" len="24"/>
        </pattern>
        <pattern muted="0" name="" type="1" steps="16" pos="1536">
          <note key="54" pos="96" pan="0" vol="59" len="24"/>
          <note key="54" pos="288" pan="0" vol="59" len="24"/>
        </pattern>
        <pattern muted="0" name="" type="1" steps="16" pos="1920">
          <note key="54" pos="96" pan="0" vol="59" len="24"/>
          <note key="54" pos="288" pan="0" vol="59" len="24"/>
        </pattern>
        <pattern muted="0" name="" type="1" steps="16" pos="2304">
          <note key="54" pos="96" pan="0" vol="59" len="24"/>
          <note key="54" pos="288" pan="0" vol="59" len="24"/>
        </pattern>
        <pattern muted="0" name="" type="1" steps="16" pos="2688">
          <note key="54" pos="96" pan="0" vol="59" len="24"/>
          <note key="54" pos="288" pan="0" vol="59" len="24"/>
        </pattern>
      </track>
      <track muted="0" visible="1" maximized="0" width="262" name="guitar.ogg" type="0" solo="0" minimized="0" tab="1" y="338" x="995" height="467">
        <instrumenttrack basenote="54" pitchrange="1" usemasterpitch="1" pitch="0" pan="0" fxch="0" vol="30.4">
          <instrument name="audiofileprocessor">
            <audiofileprocessor looped="0" amp="100" interp="1" lframe="0" sframe="0" stutter="0" reversed="0" eframe="1" src="noteblock/guitar.ogg"/>
          </instrument>
          <eldata fwet="0" ftype="0" fcut="14000" fres="0.5">
            <elvol lspd_denominator="4" lspd="0.1" dec="0.5" rel="1.236" userwavefile="" amt="1" pdel="0" sustain="0.5" lspd_syncmode="0" lshp="0" ctlenvamt="0" att="0" latt="0" hold="0.5" lamt="0" x100="0" lpdel="0" lspd_numerator="4"/>
            <elcut lspd_denominator="4" lspd="0.1" dec="0.5" rel="0.1" userwavefile="" amt="0" pdel="0" sustain="0.5" lspd_syncmode="0" lshp="0" ctlenvamt="0" att="0" latt="0" hold="0.5" lamt="0" x100="0" lpdel="0" lspd_numerator="4"/>
            <elres lspd_denominator="4" lspd="0.1" dec="0.5" rel="0.1" userwavefile="" amt="0" pdel="0" sustain="0.5" lspd_syncmode="0" lshp="0" ctlenvamt="0" att="0" latt="0" hold="0.5" lamt="0" x100="0" lpdel="0" lspd_numerator="4"/>
          </eldata>
          <chordcreator chordrange="1" chord="0" chord-enabled="0"/>
          <arpeggiator arpcycle="0" arptime_denominator="4" arpdir="0" arprange="1" arpgate="100" arpmiss="0" arpskip="0" arpmode="0" arptime_numerator="4" arp="0" arptime_syncmode="0" arp-enabled="0" arptime="200"/>
          <midiport inputcontroller="0" fixedinputvelocity="-1" readable="0" writable="0" inputchannel="0" outputchannel="1" outputcontroller="0" basevelocity="63" fixedoutputnote="-1" fixedoutputvelocity="-1" outputprogram="1"/>
          <fxchain enabled="0" numofeffects="0"/>
        </instrumenttrack>
        <pattern muted="0" name="guitar.ogg" type="1" steps="16" pos="768">
          <note key="57" pos="0" pan="0" vol="108" len="24"/>
          <note key="48" pos="24" pan="0" vol="108" len="24"/>
          <note key="48" pos="60" pan="0" vol="108" len="24"/>
          <note key="50" pos="84" pan="0" vol="108" len="24"/>
          <note key="52" pos="132" pan="0" vol="108" len="24"/>
          <note key="53" pos="156" pan="0" vol="125" len="12"/>
          <note key="52" pos="168" pan="0" vol="112" len="24"/>
          <note key="52" pos="192" pan="0" vol="108" len="24"/>
          <note key="48" pos="216" pan="0" vol="114" len="24"/>
          <note key="52" pos="252" pan="0" vol="108" len="24"/>
          <note key="57" pos="276" pan="0" vol="108" len="24"/>
          <note key="60" pos="324" pan="0" vol="108" len="24"/>
          <note key="59" pos="348" pan="0" vol="125" len="12"/>
          <note key="57" pos="360" pan="0" vol="146" len="24"/>
          <note key="57" pos="384" pan="0" vol="117" len="24"/>
          <note key="48" pos="408" pan="0" vol="110" len="24"/>
          <note key="48" pos="444" pan="0" vol="110" len="12"/>
          <note key="55" pos="456" pan="0" vol="93" len="12"/>
          <note key="50" pos="468" pan="0" vol="110" len="24"/>
          <note key="52" pos="516" pan="0" vol="110" len="24"/>
          <note key="53" pos="540" pan="0" vol="110" len="12"/>
          <note key="52" pos="552" pan="0" vol="110" len="24"/>
          <note key="52" pos="576" pan="0" vol="110" len="24"/>
          <note key="48" pos="600" pan="0" vol="110" len="24"/>
          <note key="48" pos="636" pan="0" vol="110" len="12"/>
          <note key="52" pos="648" pan="0" vol="93" len="12"/>
          <note key="57" pos="660" pan="0" vol="110" len="24"/>
          <note key="60" pos="708" pan="0" vol="110" len="24"/>
          <note key="59" pos="732" pan="0" vol="123" len="12"/>
          <note key="57" pos="744" pan="0" vol="114" len="24"/>
        </pattern>
        <pattern muted="0" name="guitar.ogg" type="1" steps="16" pos="1536">
          <note key="57" pos="0" pan="0" vol="78" len="24"/>
          <note key="57" pos="48" pan="0" vol="42" len="24"/>
          <note key="57" pos="96" pan="0" vol="48" len="24"/>
          <note key="57" pos="144" pan="0" vol="48" len="24"/>
          <note key="59" pos="192" pan="0" vol="78" len="24"/>
          <note key="59" pos="240" pan="0" vol="42" len="24"/>
          <note key="60" pos="288" pan="0" vol="48" len="24"/>
          <note key="60" pos="336" pan="0" vol="48" len="24"/>
          <note key="57" pos="384" pan="0" vol="78" len="24"/>
          <note key="57" pos="432" pan="0" vol="42" len="24"/>
          <note key="57" pos="480" pan="0" vol="48" len="24"/>
          <note key="57" pos="528" pan="0" vol="48" len="24"/>
          <note key="62" pos="576" pan="0" vol="78" len="24"/>
          <note key="64" pos="624" pan="0" vol="42" len="24"/>
          <note key="60" pos="672" pan="0" vol="48" len="24"/>
          <note key="60" pos="720" pan="0" vol="48" len="24"/>
        </pattern>
        <pattern muted="0" name="" type="1" steps="16" pos="2304">
          <note key="57" pos="0" pan="0" vol="108" len="24"/>
          <note key="48" pos="24" pan="0" vol="108" len="24"/>
          <note key="48" pos="60" pan="0" vol="108" len="24"/>
          <note key="50" pos="84" pan="0" vol="108" len="24"/>
          <note key="52" pos="132" pan="0" vol="108" len="24"/>
          <note key="53" pos="156" pan="0" vol="125" len="12"/>
          <note key="52" pos="168" pan="0" vol="112" len="24"/>
          <note key="52" pos="192" pan="0" vol="108" len="24"/>
          <note key="48" pos="216" pan="0" vol="114" len="24"/>
          <note key="52" pos="252" pan="0" vol="108" len="24"/>
          <note key="57" pos="276" pan="0" vol="108" len="24"/>
          <note key="60" pos="324" pan="0" vol="108" len="24"/>
          <note key="59" pos="348" pan="0" vol="125" len="12"/>
          <note key="57" pos="360" pan="0" vol="146" len="24"/>
          <note key="57" pos="384" pan="0" vol="117" len="24"/>
          <note key="48" pos="408" pan="0" vol="110" len="24"/>
          <note key="48" pos="444" pan="0" vol="110" len="12"/>
          <note key="55" pos="456" pan="0" vol="93" len="12"/>
          <note key="50" pos="468" pan="0" vol="110" len="24"/>
          <note key="52" pos="516" pan="0" vol="110" len="24"/>
          <note key="53" pos="540" pan="0" vol="110" len="12"/>
          <note key="52" pos="552" pan="0" vol="110" len="24"/>
          <note key="52" pos="576" pan="0" vol="110" len="24"/>
          <note key="48" pos="600" pan="0" vol="110" len="24"/>
          <note key="48" pos="636" pan="0" vol="110" len="12"/>
          <note key="52" pos="648" pan="0" vol="93" len="12"/>
          <note key="57" pos="660" pan="0" vol="110" len="24"/>
          <note key="60" pos="708" pan="0" vol="110" len="24"/>
          <note key="59" pos="732" pan="0" vol="123" len="12"/>
          <note key="57" pos="744" pan="0" vol="114" len="24"/>
        </pattern>
      </track>
      <track muted="0" name="guitar.ogg" type="0" solo="0">
        <instrumenttrack basenote="54" pitchrange="1" usemasterpitch="1" pitch="0" pan="0" fxch="0" vol="30.4">
          <instrument name="audiofileprocessor">
            <audiofileprocessor looped="0" amp="100" interp="1" lframe="0" sframe="0" stutter="0" reversed="0" eframe="1" src="noteblock/guitar.ogg"/>
          </instrument>
          <eldata fwet="0" ftype="0" fcut="14000" fres="0.5">
            <elvol lspd_denominator="4" lspd="0.1" dec="0.5" rel="1.236" userwavefile="" amt="1" pdel="0" sustain="0.5" lspd_syncmode="0" lshp="0" ctlenvamt="0" att="0" latt="0" hold="0.5" lamt="0" x100="0" lpdel="0" lspd_numerator="4"/>
            <elcut lspd_denominator="4" lspd="0.1" dec="0.5" rel="0.1" userwavefile="" amt="0" pdel="0" sustain="0.5" lspd_syncmode="0" lshp="0" ctlenvamt="0" att="0" latt="0" hold="0.5" lamt="0" x100="0" lpdel="0" lspd_numerator="4"/>
            <elres lspd_denominator="4" lspd="0.1" dec="0.5" rel="0.1" userwavefile="" amt="0" pdel="0" sustain="0.5" lspd_syncmode="0" lshp="0" ctlenvamt="0" att="0" latt="0" hold="0.5" lamt="0" x100="0" lpdel="0" lspd_numerator="4"/>
          </eldata>
          <chordcreator chordrange="1" chord="0" chord-enabled="0"/>
          <arpeggiator arpcycle="0" arptime_denominator="4" arpdir="0" arprange="1" arpgate="100" arpmiss="0" arpskip="0" arpmode="0" arptime_numerator="4" arp="0" arptime_syncmode="0" arp-enabled="0" arptime="200"/>
          <midiport inputcontroller="0" fixedinputvelocity="-1" readable="0" writable="0" inputchannel="0" outputchannel="1" outputcontroller="0" basevelocity="63" fixedoutputnote="-1" fixedoutputvelocity="-1" outputprogram="1"/>
          <fxchain enabled="0" numofeffects="0"/>
        </instrumenttrack>
        <pattern muted="0" name="guitar.ogg" type="1" steps="16" pos="768">
          <note key="57" pos="12" pan="0" vol="53" len="24"/>
          <note key="48" pos="36" pan="0" vol="53" len="24"/>
          <note key="48" pos="72" pan="0" vol="53" len="24"/>
          <note key="50" pos="96" pan="0" vol="53" len="24"/>
          <note key="52" pos="144" pan="0" vol="53" len="24"/>
          <note key="53" pos="168" pan="0" vol="53" len="12"/>
          <note key="52" pos="180" pan="0" vol="53" len="24"/>
          <note key="52" pos="204" pan="0" vol="53" len="24"/>
          <note key="48" pos="228" pan="0" vol="53" len="24"/>
          <note key="52" pos="264" pan="0" vol="53" len="24"/>
          <note key="57" pos="288" pan="0" vol="53" len="24"/>
          <note key="60" pos="336" pan="0" vol="53" len="24"/>
          <note key="59" pos="360" pan="0" vol="53" len="12"/>
          <note key="57" pos="372" pan="0" vol="53" len="24"/>
          <note key="57" pos="396" pan="0" vol="53" len="24"/>
          <note key="48" pos="420" pan="0" vol="53" len="24"/>
          <note key="48" pos="456" pan="0" vol="53" len="12"/>
          <note key="55" pos="468" pan="0" vol="53" len="12"/>
          <note key="50" pos="480" pan="0" vol="53" len="24"/>
          <note key="52" pos="528" pan="0" vol="53" len="24"/>
          <note key="53" pos="552" pan="0" vol="53" len="12"/>
          <note key="52" pos="564" pan="0" vol="53" len="24"/>
          <note key="52" pos="588" pan="0" vol="53" len="24"/>
          <note key="48" pos="612" pan="0" vol="53" len="24"/>
          <note key="48" pos="648" pan="0" vol="53" len="12"/>
          <note key="52" pos="660" pan="0" vol="53" len="12"/>
          <note key="57" pos="672" pan="0" vol="53" len="24"/>
          <note key="60" pos="720" pan="0" vol="53" len="24"/>
          <note key="59" pos="744" pan="0" vol="53" len="12"/>
          <note key="57" pos="756" pan="0" vol="53" len="12"/>
        </pattern>
        <pattern muted="0" name="" type="1" steps="16" pos="1536">
          <note key="60" pos="312" pan="0" vol="17" len="24"/>
          <note key="60" pos="360" pan="0" vol="17" len="24"/>
          <note key="62" pos="600" pan="0" vol="17" len="24"/>
          <note key="64" pos="648" pan="0" vol="17" len="24"/>
          <note key="60" pos="696" pan="0" vol="17" len="24"/>
          <note key="60" pos="744" pan="0" vol="17" len="24"/>
        </pattern>
        <pattern muted="0" name="" type="1" steps="16" pos="2304">
          <note key="57" pos="12" pan="0" vol="53" len="24"/>
          <note key="48" pos="36" pan="0" vol="53" len="24"/>
          <note key="48" pos="72" pan="0" vol="53" len="24"/>
          <note key="50" pos="96" pan="0" vol="53" len="24"/>
          <note key="52" pos="144" pan="0" vol="53" len="24"/>
          <note key="53" pos="168" pan="0" vol="53" len="12"/>
          <note key="52" pos="180" pan="0" vol="53" len="24"/>
          <note key="52" pos="204" pan="0" vol="53" len="24"/>
          <note key="48" pos="228" pan="0" vol="53" len="24"/>
          <note key="52" pos="264" pan="0" vol="53" len="24"/>
          <note key="57" pos="288" pan="0" vol="53" len="24"/>
          <note key="60" pos="336" pan="0" vol="53" len="24"/>
          <note key="59" pos="360" pan="0" vol="53" len="12"/>
          <note key="57" pos="372" pan="0" vol="53" len="24"/>
          <note key="57" pos="396" pan="0" vol="53" len="24"/>
          <note key="48" pos="420" pan="0" vol="53" len="24"/>
          <note key="48" pos="456" pan="0" vol="53" len="12"/>
          <note key="55" pos="468" pan="0" vol="53" len="12"/>
          <note key="50" pos="480" pan="0" vol="53" len="24"/>
          <note key="52" pos="528" pan="0" vol="53" len="24"/>
          <note key="53" pos="552" pan="0" vol="53" len="12"/>
          <note key="52" pos="564" pan="0" vol="53" len="24"/>
          <note key="52" pos="588" pan="0" vol="53" len="24"/>
          <note key="48" pos="612" pan="0" vol="53" len="24"/>
          <note key="48" pos="648" pan="0" vol="53" len="12"/>
          <note key="52" pos="660" pan="0" vol="53" len="12"/>
          <note key="57" pos="672" pan="0" vol="53" len="24"/>
          <note key="60" pos="720" pan="0" vol="53" len="24"/>
          <note key="59" pos="744" pan="0" vol="53" len="12"/>
          <note key="57" pos="756" pan="0" vol="53" len="12"/>
        </pattern>
      </track>
      <track muted="0" visible="1" maximized="0" width="262" name="harp2.ogg" type="0" solo="0" minimized="0" tab="1" y="0" x="606" height="467">
        <instrumenttrack basenote="54" pitchrange="1" usemasterpitch="1" pitch="0" pan="0" fxch="0" vol="34.4">
          <instrument name="audiofileprocessor">
            <audiofileprocessor looped="0" amp="100" interp="1" lframe="0" sframe="0" stutter="0" reversed="0" eframe="1" src="noteblock/harp2.ogg"/>
          </instrument>
          <eldata fwet="0" ftype="0" fcut="14000" fres="0.5">
            <elvol lspd_denominator="4" lspd="0.1" dec="0.5" rel="0.468" userwavefile="" amt="1" pdel="0" sustain="0.5" lspd_syncmode="0" lshp="0" ctlenvamt="0" att="0" latt="0" hold="0.5" lamt="0" x100="0" lpdel="0" lspd_numerator="4"/>
            <elcut lspd_denominator="4" lspd="0.1" dec="0.5" rel="0.1" userwavefile="" amt="0" pdel="0" sustain="0.5" lspd_syncmode="0" lshp="0" ctlenvamt="0" att="0" latt="0" hold="0.5" lamt="0" x100="0" lpdel="0" lspd_numerator="4"/>
            <elres lspd_denominator="4" lspd="0.1" dec="0.5" rel="0.1" userwavefile="" amt="0" pdel="0" sustain="0.5" lspd_syncmode="0" lshp="0" ctlenvamt="0" att="0" latt="0" hold="0.5" lamt="0" x100="0" lpdel="0" lspd_numerator="4"/>
          </eldata>
          <chordcreator chordrange="1" chord="0" chord-enabled="0"/>
          <arpeggiator arpcycle="0" arptime_denominator="4" arpdir="0" arprange="1" arpgate="100" arpmiss="0" arpskip="0" arpmode="0" arptime_numerator="4" arp="0" arptime_syncmode="0" arp-enabled="0" arptime="200"/>
          <midiport inputcontroller="0" fixedinputvelocity="-1" readable="0" writable="0" inputchannel="0" outputchannel="1" outputcontroller="0" basevelocity="63" fixedoutputnote="-1" fixedoutputvelocity="-1" outputprogram="1"/>
          <fxchain enabled="0" numofeffects="0"/>
        </instrumenttrack>
        <pattern muted="0" name="harp2.ogg" type="1" steps="16" pos="1536">
          <note key="45" pos="0" pan="0" vol="180" len="24"/>
          <note key="48" pos="48" pan="0" vol="180" len="12"/>
          <note key="50" pos="60" pan="0" vol="180" len="12"/>
          <note key="55" pos="72" pan="0" vol="180" len="12"/>
          <note key="52" pos="84" pan="0" vol="180" len="60"/>
          <note key="52" pos="192" pan="0" vol="180" len="24"/>
          <note key="48" pos="240" pan="0" vol="180" len="12"/>
          <note key="47" pos="252" pan="0" vol="180" len="12"/>
          <note key="45" pos="264" pan="0" vol="180" len="12"/>
          <note key="45" pos="276" pan="0" vol="180" len="60"/>
          <note key="45" pos="384" pan="0" vol="180" len="24"/>
          <note key="45" pos="432" pan="0" vol="180" len="12"/>
          <note key="48" pos="444" pan="0" vol="180" len="12"/>
          <note key="55" pos="456" pan="0" vol="180" len="12"/>
          <note key="50" pos="468" pan="0" vol="180" len="60"/>
          <note key="52" pos="576" pan="0" vol="180" len="24"/>
          <note key="48" pos="624" pan="0" vol="180" len="12"/>
          <note key="52" pos="636" pan="0" vol="180" len="12"/>
          <note key="48" pos="648" pan="0" vol="180" len="12"/>
          <note key="57" pos="660" pan="0" vol="180" len="60"/>
        </pattern>
        <pattern muted="0" name="" type="1" steps="16" pos="0">
          <note key="57" pos="0" pan="0" vol="36" len="24"/>
          <note key="48" pos="24" pan="0" vol="36" len="24"/>
          <note key="48" pos="60" pan="0" vol="36" len="24"/>
          <note key="50" pos="84" pan="0" vol="36" len="24"/>
          <note key="52" pos="132" pan="0" vol="36" len="24"/>
          <note key="53" pos="156" pan="0" vol="36" len="12"/>
          <note key="52" pos="168" pan="0" vol="36" len="24"/>
          <note key="52" pos="192" pan="0" vol="36" len="24"/>
          <note key="48" pos="216" pan="0" vol="36" len="24"/>
          <note key="52" pos="252" pan="0" vol="36" len="24"/>
          <note key="57" pos="276" pan="0" vol="36" len="24"/>
          <note key="60" pos="324" pan="0" vol="36" len="24"/>
          <note key="59" pos="348" pan="0" vol="36" len="12"/>
          <note key="57" pos="360" pan="0" vol="36" len="24"/>
          <note key="57" pos="384" pan="0" vol="36" len="24"/>
          <note key="48" pos="408" pan="0" vol="36" len="24"/>
          <note key="48" pos="444" pan="0" vol="36" len="12"/>
          <note key="55" pos="456" pan="0" vol="36" len="12"/>
          <note key="50" pos="468" pan="0" vol="36" len="24"/>
          <note key="52" pos="516" pan="0" vol="36" len="24"/>
          <note key="53" pos="540" pan="0" vol="36" len="12"/>
          <note key="52" pos="552" pan="0" vol="36" len="24"/>
          <note key="52" pos="576" pan="0" vol="36" len="24"/>
          <note key="48" pos="600" pan="0" vol="36" len="24"/>
          <note key="48" pos="636" pan="0" vol="36" len="12"/>
          <note key="52" pos="648" pan="0" vol="36" len="12"/>
          <note key="57" pos="660" pan="0" vol="36" len="24"/>
          <note key="60" pos="708" pan="0" vol="36" len="24"/>
          <note key="59" pos="732" pan="0" vol="36" len="12"/>
          <note key="57" pos="744" pan="0" vol="36" len="24"/>
        </pattern>
      </track>
      <track muted="0" name="harp2.ogg" type="0" solo="0">
        <instrumenttrack basenote="54" pitchrange="1" usemasterpitch="1" pitch="0" pan="0" fxch="0" vol="31.2">
          <instrument name="audiofileprocessor">
            <audiofileprocessor looped="0" amp="100" interp="1" lframe="0" sframe="0" stutter="0" reversed="0" eframe="1" src="noteblock/harp2.ogg"/>
          </instrument>
          <eldata fwet="0" ftype="0" fcut="14000" fres="0.5">
            <elvol lspd_denominator="4" lspd="0.1" dec="0.5" rel="0.468" userwavefile="" amt="1" pdel="0" sustain="0.5" lspd_syncmode="0" lshp="0" ctlenvamt="0" att="0" latt="0" hold="0.5" lamt="0" x100="0" lpdel="0" lspd_numerator="4"/>
            <elcut lspd_denominator="4" lspd="0.1" dec="0.5" rel="0.1" userwavefile="" amt="0" pdel="0" sustain="0.5" lspd_syncmode="0" lshp="0" ctlenvamt="0" att="0" latt="0" hold="0.5" lamt="0" x100="0" lpdel="0" lspd_numerator="4"/>
            <elres lspd_denominator="4" lspd="0.1" dec="0.5" rel="0.1" userwavefile="" amt="0" pdel="0" sustain="0.5" lspd_syncmode="0" lshp="0" ctlenvamt="0" att="0" latt="0" hold="0.5" lamt="0" x100="0" lpdel="0" lspd_numerator="4"/>
          </eldata>
          <chordcreator chordrange="1" chord="0" chord-enabled="0"/>
          <arpeggiator arpcycle="0" arptime_denominator="4" arpdir="0" arprange="1" arpgate="100" arpmiss="0" arpskip="0" arpmode="0" arptime_numerator="4" arp="0" arptime_syncmode="0" arp-enabled="0" arptime="200"/>
          <midiport inputcontroller="0" fixedinputvelocity="-1" readable="0" writable="0" inputchannel="0" outputchannel="1" outputcontroller="0" basevelocity="63" fixedoutputnote="-1" fixedoutputvelocity="-1" outputprogram="1"/>
          <fxchain enabled="0" numofeffects="0"/>
        </instrumenttrack>
        <pattern muted="0" name="" type="1" steps="16" pos="1536">
          <note key="45" pos="12" pan="0" vol="74" len="24"/>
          <note key="48" pos="60" pan="0" vol="74" len="12"/>
          <note key="50" pos="72" pan="0" vol="74" len="12"/>
          <note key="55" pos="84" pan="0" vol="74" len="12"/>
          <note key="52" pos="96" pan="0" vol="74" len="60"/>
          <note key="52" pos="204" pan="0" vol="74" len="24"/>
          <note key="48" pos="252" pan="0" vol="74" len="12"/>
          <note key="47" pos="264" pan="0" vol="74" len="12"/>
          <note key="45" pos="276" pan="0" vol="74" len="12"/>
          <note key="45" pos="288" pan="0" vol="74" len="60"/>
          <note key="45" pos="396" pan="0" vol="74" len="24"/>
          <note key="45" pos="444" pan="0" vol="74" len="12"/>
          <note key="48" pos="456" pan="0" vol="74" len="12"/>
          <note key="55" pos="468" pan="0" vol="74" len="12"/>
          <note key="50" pos="480" pan="0" vol="74" len="60"/>
          <note key="52" pos="588" pan="0" vol="74" len="24"/>
          <note key="48" pos="636" pan="0" vol="74" len="12"/>
          <note key="52" pos="648" pan="0" vol="74" len="12"/>
          <note key="48" pos="660" pan="0" vol="74" len="12"/>
          <note key="57" pos="672" pan="0" vol="74" len="60"/>
        </pattern>
      </track>
    </trackcontainer>
    <track muted="0" name="Automation track" type="6" solo="0">
      <automationtrack/>
      <automationpattern name="Numerator" pos="0" len="192" mute="0" prog="0" tens="1"/>
      <automationpattern name="Denominator" pos="0" len="192" mute="0" prog="0" tens="1"/>
      <automationpattern name="Tempo" pos="0" len="192" mute="0" prog="0" tens="1"/>
      <automationpattern name="Master volume" pos="0" len="192" mute="0" prog="0" tens="1"/>
      <automationpattern name="Master pitch" pos="0" len="192" mute="0" prog="0" tens="1"/>
    </track>
    <fxmixer visible="1" maximized="0" width="543" minimized="0" y="310" x="5" height="333">
      <fxchannel muted="0" soloed="0" name="Master" num="0" volume="1">
        <fxchain enabled="0" numofeffects="0"/>
      </fxchannel>
    </fxmixer>
    <ControllerRackView visible="1" maximized="0" width="350" minimized="0" y="310" x="680" height="200"/>
    <pianoroll visible="0" maximized="1" width="860" minimized="0" y="5" x="5" height="480"/>
    <automationeditor visible="0" maximized="0" width="860" minimized="0" y="1" x="1" height="400"/>
    <projectnotes visible="0" maximized="0" width="687" minimized="0" y="10" x="700" height="400"><![CDATA[<!DOCTYPE HTML PUBLIC "-//W3C//DTD HTML 4.0//EN" "http://www.w3.org/TR/REC-html40/strict.dtd">
<html><head><meta name="qrichtext" content="1" /><style type="text/css">
p, li { white-space: pre-wrap; }
</style></head><body style=" font-family:'MS Shell Dlg 2'; font-size:7.5pt; font-weight:400; font-style:normal;">
<p style="-qt-paragraph-type:empty; margin-top:0px; margin-bottom:0px; margin-left:0px; margin-right:0px; -qt-block-indent:0; text-indent:0px;"><br /></p></body></html>]]></projectnotes>
    <timeline lp0pos="0" lpstate="1" lp1pos="3072"/>
    <controllers/>
  </song>
</lmms-project>
